<svg id="rounded" xmlns="http://www.w3.org/2000/svg" viewBox="0 0 16.39 17.01"><defs><style>.cls-1{fill:#231f20;}</style></defs><title>GPlus</title><path class="cls-1" d="M553.49,145.12c-2,0-3.48-1.28-3.48-2.82s1.81-2.76,3.83-2.74a4.42,4.42,0,0,1,1.31.21c1.1,0.76,1.88,1.19,2.11,2.06a2.34,2.34,0,0,1,.06.54c0,1.54-1,2.74-3.83,2.74m0.53-9c-1.36,0-2.65-1.52-2.88-3.3s0.68-3.15,2-3.11,2.65,1.47,2.88,3.25-0.68,3.19-2,3.15m2.81,2.64a3.43,3.43,0,0,1-1.39-1.64c0-.57.16-0.84,1-1.51a3.54,3.54,0,0,0,1.49-2.75,3.14,3.14,0,0,0-1.7-3h1.67l1.18-.85h-5.27c-2.36,0-4.58,1.79-4.58,3.86a3.81,3.81,0,0,0,4,3.83h0.49a2.15,2.15,0,0,0-.27,1,2,2,0,0,0,.72,1.46h-0.91c-2.93,0-5.18,1.86-5.18,3.79s2.47,3.09,5.39,3.09c3.33,0,5.18-1.89,5.18-3.79a3.67,3.67,0,0,0-1.84-3.42m7.66-2.48h-2.05V134.2h-1.65v2.05h-2.05v1.65h2.05V140h1.65v-2.05h2.05v-1.65Z" transform="translate(-548.1 -128.95)"/></svg>