<?xml version="1.0" standalone="no"?>
<!DOCTYPE svg PUBLIC "-//W3C//DTD SVG 1.1//EN" "http://www.w3.org/Graphics/SVG/1.1/DTD/svg11.dtd" >
<svg xmlns="http://www.w3.org/2000/svg">
<metadata></metadata>
<defs>
<font id="MrsWhiteRegular" horiz-adv-x="1044" >
<font-face units-per-em="2048" ascent="1536" descent="-512" />
<missing-glyph horiz-adv-x="655" />
<glyph horiz-adv-x="1124" d="M92 80v1560q0 34 24 58t58 24h764q34 0 58 -24t24 -58v-1560q0 -32 -24 -56t-58 -24h-764q-34 0 -58 24t-24 56zM254 162h604v1399h-604v-1399z" />
<glyph horiz-adv-x="1124" d="M92 80v1560q0 34 24 58t58 24h764q34 0 58 -24t24 -58v-1560q0 -32 -24 -56t-58 -24h-764q-34 0 -58 24t-24 56zM254 162h604v1399h-604v-1399z" />
<glyph horiz-adv-x="2048" />
<glyph unicode=" "  horiz-adv-x="655" />
<glyph unicode="&#x09;" horiz-adv-x="655" />
<glyph unicode="&#xa0;" horiz-adv-x="655" />
<glyph unicode="!" horiz-adv-x="534" d="M219 113q3 43 35.5 72t75.5 26q44 -1 73.5 -34.5t26.5 -76.5q-3 -44 -36 -73t-77 -27q-43 3 -72 36t-26 77zM244 477v989q0 32 23 53t57 21t56.5 -21t22.5 -53v-989q0 -33 -22 -50t-57 -17t-57.5 17.5t-22.5 49.5z" />
<glyph unicode="&#x22;" horiz-adv-x="614" d="M27 1245v258q0 33 23 53.5t56 20.5q35 0 58.5 -20.5t23.5 -53.5v-258q0 -33 -23.5 -51t-58.5 -18q-34 0 -56.5 18.5t-22.5 50.5zM289 1245v258q0 33 23.5 53.5t56.5 20.5q35 0 58.5 -20.5t23.5 -53.5v-258q0 -33 -23.5 -51t-58.5 -18q-34 0 -57 18.5t-23 50.5z" />
<glyph unicode="#" horiz-adv-x="2109" d="M63 465l416 35l127 354l-530 -43h-6q-30 0 -49 24t-21 53t14.5 54.5t48.5 28.5l603 49l200 557q10 30 39.5 41t59.5 0q33 -11 48 -37.5t5 -58.5l-176 -488l602 49l176 494q7 19 21 30t30 14t34 0.5t32.5 -12t25 -22t13 -30t-3.5 -35.5l-152 -424l287 24q33 3 52.5 -16.5 t22.5 -54.5q3 -36 -13 -61.5t-48 -28.5l-360 -29l-129 -354l475 38q66 3 73 -71q3 -36 -12 -61.5t-47 -28.5l-549 -45l-178 -498q-16 -43 -72 -43q-44 0 -68.5 31.5t-11.5 66.5l154 428l-600 -49l-158 -434q-13 -43 -69 -43q-44 0 -69 31t-13 67l133 365l-344 -27h-6 q-40 0 -59 38.5t-4 78t56 43.5zM655 514l600 49l129 355l-602 -50z" />
<glyph unicode="$" horiz-adv-x="880" d="M51 377q-3 17 3 33t18.5 26t29 17.5t33.5 8t32.5 -4t27 -17t14.5 -30.5q40 -193 180 -238v297q-90 20 -121 35q-82 40 -116 112q-25 54 -21.5 112.5t35.5 109.5q32 49 93.5 87t129.5 52v67q0 60 80 60q82 0 82 -60v-69q128 -20 188 -62q18 -14 24 -33.5t0.5 -37 t-17.5 -34.5t-29.5 -26t-35 -11t-34.5 9q-37 21 -96 35v-221l59 -19q97 -38 146 -96q68 -74 69.5 -184t-65.5 -193q-79 -95 -209 -104v-53q0 -32 -22.5 -48t-57.5 -16q-36 0 -59 16t-23 48v61q-268 54 -338 371zM307 680q22 -31 82 -45v176q-41 -12 -74 -45 q-15 -15 -19 -38.5t11 -47.5zM551 158q51 9 86 50t29 93q-5 43 -29 72t-84 51h-2v-266z" />
<glyph unicode="%" horiz-adv-x="1394" d="M20 1223q0 132 86.5 224.5t215.5 92.5t219 -96q82 -95 82 -221q0 -133 -87 -225.5t-214 -92.5q-129 0 -215.5 92t-86.5 226zM182 1223q0 -63 37.5 -110.5t102.5 -47.5t102 47.5t37 110.5t-37 109t-102 46t-102.5 -46t-37.5 -109zM231 31l766 1540q15 29 47.5 39.5 t61.5 -4.5q30 -13 40.5 -45.5t-3.5 -61.5l-766 -1540q-10 -21 -30 -33t-42 -12q-47 0 -69.5 38.5t-4.5 78.5zM754 319q0 86 38.5 159t108 116t154.5 43q84 0 153 -43t107.5 -116t38.5 -159t-39 -158.5t-107.5 -115.5t-152.5 -43q-63 0 -119.5 25t-96 67.5t-62.5 101 t-23 123.5zM913 319q0 -63 38 -109t104 -46q64 0 101.5 46t37.5 109t-37.5 109.5t-101.5 46.5q-65 0 -103.5 -46.5t-38.5 -109.5z" />
<glyph unicode="&#x26;" horiz-adv-x="1236" d="M231 145q-26 45 -40 90.5t-15.5 89t2.5 83.5t20.5 82.5t32.5 77t43 76t48.5 71.5t52.5 71q-129 233 -137 408q-7 171 96 274q46 47 108.5 71.5t128.5 21.5q57 -2 109 -31.5t87 -76t53 -106t11 -118.5q-4 -44 -15 -79.5t-39 -83t-49 -77.5t-75 -104l-16 -21 q-12 -18 -37.5 -50.5t-30.5 -39.5q20 -30 52 -72q65 -91 172 -208q40 128 47 229q3 33 29.5 49t56 13.5t53.5 -23.5t22 -53q-15 -156 -81 -344q139 -139 247 -218q26 -22 26 -51t-22 -57q-19 -28 -45 -34.5t-53 13.5q-93 66 -223 189q-63 -112 -150 -171t-190 -59 q-28 0 -72 7q-128 25 -207 161zM336 379q-6 -48 11 -100.5t50.5 -90.5t71.5 -45q157 -32 256 176q4 4 4 7q-138 145 -240 280q-3 4 -6.5 9.5t-8 12.5t-7.5 11q-116 -155 -131 -260zM399 1202q3 -114 84 -276q3 4 8 10t9.5 12l7.5 10l16 23q86 116 114 165.5t34 102.5 q5 28 -5 59t-32 54q-27 36 -70 39h-6q-77 0 -121 -57.5t-39 -141.5z" />
<glyph unicode="'" horiz-adv-x="352" d="M27 1245v258q0 33 23 53.5t56 20.5q35 0 58.5 -20.5t23.5 -53.5v-258q0 -33 -23.5 -51t-58.5 -18q-34 0 -56.5 18.5t-22.5 50.5z" />
<glyph unicode="(" horiz-adv-x="475" d="M6 750q0 154 12.5 265t46.5 211t77 181t118 197q18 27 50 31t59 -15q28 -19 36 -49t-10 -58q-130 -195 -180.5 -366.5t-48.5 -394.5q3 -210 62 -396t180 -391q22 -38 -2.5 -77.5t-71.5 -39.5q-46 0 -66 35q-69 115 -111.5 200t-80 190t-54 221t-16.5 256z" />
<glyph unicode=")" horiz-adv-x="501" d="M57 -35q121 205 180 391t62 396q2 223 -48.5 394.5t-180.5 366.5q-18 28 -10 58t36 49q27 19 59 15t50 -31q75 -116 118 -197t77 -181t46.5 -211t12.5 -265q0 -140 -16.5 -256t-54 -221t-80 -190t-111.5 -200q-20 -35 -66 -35q-47 0 -71.5 39.5t-2.5 77.5z" />
<glyph unicode="*" horiz-adv-x="702" d="M4 1436q11 33 37.5 47t58.5 4l160 -53v170q0 32 23.5 52.5t56.5 20.5q34 0 57 -20.5t23 -52.5v-170l162 53q30 10 56.5 -5t37.5 -48q9 -32 -3 -61.5t-42 -39.5l-160 -51l98 -137q28 -36 3 -79.5t-72 -43.5q-42 0 -62 29l-98 135l-98 -135q-20 -29 -62 -29q-47 0 -72 43.5 t3 79.5l98 137l-160 51q-30 10 -42 40t-3 63z" />
<glyph unicode="+" d="M143 514q0 33 23.5 56.5t56.5 23.5h217v219q0 32 24 56t58 24q32 0 56 -24t24 -56v-219h217q34 0 58 -23t24 -57t-24 -57t-58 -23h-217v-217q0 -34 -24 -58t-56 -24q-34 0 -58 24t-24 58v217h-217q-33 0 -56.5 23.5t-23.5 56.5z" />
<glyph unicode="," horiz-adv-x="497" d="M139 -156q30 49 46 92.5t23 95t7 128.5q0 33 23.5 51t58.5 18t56.5 -18t21.5 -51q0 -129 -19 -216t-77 -184q-11 -18 -25 -24t-37 -6q-46 0 -72.5 39.5t-5.5 74.5z" />
<glyph unicode="-" horiz-adv-x="827" d="M215 514q0 33 23.5 56.5t56.5 23.5h356q34 0 58 -23t24 -57t-24 -57t-58 -23h-356q-33 0 -56.5 23.5t-23.5 56.5z" />
<glyph unicode="." horiz-adv-x="514" d="M178 113q3 43 35.5 72t75.5 26q44 -1 73.5 -34.5t26.5 -76.5q-3 -44 -36 -73t-77 -27q-43 3 -72 36t-26 77z" />
<glyph unicode="/" horiz-adv-x="804" d="M158 -154l491 1696q9 31 34.5 41.5t59.5 1.5q33 -10 51 -33.5t9 -54.5l-490 -1696q-7 -22 -20 -31t-37 -12q-47 -8 -77.5 21.5t-20.5 66.5z" />
<glyph unicode="0" horiz-adv-x="851" d="M63 522q0 149 53.5 258t151.5 164q67 37 154 37q94 0 165.5 -36.5t115.5 -102t66 -152t22 -190.5q0 -109 -21.5 -199t-65 -159t-115.5 -107.5t-167 -38.5q-137 0 -229 92q-133 133 -130 434zM225 522q-3 -236 82 -321q43 -43 115 -43q17 0 28 1t35 7.5t40.5 18.5t37.5 37 t34.5 60t22.5 91.5t9 126.5q0 194 -78 272q-47 47 -129 47q-37 0 -68 -13t-51 -33.5t-35 -49t-23 -55t-13 -57t-6 -50.5t-1 -39z" />
<glyph unicode="1" horiz-adv-x="745" d="M68 651q-23 28 -24.5 55.5t24.5 49.5l284 225q43 30 87 7t44 -70v-762h199q31 0 47 -22t16 -56q0 -36 -16 -59t-47 -23h-551q-61 0 -61 78q0 82 61 82h191v596l-156 -123q-51 -39 -98 22z" />
<glyph unicode="2" horiz-adv-x="882" d="M74 618q-11 67 8.5 134.5t64.5 121.5q47 57 116 87t149 30q65 0 126 -25.5t107 -69t69 -109t13 -138.5q-15 -95 -82 -186q-63 -85 -237 -252q1 0 8 -3t15.5 -7t18.5 -8.5t15 -6.5q35 -17 60 -27t54 -16t50 -2t40.5 19.5t32.5 44.5q28 61 103 37q30 -9 44 -27t11 -41 t-15.5 -48t-33.5 -50q-23 -28 -54.5 -49t-73 -34.5t-83.5 -12.5q-14 0 -27 1t-26.5 4t-22.5 4.5t-23 6.5t-20 6.5t-21.5 8.5t-20 9t-22.5 10.5t-22 10.5q-1 1 -13.5 7t-23.5 9.5t-24 5.5q-39 4 -72.5 -11t-75.5 -46q-20 -14 -42.5 -13t-41 16.5t-30 35t-9 44t20.5 42.5 q97 85 240 223t192 203q80 113 39 193q-19 36 -58.5 58.5t-84.5 22.5q-93 -3 -142 -61q-50 -56 -37 -123q6 -33 -11 -53t-52 -25q-35 -6 -62.5 6t-33.5 43z" />
<glyph unicode="3" horiz-adv-x="839" d="M63 -25q-3 30 13 46.5t55 23.5q74 11 90 -45q0 -2 4 -16.5t7 -23t11 -25.5t19 -33q49 -82 144 -82q98 0 154.5 67.5t53.5 173.5q-3 127 -73 185q-39 31 -101.5 43t-106 9.5t-77.5 -9.5q-50 -11 -78 39q-33 56 -2 92l316 375l-332 2q-22 0 -36.5 12t-21 30t-6.5 40 q0 35 16.5 57t47.5 22l506 -4q23 0 42.5 -12.5t28.5 -34.5q21 -44 -10 -84l-309 -368q225 -20 319 -205q55 -120 34.5 -259t-101.5 -222q-106 -109 -262 -109h-2q-105 0 -179 51q-61 38 -106 111q-52 83 -58 153z" />
<glyph unicode="4" horiz-adv-x="831" d="M76 117q1 0 13.5 21t31.5 61.5t38.5 90.5t36.5 116t23 129q8 78 9 138t-4 98.5t-9 56t-12 39.5q-1 5 -2 7q-20 68 53 91q32 12 58.5 5t35.5 -30q58 -158 31 -422q-17 -175 -103 -364h189l4 280q2 22 21 40.5t61 19.5q41 0 60.5 -21t19.5 -43l-6 -274h129q57 0 57 -80 t-57 -80l-131 -2l-7 -227q0 -21 -18.5 -41.5t-58.5 -20.5q-41 0 -61.5 21t-20.5 45l4 223l-318 -2q-27 0 -49.5 19t-28.5 46.5t11 59.5z" />
<glyph unicode="5" horiz-adv-x="817" d="M76 -39q-10 29 4 50.5t41 29.5q71 25 106 -39q82 -155 183 -152q81 2 129 70q81 110 47 285q-18 89 -78 123q-40 23 -101.5 26t-104 -5t-75.5 -19q-41 -13 -73.5 11t-32.5 65v483q0 32 24 56t56 24l413 2h2q31 0 47.5 -21.5t16.5 -56.5t-16.5 -58.5t-47.5 -23.5l-333 -2 v-301q8 0 28 4q169 18 275 -45q127 -73 157 -231q22 -129 5 -232q-25 -129 -117.5 -219t-218.5 -90q-111 0 -200.5 69t-135.5 197z" />
<glyph unicode="6" horiz-adv-x="933" d="M100 289q-35 112 -37.5 253t22.5 269t69 223q108 235 303 258q111 13 190 -26q52 -25 103 -84.5t77 -153.5q6 -24 -12.5 -44t-48.5 -23q-75 -12 -98 40q-35 87 -78.5 114t-114.5 18q-104 -14 -176 -166q-71 -151 -74 -361q1 0 6.5 5.5t9.5 8.5t12.5 10t16 12t20 12 t24.5 12.5t28 11.5t33 10t37.5 8t42.5 6q186 16 297 -79q106 -86 118 -242q16 -175 -86 -289q-44 -49 -116 -85t-170 -36q-171 0 -271 97q-87 81 -127 221zM295 432q-26 -51 -14.5 -126.5t57.5 -121.5q55 -55 158 -55q108 -3 168 70q31 40 40 86t7 82q-9 89 -62 133 q-61 52 -180 43q-128 -13 -174 -111z" />
<glyph unicode="7" horiz-adv-x="890" d="M45 690q-8 119 12 182q17 57 58 92t100 44q76 9 137 -35q29 -23 74 -76q5 -5 16.5 -18t17 -18.5t14 -13.5t16 -12t14.5 -6q79 -18 141 33q52 77 76 101q47 53 94 36q50 -15 53 -75q7 -72 -102 -168q-115 -174 -186 -367h131q63 0 63 -80t-63 -80h-183q-66 -239 -100 -573 q-6 -59 -78 -59q-36 0 -60.5 21t-21.5 54q36 340 92 557h-153q-32 0 -49 23t-17 57q0 36 17 58t49 22h203q45 162 114 275q-38 4 -57 10q-35 8 -68 30t-51.5 41t-42.5 48q-7 8 -15.5 18.5t-12 15t-9 10t-9.5 7.5t-8.5 3t-10.5 1q-42 -4 -35 -139v-7q3 -32 -16 -47t-56 -18 q-82 -7 -88 53z" />
<glyph unicode="8" horiz-adv-x="925" d="M47 438q13 84 64.5 147t162.5 142q-139 91 -168 240q-27 134 62 247q51 62 127 97t160 35q78 0 148.5 -31t117.5 -86q45 -50 65 -113t11 -127q-17 -148 -162 -252q117 -76 173.5 -140t70.5 -157q27 -187 -82 -311q-63 -76 -162 -113q-74 -32 -168 -32q-84 0 -176 34.5 t-156 106.5q-115 131 -88 313zM207 414q-12 -113 49 -183q39 -45 98 -66.5t113 -21.5t113 23.5t96 66.5q61 73 43 183q-6 42 -36.5 80.5t-76 67t-79.5 45t-70 30.5q-56 -26 -88.5 -44t-70.5 -45.5t-60 -61t-31 -74.5zM264 997q11 -63 55 -102.5t132 -77.5q88 44 133.5 86.5 t52.5 106.5q11 71 -47.5 122.5t-134.5 51.5q-103 0 -162 -72q-41 -52 -29 -115z" />
<glyph unicode="9" horiz-adv-x="894" d="M70 -74q-5 14 1 30.5t20.5 29.5t33.5 18q73 23 98 -31q43 -81 91.5 -115t123.5 -34q42 0 71.5 8t46.5 25t26 31.5t18 39.5q47 118 47 385q-49 -30 -100.5 -44t-122.5 -13q-150 3 -252 102q-71 64 -97 164t-1.5 200.5t90.5 168.5q106 110 274 108q84 -1 141.5 -20.5 t106.5 -58.5q112 -90 121 -275q11 -215 2 -407q-8 -154 -18.5 -224.5t-40.5 -150.5q-38 -92 -125 -146q-86 -54 -193 -51q-95 2 -158 29.5t-127 97.5q-14 16 -25.5 32t-20 31.5t-13 26t-10.5 25.5t-8 18zM223 610q2 -37 15.5 -71t37.5 -62t63.5 -44t88.5 -15q43 0 77.5 9 t56.5 21.5t39 32t25.5 37.5t13.5 40.5t6 37.5t1 33q0 53 -12.5 93t-44.5 73q-20 20 -37.5 31t-46.5 17.5t-72 6.5q-95 0 -160 -76q-55 -67 -51 -164z" />
<glyph unicode=":" horiz-adv-x="481" d="M166 113q3 43 35 72t75 26q44 -1 74 -34.5t27 -76.5q-3 -44 -36 -73t-77 -27q-43 3 -72 36t-26 77zM166 717q3 43 35 72t75 26q44 -1 74 -34t27 -76q-3 -44 -36 -73.5t-77 -27.5q-43 3 -72 36t-26 77z" />
<glyph unicode=";" horiz-adv-x="495" d="M139 -156q30 49 46 92.5t23 95t7 128.5q0 33 23.5 51t58.5 18t56.5 -18t21.5 -51q0 -129 -19 -216t-77 -184q-11 -18 -25 -24t-37 -6q-46 0 -72.5 39.5t-5.5 74.5zM180 717q3 43 35.5 72t75.5 26q44 -1 73.5 -34t26.5 -76q-1 -22 -10.5 -41t-24.5 -32.5t-35 -21t-42 -6.5 q-43 3 -72.5 36t-26.5 77z" />
<glyph unicode="&#x3c;" horiz-adv-x="958" d="M184 514q0 31 23 57l422 422q25 23 54 22t52 -26q24 -24 27 -54t-19 -56l-366 -365l366 -367q23 -24 21 -53t-27 -53q-24 -24 -53 -27t-55 19l-422 422q-23 26 -23 59z" />
<glyph unicode="=" d="M143 354q0 33 23.5 56.5t56.5 23.5h596q34 0 58 -23t24 -57t-24 -57t-58 -23h-596q-33 0 -56.5 23.5t-23.5 56.5zM143 674q0 33 23.5 56.5t56.5 23.5h596q34 0 58 -23t24 -57t-24 -57t-58 -23h-596q-33 0 -56.5 23.5t-23.5 56.5z" />
<glyph unicode="&#x3e;" horiz-adv-x="958" d="M221 147l367 367l-367 365q-22 26 -19 56t27 54q23 25 53.5 26t53.5 -22l422 -422q22 -22 22 -57q0 -37 -22 -59l-422 -422q-24 -22 -54.5 -19t-54.5 27q-25 24 -27 53t21 53z" />
<glyph unicode="?" horiz-adv-x="731" d="M59 1294q42 134 133.5 215.5t229.5 71.5q138 -13 225 -113q97 -121 82 -290q-4 -47 -22 -89.5t-50.5 -80.5t-55.5 -60t-64 -57q-61 -53 -76 -72q-31 -40 -46.5 -93.5t-17.5 -90t-2 -105.5v-12q0 -34 -24 -57t-58 -23q-33 0 -56.5 23.5t-23.5 56.5v10q0 61 2 97.5 t10.5 92.5t30.5 105t58 95q35 43 96 94q43 36 66 57.5t46.5 56t26.5 66.5q9 106 -45 172q-45 51 -114 57q-66 5 -117 -40.5t-80 -135.5q-11 -31 -40.5 -46t-61.5 -5q-31 9 -46.5 39t-5.5 61zM209 113q3 43 35 72t75 26q44 -1 74 -34.5t27 -76.5q-3 -44 -36 -73t-77 -27 q-43 3 -72 36t-26 77z" />
<glyph unicode="@" horiz-adv-x="1427" d="M-4 793q52 214 188 360q72 78 176 129t224 68q205 31 367 -35t263 -199q192 -246 125 -555q-41 -198 -188 -258q-106 -45 -233 -6q-8 2 -20 6.5t-15 5.5q-71 -66 -193 -69h-10q-128 0 -213 88q-50 50 -77.5 117t-27.5 139q3 138 70 233q90 125 254 125h14 q158 -5 236 -127q55 -88 55 -213q0 -76 -22 -147q67 -28 118 -6q73 30 95 145q25 116 0 225q-23 106 -93 197t-163 137q-85 42 -199.5 46t-232 -36.5t-193.5 -120.5q-48 -51 -85 -121t-61 -158.5t-20.5 -197.5t39.5 -219q27 -81 72.5 -144t97 -101.5t115.5 -64t120.5 -35.5 t118.5 -13q91 -5 179.5 5t188 40t194 95t167.5 161q20 27 52 29t59 -19t32.5 -50t-14.5 -56q-163 -214 -407 -302q-177 -67 -391 -67q-275 0 -467 119q-195 124 -271 354q-81 250 -24 496zM524 582q0 -70 44.5 -126.5t111.5 -56.5h4q19 1 30 2.5t36 13t39.5 30.5t27 60 t12.5 97q0 178 -135 178h-8q-79 0 -120.5 -54.5t-41.5 -143.5z" />
<glyph unicode="A" horiz-adv-x="1488" d="M-61 289q-7 31 10.5 53.5t50.5 30.5q34 8 60.5 -3t33.5 -42q37 -150 127 -162q39 -6 76.5 29t87.5 124q49 91 145 324h-32q-32 0 -48 24t-16 60q0 76 64 76h98q18 45 64.5 167t91 240.5t83 218.5t44.5 113q17 52 86 41q66 -11 69 -65q0 -6 7 -150t17 -317t15 -228 q0 -11 4 -57q15 -208 35 -326q36 -193 82 -231q37 -32 92 -19q47 12 101 67t102 177q11 31 39.5 39t58.5 -6q32 -12 44.5 -36t0.5 -54q-59 -157 -133 -236q-79 -82 -174 -106q-64 -15 -127.5 -1.5t-110.5 54.5q-71 62 -107 205t-54 350h-221q-98 -248 -179 -399 q-67 -119 -118 -166q-80 -74 -175 -74q-136 0 -221 119q-49 64 -73 166zM770 803h143q0 4 -2 6q-9 123 -18 319q-109 -286 -113 -297q-2 -4 -5 -14t-5 -14z" />
<glyph unicode="B" horiz-adv-x="1411" d="M-2 1278q407 204 676 211q171 6 272 -55q103 -65 133 -201q26 -141 -55 -260q-3 -4 -9 -11.5t-9 -11.5q141 -26 216.5 -110t98.5 -234q40 -300 -129 -463q-91 -91 -242 -127q-69 -14 -147 -14q-123 0 -250 39q-13 3 -23 10q-77 -82 -196 -82h-2q-119 0 -207 88 q-56 56 -92 148q-31 95 -31 205q0 61 80 61q17 0 31 -3.5t25 -10t17.5 -19t6.5 -28.5q0 -78 19.5 -140.5t56.5 -97.5q41 -41 94 -41q44 0 71.5 22t45.5 83q22 77 35.5 290.5t7.5 354.5q-9 228 -33 409q-41 -12 -84 -26.5t-79.5 -29t-71 -29t-61 -26.5t-47 -21.5t-31.5 -15.5 l-11 -5q-20 -10 -41.5 -4.5t-37 25t-24 42t-2 45t28.5 33.5zM604 195q169 -51 311 -21q59 13 104.5 38.5t71.5 57t40.5 58t21.5 53.5q11 40 13 92.5t-5 105.5t-27 100t-51 73q-59 47 -211 47q-37 0 -78 -3.5t-63 -7.5l-22 -4h-4q-30 -8 -53 -10q-2 -165 -14 -334t-34 -245z M616 1323q23 -168 35 -387q34 9 37 10q147 38 203 119q43 61 31 133q-6 25 -12.5 41.5t-23.5 35.5t-41.5 30t-66 17.5t-98.5 4.5q-18 0 -64 -4z" />
<glyph unicode="C" horiz-adv-x="868" d="M2 866q9 202 39 314q40 160 111 237q82 92 215 109q120 15 213 -72q70 -63 110 -168q12 -30 -3.5 -54.5t-47.5 -35.5q-30 -13 -59.5 -4.5t-40.5 39.5q-5 14 -15 34t-28.5 46.5t-47.5 42.5t-61 12q-76 -12 -117 -55q-44 -49 -73 -170q-17 -63 -27.5 -165.5t-4 -248.5 t37.5 -266q12 -45 26 -80.5t41 -76t62 -67.5t90.5 -46t124.5 -21q60 -1 114.5 22t93.5 62.5t67.5 84.5t45.5 95q12 31 40.5 41t60.5 -2q31 -11 44 -35.5t3 -56.5q-59 -158 -154 -246q-133 -127 -307 -127h-12q-241 9 -375 164q-86 102 -121 248q-50 189 -45 446z" />
<glyph unicode="D" horiz-adv-x="1312" d="M-96 197q-8 71 7.5 132.5t51.5 102.5q65 70 168 70q62 0 122.5 -32t133.5 -91q4 40 4 67q12 219 8 365q-5 129 -39 510q-45 -11 -84.5 -31t-64.5 -38.5t-74 -57.5q-16 -14 -34 -14t-34.5 10.5t-31.5 28.5q-49 59 -2 98q48 41 80 64t76.5 48t90.5 37.5t109.5 21.5 t145.5 11q104 2 200.5 -30t168.5 -87t124.5 -121.5t81.5 -138.5q55 -135 77.5 -272t16.5 -293q-9 -176 -47 -285q-26 -86 -78 -147q-59 -77 -147 -102q-115 -36 -227 -15q-95 14 -197 74l-4 -8q-30 -78 -107.5 -128t-181.5 -50q-55 0 -98 18q-91 33 -147 114t-68 169z M63 217q5 -35 20 -66.5t42.5 -57.5t65.5 -33t88 8q60 18 77 63q8 19 13 55q-4 4 -13.5 11.5t-13.5 11.5q-6 5 -25 20.5t-26.5 21.5t-25 19.5t-26.5 19.5t-23.5 16.5t-24 15t-21.5 10.5t-21.5 8t-17.5 2q-31 0 -47 -16q-28 -31 -21 -109zM520 1337q36 -397 39 -522 q2 -80 -4 -270.5t-14 -288.5q3 -3 10 -8t10 -8q164 -114 326 -64q77 23 121 148q30 95 36 239q12 272 -81 500q-45 113 -161.5 196t-260.5 80q-15 0 -21 -2z" />
<glyph unicode="E" horiz-adv-x="833" d="M-41 1006q-1 28 -2.5 64.5t7 96t26.5 111.5q35 104 106.5 169.5t173.5 88.5q142 30 260 -20q91 -42 162 -127q21 -27 15.5 -55.5t-31.5 -51.5q-26 -22 -56.5 -22t-50.5 26q-15 17 -28.5 30t-32.5 27t-39.5 23t-45.5 14.5t-55.5 5t-64.5 -7.5q-41 -9 -73.5 -31t-52 -49.5 t-32.5 -62.5t-18.5 -66t-7 -64t-1 -52.5t2.5 -34.5q3 -57 41.5 -101t109.5 -51q48 -4 118.5 8.5t117.5 26.5q25 7 47 -4t32.5 -33t13.5 -45.5t-9.5 -45t-38.5 -28.5q-4 -1 -62.5 -16t-62.5 -16q-38 -12 -68 -24.5t-63 -32t-56 -44.5t-42 -57.5t-26.5 -76.5t-4.5 -97 q3 -47 22.5 -86t47.5 -62.5t63 -40.5t65 -24t58 -8q45 -3 87 2t90 22t88.5 46.5t79 81t65.5 120.5q12 31 39 39.5t59 -4.5q32 -12 45.5 -37t3.5 -55q-90 -233 -276 -322q-112 -55 -254 -55h-35q-68 3 -135.5 27.5t-122.5 64.5q-140 106 -152 281q-6 116 30 209t103 157 q-47 24 -85.5 63t-64 93t-30.5 113z" />
<glyph unicode="F" horiz-adv-x="1050" d="M-74 373q-3 55 74 59q83 7 86 -49q5 -69 21 -115.5t41 -68t50 -29.5t58 -8q86 0 121 59q24 47 24 103q9 191 5 518q0 224 -21 516l-356 -39h-9q-27 -1 -39 20.5t-16 57.5q-10 77 47 82l1172 127q64 6 71 -68q5 -35 -8 -62t-45 -30l-657 -72q3 -48 8.5 -179t7.5 -171 l318 12q58 0 61 -78q4 -81 -55 -84l-318 -10v-20q4 -350 -4 -529q-5 -98 -47 -172q-30 -59 -84 -94q-57 -41 -145 -47h-27q-149 0 -235 92q-87 97 -99 279z" />
<glyph unicode="G" horiz-adv-x="1263" d="M-35 575q2 177 43 357q15 72 54.5 169.5t95.5 186.5q25 40 49.5 71.5t58.5 65.5t68.5 57t79 37.5t92.5 14.5q150 0 239 -57q66 -44 127 -144q36 -56 -26 -94q-28 -19 -61.5 -17.5t-49.5 27.5q-20 34 -35 53t-40.5 37.5t-62.5 26.5t-91 8q-99 0 -211 -172 q-47 -72 -81.5 -156.5t-47.5 -148.5q-37 -181 -39 -324q-6 -241 80 -344q64 -70 182 -61q78 6 143.5 34t108 66t76.5 88.5t51.5 92t30.5 86.5q30 109 30 258q0 62 78 65q22 1 40.5 -4.5t30.5 -20t13 -36.5v-47q0 -1 -1.5 -105t-4 -281.5t-4.5 -330.5q214 264 281 405 q15 30 42.5 37.5t57.5 -6.5q31 -16 44.5 -44t0.5 -56q-54 -112 -162.5 -258t-267.5 -338q-1 -74 -2 -168t-1.5 -142.5t-0.5 -62.5q0 -65 -22.5 -124t-60.5 -102.5t-92.5 -69.5t-115.5 -26q-87 0 -145.5 56.5t-65.5 144.5q-3 65 14 115q17 45 77.5 124t211.5 263q30 34 43 51 q1 31 6 397q-6 -7 -18.5 -21.5t-18.5 -21.5q-70 -73 -163 -120q-124 -60 -261 -60q-174 0 -276 119q-127 145 -121 450zM639 -659q-8 -22 -6 -47.5t12 -38.5q9 -17 41 -15q36 1 62.5 20t39 46t18 51t5.5 43l1 60q1 60 1 114q-72 -88 -94 -117q-71 -90 -80 -116z" />
<glyph unicode="H" horiz-adv-x="1667" d="M-86 1133q0 49 18 215q29 246 78 307q23 33 64 33q9 0 16.5 -1.5t15 -5t12.5 -6t11.5 -9.5t9.5 -10t9.5 -12t8 -11.5t8 -13t7.5 -11.5q27 -40 46 -65t44.5 -49t53 -34t59.5 -8q60 2 135 86q8 9 15.5 19t13.5 18.5t11.5 16.5t9 14.5t6 11.5t4.5 7l1 3q13 26 40 37.5 t55 3.5q28 -6 44.5 -29t14.5 -53q-1 -4 -9.5 -147.5t-18 -335t-11.5 -293.5v-74q8 4 10 6q117 50 248 154q7 218 19 379q12 163 86 276q41 60 91 95t117 32q95 -6 152 -88q32 -48 44 -114.5t5.5 -135t-28.5 -135.5q-42 -118 -240 -309q-56 -52 -86 -78q-2 -78 -2 -176 q0 -31 6.5 -74t22.5 -98t39 -104t61 -91t84 -59q137 -52 252 66q23 23 42 49.5t28.5 44.5t19 39t12.5 26q28 55 98 23q38 -17 48 -40.5t4 -43.5q-48 -120 -133 -209q-82 -85 -177 -115q-122 -41 -252 9q-73 28 -131.5 86.5t-92 124.5t-56 140t-30 129.5t-7.5 96.5v51 q-82 -57 -174 -96q-7 -4 -38.5 -19.5t-49.5 -23.5q-4 -54 -16 -154q-23 -142 -56 -217q-49 -119 -133 -157q-55 -25 -108 -25q-97 0 -175 66q-59 51 -82 120t-4 138q15 56 72.5 112t165.5 121q87 52 180 98q1 25 2 75.5t2 70.5v10q0 134 23 543q-82 -60 -164 -66h-20 q-146 0 -259 135q-5 -24 -12.5 -99t-12.5 -138l-5 -64q-3 -57 -82 -53q-38 2 -59.5 16.5t-20.5 45.5zM260 285q-7 -27 3.5 -53t31.5 -42q7 -6 15.5 -11t24 -11t35 -6t38.5 10q4 2 7 4.5t10.5 11t14 19.5t15.5 31t16.5 44.5t16 62t14.5 81.5q1 7 3 21.5t3 21.5 q-9 -5 -38.5 -22t-45.5 -25q-85 -55 -121 -86q-17 -15 -27.5 -27.5t-13 -17t-2.5 -6.5zM1110 1044q47 47 83.5 90.5t56.5 74.5t26 51q26 81 24 144t-24 97q-13 17 -27 17q-34 0 -76 -70.5t-51 -185.5q-5 -71 -12 -218z" />
<glyph unicode="I" horiz-adv-x="860" d="M-20 383q-3 31 16.5 51t52.5 25q36 3 61.5 -12t28.5 -46q2 -6 2 -16q10 -102 41 -149q55 -79 197 -76q39 0 69.5 13.5t51.5 40t35.5 61.5t22.5 85t12 103t5 123v20q3 140 -2 623q-84 -66 -180 -66q-119 -3 -221 74v-158q0 -33 -21 -50t-55 -17q-37 0 -61.5 18.5 t-24.5 50.5v2q4 224 -2 369q-2 26 13 48.5t40 29.5q26 9 52 2t41 -29l18 -24q26 -37 46 -61.5t47 -48.5t58.5 -35.5t67.5 -10.5q26 1 49 10.5t46 31t40.5 43t44.5 58.5q9 9 17 21q15 21 40.5 29t49.5 0q12 -4 22 -11.5t17 -17.5t11 -22t5 -25q2 -80 3.5 -403t0.5 -433v-20 q-2 -69 -3.5 -107.5t-11.5 -110t-28 -124.5q-36 -111 -113.5 -176t-199.5 -68h-10q-118 0 -195 39q-78 37 -127 110q-56 84 -67 222q0 3 -1 7.5t-1 6.5z" />
<glyph unicode="J" horiz-adv-x="968" d="M-76 1102q0 211 6 358q2 29 23.5 51t50.5 25t59 -18q16 -14 43 -41.5t50 -50t51 -45.5t57.5 -36.5t57.5 -15.5q29 -2 64 19t58 43.5t57.5 61.5t45.5 50q19 20 44 25t46.5 -3.5t36 -29.5t12.5 -47q-1 -58 -2 -265t-2 -463t-2 -368v-254q232 247 289 342q17 28 47 32.5 t59 -13.5q30 -18 39 -44.5t-8 -56.5q-34 -58 -108.5 -147.5t-140.5 -160.5t-179 -189q-3 -115 -14 -209q-34 -354 -158 -475q-68 -74 -168 -74h-2q-115 0 -181.5 76.5t-54.5 199.5q10 82 52 146q21 31 74 90t95 103.5t144 150.5q32 36 53 57q3 138 0 248v178q1 122 3 450.5 t3 444.5q-102 -80 -196 -80q-2 0 -7.5 1t-7.5 1q-57 4 -117 33t-110 72v-174q-1 -31 -26.5 -50.5t-59.5 -19.5t-55 19.5t-21 52.5zM270 -707q15 -30 66 -30q32 0 55 26q82 78 113 379q0 2 1 6.5t1 6.5q-183 -190 -219 -246q-21 -30 -26 -73t9 -69z" />
<glyph unicode="K" horiz-adv-x="1540" d="M-102 242q-21 26 -15 54.5t33 51.5q25 22 54 22t50 -24q0 -2 15 -18t45.5 -43.5t62.5 -51.5q133 -94 230 -79q28 5 49.5 23t35 50.5t21.5 68t12 87t5 95.5t0 106v129q-3 15 0 30q0 168 -2 258q0 45 -1 132.5t-1 126.5q-81 -59 -158 -62q-85 -3 -166 53q-2 -84 -2 -170 q-1 -31 -22 -47t-56 -16q-23 0 -41.5 7t-30.5 22.5t-12 37.5v16t0.5 41.5t1 58t1 68.5t1 69t0.5 62.5v47.5q0 36 24.5 58.5t58.5 22t59 -27.5q12 -12 38 -42.5t43.5 -49t44.5 -34.5t52 -15q62 2 166 123q12 16 18 22q15 16 34.5 22.5t38 2.5t34 -14.5t25 -28t9.5 -37.5 q-2 -62 2 -397q2 4 5 9.5t6.5 10.5t6.5 10t6.5 10.5t6.5 10.5q91 148 182 248q120 129 232 141q124 12 209 -47q47 -30 100 -96q3 -6 6 -9q20 -28 15.5 -54.5t-31.5 -47.5q-28 -21 -58.5 -22t-52.5 24q-2 4 -8 10q-17 22 -27.5 33.5t-30.5 26.5t-45.5 20.5t-58.5 1.5 q-11 -1 -24.5 -6t-41 -24.5t-58.5 -51t-76.5 -91.5t-94.5 -140q-37 -59 -84 -143h35q165 -3 248 -99q40 -49 59.5 -135t34.5 -223q26 -189 43 -227q18 -35 49 -49t64.5 -7.5t66.5 23.5t60 43q87 78 141 229q11 29 41.5 38t60.5 -3q32 -11 47 -35.5t3 -54.5 q-63 -184 -185 -293q-109 -103 -237 -109q-3 0 -8.5 -1t-8.5 -1q-83 0 -144.5 42t-92.5 108q-15 29 -27.5 79t-18 87.5t-14.5 111.5q-12 118 -26 179q-13 76 -31 94q-33 41 -129 41q-24 1 -49.5 -1t-38.5 -4l-14 -3q-7 0 -11 -2v-121q0 -233 -24 -338q-23 -96 -74 -156 q-64 -79 -160 -94q-18 -4 -55 -4q-85 0 -155 30t-144 84q-39 28 -75 61.5t-53 52t-19 22.5z" />
<glyph unicode="L" horiz-adv-x="1110" d="M-39 244q-6 140 59 205q60 60 158 55q88 -5 223 -107q31 205 31 611q0 158 14 249q23 146 95 218q69 66 172 63q144 -3 207 -123q30 -54 36 -147q3 -31 -15.5 -56t-51.5 -28q-84 -8 -92 69q-7 72 -27.5 97.5t-60.5 27.5q-34 0 -56 -18q-59 -59 -59 -352q0 -565 -55 -727 q6 -5 15 -13.5t13 -11.5q15 -9 31 -25q26 -22 41 -33t44 -22t62 -12q124 -6 222 72t143 192q12 31 41 40.5t59 -3.5q32 -12 43.5 -37.5t-0.5 -56.5q-29 -73 -75 -137.5t-107 -117t-142 -83.5t-169 -31h-21q-44 2 -82.5 12.5t-72 30.5t-49 31.5t-41.5 32.5q-20 20 -27 20 q-41 -72 -104.5 -116t-137.5 -44q-80 0 -151 58q-46 40 -77.5 99.5t-35.5 117.5zM123 254q2 -25 16.5 -54t38.5 -50q28 -22 55 -19q54 6 111 107q-58 45 -70 53q-71 51 -104 51h-6q-23 0 -29 -6q-16 -16 -12 -82z" />
<glyph unicode="M" horiz-adv-x="1931" d="M-74 471q0 16 6.5 29t17.5 21t25.5 12t30.5 4q36 0 59 -17t23 -49q0 -114 25 -188q13 -36 30.5 -60.5t38 -36t38 -16.5t38.5 -6q6 -2 16 -2q40 0 73.5 15t58 37.5t45.5 60t34 71t25 81.5t18.5 81t14.5 80q36 198 82 862v4q3 52 77 59q72 4 82 -47q5 -26 43.5 -197.5 t100.5 -447.5t94 -422q133 445 324 1071q13 51 94 39q32 -5 47.5 -18.5t15.5 -42.5q0 -7 -1 -34t-1 -48q-18 -418 10 -713q21 -219 68 -346q46 -126 100 -141q1 0 3 -1q10 -3 16.5 -4t20.5 -1t27.5 5.5t30 16t35 31t37.5 49.5q23 36 43 76.5t28.5 63t8.5 24.5 q10 29 41.5 39.5t61.5 -0.5q33 -11 45 -33.5t2 -54.5q0 -5 -8.5 -32.5t-31 -78t-50.5 -92.5q-65 -91 -138 -135q-62 -39 -139 -39q-33 0 -78 10q-77 25 -131 94q-48 65 -76 150q-25 70 -45 178t-31 224t-14 229q-132 -433 -247 -826q-7 -24 -25 -32.5t-49 -8.5q-72 0 -82 45 q-10 43 -191 842q-19 -207 -41 -344q-22 -119 -45 -203.5t-61 -154.5q-56 -100 -133 -148q-93 -61 -212 -52.5t-194 77.5q-61 56 -96 147q-35 100 -35 244z" />
<glyph unicode="N" horiz-adv-x="1468" d="M-76 549v31q0 31 23.5 48t58.5 17q16 0 30.5 -4t25.5 -12t17.5 -20.5t6.5 -28.5v-33q-5 -172 29 -258q16 -43 40.5 -71t60 -42t83.5 -14q26 -1 48.5 3.5t48 18.5t47.5 44.5t38 76.5q35 97 41 279q3 217 -8 766l-2 63q0 30 17 52t46 28q28 6 54.5 -6.5t36.5 -38.5 q12 -27 51.5 -115t89 -199.5t104 -232t107.5 -239t88 -193.5q13 699 47 827q22 89 78 142q38 38 76 53q20 9 53 0.5t47 -35.5q15 -30 6.5 -63t-39.5 -47l-5 -3q-5 -3 -6.5 -4t-6.5 -4.5t-7.5 -6l-7 -7t-7.5 -9l-7 -10.5t-7 -12.5t-6 -15t-5 -17.5q-20 -76 -33.5 -463.5 t-13.5 -689.5q0 -29 -18 -51t-46 -28q-28 -5 -54 8t-36 39q-30 65 -207.5 460.5t-220.5 489.5q7 -307 2 -442q-6 -214 -49 -330q-40 -110 -113 -174q-92 -76 -217 -76h-6q-127 3 -211.5 64.5t-122.5 168.5q-19 51 -28 119t-10 101t-1 96z" />
<glyph unicode="O" horiz-adv-x="1021" d="M0 770q0 216 35.5 374t116.5 263q116 143 303 143q125 0 243 -118q33 -33 61.5 -73.5t58.5 -105t51 -140t34 -180.5t12 -224q-6 -430 -170 -600q-112 -117 -290 -117q-76 0 -138 26q-90 35 -155 115q-162 194 -162 637zM162 770q0 -380 125 -534q69 -84 168 -84 q109 0 174 67q122 131 125 492q1 108 -10 201.5t-28.5 156.5t-42 116t-45.5 82t-44 52q-35 36 -69.5 53t-59.5 17q-57 0 -101 -20.5t-74 -59.5t-49 -82.5t-34 -100.5q-35 -143 -35 -356z" />
<glyph unicode="P" horiz-adv-x="1239" d="M-78 1243q-35 69 17 96q13 7 43.5 22.5t101 46.5t143.5 56.5t167.5 47t176.5 24.5q173 8 281 -8q339 -51 328 -363q-3 -123 -75 -208t-187 -136q-131 -55 -312 -69q0 -70 1 -158t1 -96v-2q0 -170 -24 -258q-29 -110 -86.5 -165t-124.5 -69q-42 -12 -99 -12 q-58 0 -108 18.5t-85 47.5t-64 68.5t-46 76.5t-30 78l-7 14q-19 59 56 88q74 25 96 -31q1 -3 5 -14.5t5 -15.5t5 -15.5t6.5 -16.5t7 -15.5t8 -16.5t8.5 -15.5t10 -16.5t11.5 -14.5t13.5 -14.5q58 -63 170 -37q23 6 41 23t29.5 37t19.5 52.5t12 56.5t6 62t2 55.5v49.5v2 q0 345 -10 858q-95 -20 -200 -60t-160.5 -67t-59.5 -31q-28 -14 -53 -0.5t-41 45.5zM598 1376q0 -53 2.5 -223t3.5 -240q139 8 250 56q160 71 166 205q3 91 -41 135q-46 46 -144.5 59t-236.5 8z" />
<glyph unicode="Q" horiz-adv-x="1001" d="M0 786q-3 219 46 395.5t149 276.5q111 111 256 111h2q148 0 254 -109q192 -186 186 -678q-3 -206 -27 -347.5t-73 -235.5q2 -2 2 -4q63 -82 118.5 -135t110.5 -72q30 -10 41.5 -36.5t5.5 -60.5q-5 -31 -19 -47t-42 -16h-15q-48 9 -91 32t-83 60.5t-67.5 69t-65.5 80.5 q-89 -74 -231 -78h-2q-110 0 -205 76q-120 102 -184 292.5t-66 425.5zM199 1128q-44 -161 -36 -370t60 -355q115 39 174 41q132 9 238 -71q28 -20 41 -35q52 159 55 446q3 229 -39 371q-34 125 -98 193q-62 59 -141 59h-2q-81 0 -142 -61q-71 -71 -110 -218zM293 258 q71 -104 162 -104q16 0 25 0.5t25.5 2.5t28.5 6t27.5 12t28.5 20q-24 31 -49 49q-55 41 -111 41t-137 -27z" />
<glyph unicode="R" horiz-adv-x="1456" d="M-63 236q-5 21 0.5 39t20 30.5t36.5 18.5q34 9 61.5 -2.5t36.5 -42.5q25 -89 60 -117q35 -25 100 -21q28 2 50 18.5t40 65.5q7 19 13 44.5t9.5 43t8 53.5t5.5 47t5 52v10q6 57 -3.5 219.5t-23.5 321t-30 309.5q-45 -14 -89 -31t-75 -30.5t-55 -25t-37 -18.5l-13 -6 q-30 -15 -55 -4.5t-43 41.5q-16 29 -11.5 59t32.5 44q3 2 11.5 6.5t27 13.5t41 19.5t54 24t66 26.5t76.5 27t85.5 26.5t93.5 24t100 20.5q191 32 320.5 15t211.5 -82q118 -95 121 -283q3 -63 -17 -118t-59 -97.5t-83.5 -74.5t-98.5 -58q-5 -3 -11 -6t-12.5 -6t-11.5 -5 q33 -33 56 -66.5t37.5 -76t22 -71.5t18.5 -84q2 -11 3 -17q1 -9 7 -51t9 -59t9 -48.5t13.5 -53t16.5 -38.5q27 -52 99 -61q24 -3 46.5 1t41.5 13t38 25.5t36 35.5t35.5 47.5t35 57.5t37.5 68q14 28 44 33t59 -11q30 -15 40 -41.5t-4 -56.5q-2 -4 -6 -11q-18 -35 -28 -53 t-29 -50.5t-32 -50.5t-34.5 -44.5t-39.5 -42t-43.5 -33.5t-50.5 -27t-56.5 -15.5t-65.5 -6.5q-187 0 -266 147q-16 32 -28.5 74t-17 65t-13.5 84.5t-11 73.5q-3 11 -8.5 39t-8 36.5t-8 30t-8.5 29.5t-10 25t-13 25t-15.5 22t-20.5 24t-25.5 22t-31.5 24q-6 6 -10 8 q-78 -20 -176 -39q11 -210 4 -270v-8q-5 -60 -9.5 -97.5t-15.5 -91t-26 -92.5q-64 -177 -230 -190h-31q-64 0 -113.5 18t-83.5 54t-56.5 79.5t-40.5 104.5zM483 1368q29 -287 43 -477q207 38 334 98q35 17 63 35.5t45 34.5t29.5 34t18 30t8.5 27.5t3.5 21.5t0.5 16 q-3 107 -55 155t-162 58q-96 6 -250 -19q-15 -2 -41 -7t-37 -7z" />
<glyph unicode="S" horiz-adv-x="1036" d="M-61 399q-9 31 10.5 53.5t54.5 30.5q16 5 30.5 4.5t26 -5.5t20.5 -15.5t13 -26.5q18 -69 46.5 -121.5t62.5 -84t75 -52.5t84 -27.5t90.5 -8.5t94.5 4q28 3 59 16t60 35.5t51 50.5q75 92 63 215q-6 51 -24 88t-54.5 68t-82.5 54.5t-121 53.5q-8 3 -42.5 16t-52.5 19 q-39 15 -61 23.5t-58 23.5t-57 26.5t-50.5 29t-48 33.5t-40.5 38t-35.5 45t-25 52t-17.5 61q-18 102 -2.5 180.5t63.5 134.5t117 89.5t158 45.5q53 9 99 5t85 -15t72.5 -31t60 -43t48 -52t37 -58t26.5 -60t-20 -55.5t-73.5 -23.5t-59.5 34q-2 4 -6 13t-6 12.5t-6.5 11.5 t-9 14t-12 14.5t-16.5 18.5q-77 73 -196 56q-128 -15 -179 -84q-44 -63 -22 -175q16 -76 73.5 -114t219.5 -98q9 -4 42 -17t52 -20q171 -68 248 -133q116 -98 137 -263q22 -188 -98 -335q-55 -67 -129.5 -109.5t-149.5 -50.5q-58 -4 -100 -4q-415 0 -524 413z" />
<glyph unicode="T" horiz-adv-x="921" d="M-96 1454q-3 35 11.5 58t47.5 26l1139 98q33 3 53 -16.5t23 -54.5q3 -34 -13.5 -59.5t-48.5 -28.5l-420 -37q2 -62 9.5 -242.5t12.5 -333.5t5 -225q0 -13 1 -75t0.5 -95t-5.5 -86.5t-14 -95.5q-25 -111 -80 -178q-92 -117 -277 -117q-146 0 -233 90q-77 77 -109 229 q-6 32 11.5 53t52.5 27q34 8 61 -4t33 -43q20 -97 60 -143.5t124 -46.5q30 0 70 6q97 19 129 162q8 35 12 82t4.5 74.5t0 87.5t-0.5 69q0 94 -13.5 419.5t-14.5 370.5l-560 -47h-6q-29 0 -46 21.5t-19 54.5z" />
<glyph unicode="U" horiz-adv-x="1325" d="M-297 1186q24 125 41 178q44 121 119 170q49 34 112.5 37t117.5 -19.5t85 -62.5q38 -50 55 -131q24 -118 27 -414q0 -16 1 -46t1 -46q1 -121 3 -186.5t10.5 -158.5t23.5 -155q12 -46 28 -80.5t32 -54t36 -31.5t36.5 -16.5t37.5 -5.5q127 -9 188 49q63 59 86.5 193.5 t26.5 365.5q4 700 4 711q0 32 23.5 47.5t60.5 15.5q23 0 40 -6.5t27.5 -21t10.5 -35.5q0 -189 -6 -711q0 -22 -0.5 -57t-1.5 -61v-27q0 -30 1 -59t3.5 -64.5t6.5 -67.5t10.5 -66.5t16 -63t22.5 -55t29.5 -44.5t38 -29.5t46.5 -13.5h2q37 0 70.5 19t57 49.5t41.5 62.5 t29.5 65t16.5 50t6 24q7 32 34 43.5t62 3.5q33 -8 48 -31t6 -55q-32 -154 -99 -243q-114 -148 -270 -148h-8q-113 0 -193 86q-37 40 -65 100q-102 -188 -342 -188h-37q-57 4 -104.5 23t-82.5 47.5t-62 72.5t-45 89t-30.5 106.5t-19 115.5t-10.5 126t-5 127t-2 129v12v92 q-6 299 -24 383q-7 33 -17.5 52t-17.5 23t-18 7q-47 12 -70 -6q-60 -41 -90 -240q-4 -32 -31 -45.5t-61 -7.5q-34 5 -53 25.5t-15 52.5z" />
<glyph unicode="V" horiz-adv-x="1030" d="M-285 1122q-21 27 -19 55t28 48q179 134 274 276q12 23 35.5 31t50.5 2q26 -5 44 -23.5t19 -44.5q0 -15 10 -113.5t38.5 -272t64.5 -298.5q64 -223 236 -540q161 296 227 538q79 293 68 668q-2 42 37 62t79.5 4t42.5 -60q16 -394 -71 -715q-43 -159 -123 -335.5 t-127.5 -259t-65.5 -107.5q-23 -37 -67 -37q-46 0 -68 39q-16 22 -67 111.5t-132.5 264.5t-124.5 322q-59 205 -98 523q-88 -92 -184 -162q-29 -20 -57 -12t-50 36z" />
<glyph unicode="W" horiz-adv-x="1585" d="M-164 901q-15 27 -11 54t30 40q63 32 134.5 93t128 124.5t106 125.5t75 98t27.5 41q15 22 41 29t51 -5t36 -37t3 -51q-14 -48 -35 -110.5t-36 -108t-32.5 -103.5t-30 -111t-24 -114.5t-18.5 -131t-9 -144.5q-6 -144 17 -254q21 -95 67 -141q47 -50 125 -50l2 -2 q52 0 97 53t73 130.5t48.5 166.5t29 158t8.5 109q1 28 23 42.5t53 12.5q31 0 51.5 -16t20.5 -45q-2 -107 16 -232q35 -241 123 -332q45 -45 102 -45l2 -2q53 0 89 39q58 61 81.5 209t8.5 354q-6 90 -32 206.5t-57.5 215.5t-64 190.5t-52 139t-22.5 53.5q-8 20 -4 41.5 t19 36.5q15 17 36.5 22t41.5 -3l10 -3q9 -3 26.5 -8t41 -10.5t54 -11t63.5 -10t73 -6.5t78 -1q11 1 21 -2.5t17 -9.5t12 -14.5t7.5 -19.5t3.5 -23q0 -32 -14 -53.5t-43 -22.5q-106 -4 -254 21q65 -169 119 -363t65 -354q39 -494 -129 -674q-78 -84 -195 -84h-2 q-227 6 -327 309q-34 -104 -84 -172q-95 -137 -234 -137h-4q-142 3 -229 96q-137 140 -125 500q10 258 76 493q-151 -158 -281 -223q-28 -12 -49.5 -1.5t-34.5 38.5z" />
<glyph unicode="X" horiz-adv-x="1404" d="M8 322q-13 31 -4.5 58t35.5 46t55.5 16t46.5 -30q26 -42 43 -78q13 -27 23.5 -45.5t23 -40t24.5 -35t26.5 -27.5t30 -21.5t33.5 -12.5t39.5 -4t45.5 6q63 16 129 163q42 92 111 324q-157 392 -217 524q-47 99 -80 150q-30 46 -43 53q-19 5 -62 -10q-31 -13 -90 -49 q-28 -16 -55.5 -7t-46.5 39q-18 27 -14 57.5t32 47.5q20 13 35.5 22t41.5 22.5t49.5 21t51 14t56 5t55.5 -10.5q51 -17 99 -79.5t108 -189.5q54 -113 155 -366q12 34 39 121q71 223 118 330t106 149q33 24 67 37t59 16.5t56.5 -1t48 -9t44.5 -14.5l9 -3q20 -7 32.5 -22 t14.5 -34t-4 -40q-10 -35 -38 -49.5t-62 -3.5q-21 7 -31 9.5t-25 5t-25.5 0.5t-24.5 -7.5t-29 -15.5q-56 -56 -162 -398q-61 -186 -98 -309q3 -9 9 -29q13 -40 20 -62t21.5 -64t25.5 -68t28 -64.5t31.5 -62.5t34.5 -51.5t39 -43.5t41.5 -27.5t46.5 -12.5q16 0 51 20.5 t80 67.5q86 93 133 188q13 30 43 38.5t59 -5.5q31 -14 43.5 -42.5t-0.5 -59.5q-60 -120 -162 -230q-131 -137 -245 -137h-9q-167 6 -286 203q-46 79 -84 184q-23 -70 -55 -139q-97 -222 -240 -254q-39 -8 -86 -8q-121 0 -209 82q-10 9 -19.5 19t-19 22t-16 20t-16 23.5 t-13.5 21.5t-13.5 23.5t-11.5 20.5t-12 22l-10 20q-5 13 -16.5 33.5t-14.5 26.5z" />
<glyph unicode="Y" horiz-adv-x="1234" d="M-274 1282q40 106 77 154q89 118 215 100q71 -8 115 -47q45 -42 66 -125q22 -106 30 -510q3 -211 14 -341.5t38 -213.5q26 -78 71.5 -110.5t130.5 -32.5q73 0 132 44.5t96.5 115t64 164t38 184.5t13.5 184q4 209 4 600q0 33 23 53.5t57 20.5t57.5 -20.5t24.5 -53.5 q0 -168 -2 -387q0 -45 17 -893q30 35 36 41q130 145 191 233q45 59 106 23q30 -15 40.5 -44t-5.5 -59q-40 -69 -213 -260q-92 -104 -151 -172q3 -225 6 -282v-10q5 -222 -14 -322q-14 -66 -39.5 -115t-57.5 -75.5t-63 -39.5t-64 -16q-10 -2 -32 -2q-111 0 -197 75.5 t-92 180.5q-6 155 209 440q72 96 182 226q-3 111 -6 237q-59 -102 -150.5 -166.5t-210.5 -64.5q-270 0 -354 252q-33 96 -44.5 229t-16.5 375q-7 386 -27 475q-6 28 -14 37t-31 12q-61 10 -119 -151q-3 -7 -6.5 -17t-5.5 -14q-13 -30 -42 -37t-59 8q-79 35 -38 117z M618 -668q3 -47 48.5 -77t93.5 -25q10 1 18 4.5t21.5 14t25 36.5t19.5 66q17 79 12 282v11q-1 13 -2 48t-2 52q-9 -13 -28.5 -37.5t-28.5 -36.5q-177 -237 -177 -338z" />
<glyph unicode="Z" horiz-adv-x="1083" d="M8 1126q-21 164 15 238q42 94 108 137q82 55 188 31q51 -13 152 -76q50 -30 70.5 -41.5t61 -26.5t65.5 -12q125 15 186 127q1 1 1.5 2t0.5 2q15 28 47.5 37t61.5 -6q29 -17 37 -48.5t-7 -62.5l-32 -63q-32 -64 -65 -129t-77.5 -147.5t-75.5 -133.5q-30 -48 -72 -121 t-112 -199t-100 -179q-22 -44 -62 -109q75 0 162 -35q33 -13 65 -33t45 -30.5t42 -34.5q75 -68 129 -70q34 0 84 39q93 76 157 250q12 30 43.5 39t61.5 -4q30 -10 40 -35.5t-3 -56.5q-86 -231 -207 -324q-95 -72 -176 -67q-42 1 -78.5 11t-66.5 28t-49 32.5t-42 36.5 q-4 4 -15.5 13t-16.5 13.5t-15 12t-17.5 12t-18 10t-21.5 9.5q-38 15 -68.5 20.5t-63 0t-62 -29.5t-54.5 -67q-35 -56 -39 -61q-24 -35 -65 -35q-49 0 -71.5 41t3.5 84q71 117 240 417q254 455 284 504q42 66 103 185q-1 0 -4.5 -1t-4.5 -1q-35 -5 -45 -5q-43 0 -95 18.5 t-82.5 35.5t-88.5 51q-79 48 -108 55q-13 3 -22 3.5t-26 -4t-33.5 -24t-31.5 -53.5q-2 -2 -4.5 -13.5t-2 -47.5t6.5 -86q14 -111 22 -119q7 -31 -10 -53t-51 -31q-3 0 -10 -1t-10 -1q-63 0 -76 47q0 1 -4 19t-10.5 51t-10.5 65z" />
<glyph unicode="[" horiz-adv-x="409" d="M0 -252v1899q0 39 23 64.5t59 25.5h362q33 0 53.5 -22.5t20.5 -55.5q0 -35 -20.5 -59.5t-53.5 -24.5h-282v-1745h282q33 0 53.5 -23.5t20.5 -56.5q0 -35 -20.5 -58.5t-53.5 -23.5h-364q-33 0 -56.5 23.5t-23.5 56.5z" />
<glyph unicode="\" horiz-adv-x="888" d="M131 1507q-10 37 21 66.5t77 21.5q46 -6 58 -43l489 -1695q11 -40 -22.5 -68.5t-76 -23.5t-54.5 47z" />
<glyph unicode="]" horiz-adv-x="509" d="M-104 1659q0 33 20.5 55.5t52.5 22.5h363q36 0 59 -25.5t23 -64.5v-1899q0 -34 -23 -57t-57 -23h-365q-32 0 -51.5 23.5t-19.5 58.5q0 33 20 56.5t51 23.5h285v1745h-285q-32 0 -52.5 24.5t-20.5 59.5z" />
<glyph unicode="^" horiz-adv-x="839" d="M195 1217l153 208q22 31 62 31t59 -31l154 -208q27 -36 2.5 -78.5t-70.5 -42.5q-43 0 -61 26l-84 115l-84 -115q-18 -26 -62 -26q-47 0 -71 42t2 79z" />
<glyph unicode="_" horiz-adv-x="813" d="M51 -203q0 33 23.5 56.5t56.5 23.5h596q34 0 58 -23t24 -57t-24 -57t-58 -23h-596q-33 0 -56.5 23.5t-23.5 56.5z" />
<glyph unicode="`" horiz-adv-x="1705" d="M207 1331q-19 27 -12 56.5t36 50.5q26 21 56.5 17.5t48.5 -30.5l153 -208q28 -36 4 -78.5t-71 -42.5q-44 0 -62 26z" />
<glyph unicode="a" d="M0 510q12 205 86 315q90 140 266 140q149 0 219 -82t82 -240v-141q0 -106 13 -180q18 -124 73 -148q72 -29 146 39q31 28 57 63.5t59.5 91.5t42.5 70q19 29 52 38t63 -9q27 -17 34 -50.5t-11 -62.5q-34 -59 -52.5 -89.5t-57 -81.5t-79.5 -89q-97 -92 -207 -92 q-47 0 -112 25q-68 30 -109 98q-83 -121 -250 -121h-8q-123 0 -203 86q-116 125 -104 420zM162 502q-9 -227 61 -303q28 -32 86 -35h6q32 0 52.5 5t43.5 23.5t37 53.5t26 97.5t18 152.5q2 45 2 120q-6 106 -29 142q-26 45 -113 47q-16 0 -26 -0.5t-30.5 -6.5t-35 -16.5 t-33 -33t-30.5 -53.5t-22 -81t-13 -112z" />
<glyph unicode="b" horiz-adv-x="899" d="M2 428q-3 324 0 461q8 348 8 393q0 61 80 61q23 0 40.5 -6t29.5 -20.5t12 -36.5q0 -47 -8 -395q-5 -120 -2 -455q1 -46 5.5 -83t15.5 -74t28 -61.5t45.5 -40t65.5 -15.5q132 -3 182 143q15 45 23 87.5t9.5 74.5t-0.5 56t-8 40q-16 49 -129 107q0 2 -2 2q-51 30 -20 102 q14 32 37 45t53 0q48 -23 129 -52t129 -32q19 -1 38.5 -1.5t36.5 -1t34 -0.5h31h26.5h22.5t17 0.5t11 0.5h4q19 1 33.5 -7t22.5 -22t12 -31t1 -34t-10 -31.5t-21 -24t-32 -10.5l-10 -1q-9 0 -24.5 -0.5t-35.5 -0.5t-47 0.5t-53 1.5q-42 0 -65 2q-4 0 -13 1t-14 1 q28 -130 -35 -321q-38 -123 -126.5 -190t-209.5 -66h-6q-152 6 -231.5 126.5t-79.5 307.5z" />
<glyph unicode="c" horiz-adv-x="770" d="M0 547q-3 174 61 284q60 108 162 138q74 22 140.5 13.5t118 -37t89.5 -73.5q21 -25 18 -50.5t-28 -47.5q-28 -23 -58 -26t-54 20q-23 28 -57 41.5t-64 12.5t-58 -7q-46 -13 -77.5 -80t-30.5 -186q0 -158 59 -252q69 -114 221 -123q57 -4 108 12.5t85 43.5t62.5 64 t44 67.5t26.5 60.5q12 30 42 40t62 -1q31 -12 43 -37.5t0 -56.5q-31 -83 -73 -142t-101 -108q-123 -105 -280 -105h-29q-235 18 -348 201q-79 130 -84 334z" />
<glyph unicode="d" horiz-adv-x="1075" d="M0 455q-1 123 36.5 228.5t108.5 176.5q77 75 173.5 89t193.5 -40q3 51 12 154.5t16 182t7 83.5q2 25 20.5 41t42.5 18.5t47.5 -3.5t38.5 -25t13 -45l-3 -35q-3 -36 -8 -90.5t-10 -112.5t-9.5 -113t-6.5 -83q-5 -86 -6.5 -254.5t4.5 -229.5v-4q6 -57 17 -97t28.5 -66 t41 -38t56.5 -14q45 -2 88 22t76 64.5t57.5 83t40.5 86.5q11 29 40 36t61 -5q69 -27 49 -86q-55 -146 -142 -236q-118 -127 -262 -127h-14q-127 6 -207 99q-45 -51 -118.5 -82t-153.5 -31h-23q-71 5 -129 45t-95.5 103.5t-58.5 142t-22 162.5zM162 457q0 -138 55 -224 q43 -67 96 -69q123 -8 189 84q5 7 10 16.5t8 14.5l2 6v2q-9 55 -12 90v2q-8 74 -4 332q-16 17 -35 33t-50 31t-59 16q-49 2 -104 -46q-31 -30 -53 -75t-33 -99.5t-10 -113.5z" />
<glyph unicode="e" horiz-adv-x="749" d="M0 506q7 162 47 252q31 77 85 133.5t118 79.5q91 32 166 -6q84 -46 106 -134q31 -113 -47 -241q-65 -105 -215 -176q-52 -24 -90 -37q28 -179 168 -203q143 -25 249.5 39.5t164.5 216.5q9 23 35 32t59 3q32 -6 44 -39.5t-1 -63.5q-57 -168 -182.5 -262.5t-300.5 -91.5 q-242 0 -343 180q-68 123 -63 318zM164 547q130 56 174 127q19 30 27.5 57.5t3 52t-28.5 37.5q-4 2 -12 2q-11 0 -23 -4q-27 -8 -57.5 -40t-50.5 -81q-24 -57 -33 -151z" />
<glyph unicode="f" horiz-adv-x="542" d="M-160 647q0 35 17.5 57.5t50.5 22.5h92v150q-4 120 8 190q22 149 123.5 215t284.5 61q32 -1 49.5 -21t15.5 -54q-2 -36 -21 -61.5t-50 -24.5q-152 6 -203 -45q-21 -21 -31.5 -62.5t-12 -74t-1.5 -98.5v-23v-152h448q33 0 51.5 -22.5t18.5 -57.5t-18.5 -57.5t-51.5 -22.5 h-448v-1235q0 -33 -24.5 -52t-59.5 -19t-56.5 19t-21.5 52v1235h-92q-33 0 -50.5 22.5t-17.5 57.5z" />
<glyph unicode="g" horiz-adv-x="1042" d="M0 526q9 239 115 351q98 107 268 104q81 -2 145 -29t107 -74.5t69.5 -115t37 -146.5t6.5 -172q-5 -123 -5 -323q0 -51 2 -78q189 175 295 412q12 29 42 38.5t61 -4.5t41.5 -41.5t-2.5 -58.5q-119 -273 -322 -459q-46 -41 -117 -94q-3 -122 -16 -244q-48 -380 -287 -380 q-77 0 -134 46.5t-89 116.5q-35 78 -35 162q-3 103 88 182q23 21 53 42t63 41.5t64.5 38.5t69.5 40t64 39v148q-61 -39 -132.5 -54.5t-129.5 -7.5h-3q-123 13 -202 96q-126 129 -117 424zM162 520q-9 -224 71 -307q17 -17 39.5 -27.5t35.5 -13.5t34 -6h2q13 -3 35 -1 t44.5 6.5t48.5 16.5t46 29q63 57 66 152v14q0 11 1 34.5t1 35.5q12 225 -72 315q-47 50 -133 53h-6q-95 0 -142 -53q-65 -71 -71 -248zM342 -459q1 -50 20.5 -94t47.5 -63q27 -18 67 -2q61 27 90 231q9 82 11 115q-40 -22 -54 -31q-101 -61 -141.5 -93t-40.5 -63z" />
<glyph unicode="h" horiz-adv-x="1120" d="M0 1327q0 33 23.5 51.5t58.5 18.5q34 0 56.5 -18t23.5 -50q0 -135 4 -549q48 64 121 102t151 33q143 -5 228.5 -90t85.5 -227q2 -58 -7.5 -146t-7.5 -141q0 -18 3.5 -37.5t13 -43t30.5 -40.5t50 -22q71 -10 155 70q87 84 131 196q13 30 44 39.5t61 -4.5q31 -12 43 -38.5 t0 -57.5q-64 -155 -170 -252q-118 -115 -248 -115q-121 0 -196 86t-79 215q0 55 8.5 143.5t8.5 145.5q-1 48 -16 81t-41.5 48.5t-51 22t-55.5 8.5q-60 3 -111 -45q-71 -69 -110 -203.5t-41 -237.5v-190q0 -33 -23.5 -56.5t-56.5 -23.5q-34 0 -58 23t-24 57v577 q0 39 -0.5 121.5t-1 173.5t-1 176t-1 141.5t-0.5 57.5z" />
<glyph unicode="i" horiz-adv-x="620" d="M-10 1081q0 41 29.5 71t70.5 30t70.5 -30t29.5 -71t-29.5 -70.5t-70.5 -29.5t-70.5 29.5t-29.5 70.5zM0 641v18q0 32 25 50t61 18q35 -2 55 -20t19 -50v-18v-137t8 -122t22.5 -100.5t42.5 -72.5t68 -37q106 -23 184 49q66 64 136 219q13 28 45.5 35t62.5 -8 q31 -14 41.5 -39.5t-2.5 -54.5q-28 -59 -51 -102t-62.5 -97t-79.5 -88t-98 -58t-123 -24q-265 0 -331 279q-19 76 -23 181t0 179z" />
<glyph unicode="j" horiz-adv-x="432" d="M-375 -338q7 40 29 78t48 66t74.5 62.5t83 56t97.5 57.5q8 6 25 15t24 13q0 51 -0.5 113.5t-1 122.5t-1.5 121t-2 112t-1.5 91t-1.5 64v23q0 32 22.5 50t57.5 20h2q34 0 56.5 -17t23.5 -48q0 -1 1.5 -90t3 -221t1.5 -236q100 70 164.5 140t99.5 165q12 30 39 39t59 -4 t48 -38t6 -55q-29 -77 -74 -143.5t-104.5 -121t-112 -93.5t-125.5 -84v-33q-8 -224 -43 -329q-26 -77 -69.5 -126t-84.5 -66t-86 -19q-6 -2 -16 -2q-97 0 -166 75q-43 48 -64.5 116t-11.5 126zM-217 -365q-3 -34 23.5 -84.5t64.5 -44.5q59 5 90.5 80.5t40.5 235.5 q-100 -60 -156 -104t-63 -83zM-20 1085q2 41 33.5 69.5t72.5 25.5q41 -1 69 -33.5t25 -73.5t-34 -69t-72 -25t-69 34t-25 72z" />
<glyph unicode="k" horiz-adv-x="925" d="M0 57v1272q0 32 23.5 47t60.5 15q78 0 78 -62v-659q12 11 65 58.5t72 66.5q2 2 16.5 14t34.5 28t39 31q81 60 133 68q95 20 197 -47q33 -21 40 -49.5t-14 -61.5q-18 -31 -43.5 -41t-54.5 6q-3 2 -13 8.5t-14.5 9.5t-15 8.5t-15.5 6.5t-16.5 3.5t-17.5 -1.5 q-19 -3 -62 -33.5t-83 -68.5q-8 -7 -26.5 -23.5t-25.5 -23.5q29 -115 101 -260q23 -48 49.5 -89t69 -77.5t84.5 -36.5q39 0 74 19.5t63.5 54t50 67.5t46 75.5t38.5 61.5q18 26 48 31t54 -10q27 -14 32 -44.5t-11 -60.5q-27 -54 -39.5 -77.5t-42 -68t-62.5 -81.5 q-114 -129 -251 -129q-124 0 -220 102q-66 66 -131 193q-49 106 -84 217q-12 -11 -27.5 -24.5t-24.5 -21.5t-13 -11v-402q0 -63 -78 -63q-37 0 -60.5 15.5t-23.5 47.5z" />
<glyph unicode="l" horiz-adv-x="620" d="M0 1329q1 32 25.5 50t58.5 18h2q22 0 39 -8t27 -23.5t10 -36.5v-729v-21q1 -32 1.5 -49.5t1.5 -48t3.5 -51.5t5.5 -46.5t8.5 -47.5t12.5 -41q46 -131 182 -131q95 0 158 86q17 24 32 52t22 45t18 46.5t14 36.5q12 30 41 39t59 -4q33 -12 45.5 -38t1.5 -62 q-40 -128 -104 -213q-115 -148 -287 -148q-124 -6 -211.5 62t-124.5 178q-39 117 -39 354q0 95 -1 412.5t-1 318.5z" />
<glyph unicode="m" horiz-adv-x="1486" d="M0 63v67q0 68 0.5 171t1 217.5t0.5 228v181.5q0 30 25.5 48t55.5 18.5t55.5 -17t25.5 -49.5q0 -27 -2 -41q89 70 199.5 64.5t183.5 -81.5q29 -32 47 -65q39 64 88 102q50 37 108.5 46t118.5 -11q138 -43 185 -205q24 -84 28 -262q2 -49 3 -77t5 -69t11 -65.5t19.5 -47.5 t29.5 -34q66 -41 108 -24q19 6 38.5 21.5t35 33.5t32 44t27.5 46.5t24 49t19 44t15 37.5q11 29 39.5 36.5t60.5 -5.5t46.5 -36.5t2.5 -53.5q-44 -114 -92 -195q-84 -136 -196 -174q-38 -14 -80 -14q-81 0 -164 53q-95 59 -125 197q-12 64 -21 227q-4 164 -20 225 q-14 46 -34 66.5t-46 27.5q-47 15 -82 -10q-49 -36 -76 -123q-32 -92 -32 -243q1 -2 2 -63.5t1 -137.5t-1 -143q0 -31 -21.5 -47.5t-56.5 -16.5q-85 7 -82 66q2 204 -4.5 347.5t-28.5 233.5q-11 44 -25 73t-31 42t-31 18t-34 7q-36 4 -68.5 -14t-54.5 -48.5t-38.5 -67 t-24 -69.5t-6.5 -57q0 -2 -1 -236t-1 -236q0 -32 -23.5 -49.5t-56.5 -17.5q-34 2 -58 19t-24 48z" />
<glyph unicode="n" horiz-adv-x="1101" d="M-4 72q4 299 4 860q0 31 23 47t57 16q36 0 59 -16t23 -47v-84q51 47 115.5 76.5t134.5 27.5q95 0 192 -57q98 -56 133 -201q17 -90 17 -231q4 -167 20 -217q11 -37 29.5 -55.5t52.5 -24.5q29 -6 60.5 11.5t55.5 43.5t52 69.5t43 72.5t35 69q15 29 45 37.5t61 -6.5 q28 -15 35.5 -45.5t-6.5 -59.5q-7 -14 -25 -50.5t-30.5 -61t-34 -58t-43.5 -59.5q-58 -67 -117 -96q-54 -29 -115 -29q-17 0 -49 4q-76 14 -135 70q-47 50 -67 121q-27 86 -27 262q-1 85 -4 129t-19.5 96t-48.5 70q-107 65 -203 12q-67 -39 -107.5 -122.5t-45.5 -168.5 q0 -58 -1 -192.5t-1 -214.5q-1 -31 -25.5 -49.5t-58.5 -18.5h-2q-34 0 -58 19t-24 51z" />
<glyph unicode="o" horiz-adv-x="1001" d="M0 539q5 143 62.5 248.5t158.5 150.5q67 33 154 33h20q134 -7 226 -88.5t127 -210.5q16 -4 26 -4q3 0 27.5 -2.5t33 -2.5t34 2t45 7.5t51.5 17.5t67 29q29 15 61.5 4.5t47.5 -39.5t4.5 -61.5t-39.5 -47.5q-139 -71 -266 -71h-6q-36 0 -68 4v-33q-3 -208 -105.5 -339.5 t-287.5 -131.5h-8q-152 3 -242 100q-129 135 -123 435zM162 535q-6 -233 78 -320q46 -49 129 -49h4q107 0 164 74q63 77 69 239q1 48 -4 90t-19 86.5t-37.5 76.5t-64 53.5t-94.5 23.5h-12q-93 0 -150 -66q-60 -75 -63 -208z" />
<glyph unicode="p" horiz-adv-x="933" d="M0 807q0 32 22 48.5t56 16.5q36 0 59.5 -16t24.5 -47v-4q110 94 219 106q60 6 113.5 -9.5t91.5 -49.5q82 -73 84 -199q0 -39 -25 -157q-37 -156 -37 -236q2 -90 45 -104q47 -17 80 -4q17 7 34.5 20t30.5 25t29 35t24.5 35t24 42t20.5 39t20.5 42.5t17.5 37.5q27 58 94 35 q25 -8 38.5 -20.5t16 -28.5t-1.5 -33t-14 -39q-36 -78 -86 -158q-87 -139 -178 -178q-52 -22 -101 -22q-50 0 -108 22q-143 58 -145 252q-2 94 38 272q21 99 21 121q0 54 -28.5 79.5t-82.5 19.5q-106 -11 -235 -177l10 -1247q0 -31 -21.5 -47t-56.5 -16q-36 0 -59 15.5 t-23 47.5z" />
<glyph unicode="q" horiz-adv-x="1026" d="M0 524q9 238 115 353q94 107 270 104q160 0 252 -115q113 -134 113 -420v-354q146 332 317 397q32 12 62 -1.5t42 -45.5q12 -31 -1.5 -61.5t-45.5 -40.5q-30 -12 -64.5 -50t-50.5 -63t-57 -93q-8 -13 -12 -19q-43 -72 -75.5 -153.5t-51 -149t-32 -158.5t-19 -149 t-12.5 -154q-3 -31 -26.5 -53.5t-53.5 -22.5h-4q-32 0 -55 24t-23 56v711q-120 -79 -269 -64q-119 11 -202 96q-129 135 -117 426zM160 518q-6 -228 73 -307q37 -39 109 -49h2q32 -5 82.5 7.5t91.5 43.5q42 33 57 85.5t13 147.5q-3 233 -74 318q-51 57 -139 57 q-95 0 -142 -53q-64 -67 -73 -250z" />
<glyph unicode="r" horiz-adv-x="768" d="M0 915q-1 26 15 45.5t39.5 25t47.5 2.5t41.5 -20.5t18.5 -45.5v-107q48 48 110 98q6 4 13 10t12.5 10.5t13 10t13.5 8.5t15 6t17 2.5t19 -2.5q19 -3 33 -13t23.5 -29t14.5 -33t13 -39q17 -45 27.5 -69t27.5 -52t36 -41.5t44 -17.5q23 -5 49 -2t44.5 6.5t38.5 12t31 14 l23 11.5l11 7q19 11 47.5 3.5t42.5 -32.5q14 -30 16 -56.5t-12 -43.5q-11 -10 -33.5 -23.5t-68 -33t-96 -25t-118.5 1.5q-113 18 -184 123q-28 40 -61 121q-71 -64 -115.5 -144t-44.5 -196v-340q0 -32 -22 -51t-56 -19q-35 0 -59.5 19.5t-24.5 50.5q0 780 -2 847z" />
<glyph unicode="s" horiz-adv-x="970" d="M-6 379q-4 24 9 44.5t35.5 29.5t46 10.5t43 -12.5t24.5 -39q29 -140 109.5 -202t219.5 -52q57 6 95.5 46t31.5 97q-5 43 -28.5 72t-83.5 51q-38 14 -105 33q-45 11 -81 24t-71.5 31.5t-62 44.5t-41.5 59q-25 54 -22 112.5t32 111.5q35 60 97.5 98t140.5 45 q71 9 150.5 -10.5t125.5 -50.5q22 -17 26 -41t-7 -44.5t-29 -37.5t-40.5 -19.5t-41.5 8.5q-21 15 -72 27.5t-96 7.5q-81 -10 -112 -63q-21 -38 -4 -78q10 -23 47.5 -38.5t103.5 -31.5q14 -5 36 -11.5t43.5 -13t39.5 -12.5q95 -38 145 -96q17 -18 25.5 -32.5t17.5 -40.5 q38 -3 104.5 15t149.5 58q29 17 65.5 6.5t51.5 -39.5t7 -59t-36 -49q-94 -64 -319 -102q-16 -99 -91.5 -165t-178.5 -73q-18 -2 -52 -2q-173 0 -292 96q-114 97 -156 287z" />
<glyph unicode="t" horiz-adv-x="616" d="M-172 948q0 35 17.5 58.5t48.5 23.5h108q2 150 2 295q0 32 24 50t60 18q35 0 56 -17.5t20 -50.5v-295h313q32 0 50 -23.5t18 -58.5q0 -34 -18 -57t-50 -23h-313q0 -28 -2 -132t-1.5 -164t9 -143.5t27.5 -137.5q22 -63 60.5 -94t102.5 -35h21q92 0 158 84q15 20 29 48.5 t20.5 47t17 50t10.5 32.5q12 36 39.5 50t59.5 3q66 -25 47 -102q-19 -74 -51.5 -139t-79 -119t-112 -85.5t-140.5 -31.5q-21 0 -31 2q-228 17 -303 238q-18 51 -27.5 122.5t-10.5 108.5t-3 125v49q0 19 -1 96t-1 127h-108q-31 0 -48.5 23t-17.5 57z" />
<glyph unicode="u" horiz-adv-x="1083" d="M0 653q1 39 2 80.5t2 73t2 56.5t1.5 39.5t0.5 15.5q3 32 29.5 48.5t56.5 15t53.5 -21.5t22.5 -53q-11 -128 -8.5 -331t24.5 -271q27 -77 59.5 -110.5t94.5 -32.5q75 0 139 80q70 82 76 190q4 86 4 481q-1 32 22.5 51t59.5 19q35 0 56.5 -17.5t21.5 -50.5v-415 q0 -54 6 -103.5t21 -104t47.5 -89.5t78.5 -39q34 -3 65 18t57.5 63t46.5 85t42 102q10 29 40.5 39t62.5 -2t45.5 -37t1.5 -55q-53 -151 -113 -236q-53 -68 -106 -100q-59 -39 -131 -39q-17 0 -25 2q-153 13 -233 164q-117 -161 -283 -168h-6q-45 0 -84 11t-66.5 26 t-52.5 41.5t-38.5 45t-28.5 50t-19.5 43.5t-13.5 37q-36 112 -33 399z" />
<glyph unicode="v" horiz-adv-x="962" d="M-49 817v80q0 33 23 54.5t57 21.5t57.5 -20t24.5 -52v-84q0 -82 1.5 -124t12.5 -103.5t33 -114.5q65 -152 192 -289q142 175 168 308q16 84 28 188.5t15.5 158.5t3.5 64q2 33 33.5 54t68.5 16t52 -37q2 -5 14.5 -24.5t40.5 -52t62.5 -62t85.5 -51t104 -21.5h2 q33 0 51.5 -21.5t18.5 -56.5t-18.5 -58.5t-51.5 -23.5h-2q-179 0 -315 125q-15 -132 -35 -229q-12 -64 -44 -134t-64.5 -120.5t-72 -100t-56.5 -68t-27 -28.5q-22 -22 -58 -22q-30 0 -51 18q-6 5 -24 21t-53.5 54.5t-71 83.5t-75.5 112t-69 135q-28 66 -41.5 141.5 t-16 120.5t-3.5 141z" />
<glyph unicode="w" horiz-adv-x="1376" d="M0 446q3 97 21 208t33.5 170.5t19.5 68.5q9 31 33.5 41.5t58.5 1.5t52 -33t9 -55l-7 -24q-6 -24 -15 -65t-18.5 -90.5t-16.5 -110.5t-8 -116q-4 -135 22 -202q29 -73 113 -82q50 -6 90 24q52 43 80 133.5t33 155.5q3 32 29 49.5t55.5 16t53.5 -20.5t24 -51q0 -57 22 -139 t70 -129q48 -45 125 -45q12 0 23 2t19.5 4.5t15 5t12.5 6t9 5.5t7 5l4 4q55 64 39 262q-7 89 -54.5 212t-91.5 206q-13 26 -8 54t27 47t50 19t50 -17l10 -7q10 -7 26.5 -18t39.5 -25.5t51.5 -30.5t60.5 -32t68.5 -30.5t73.5 -25.5t77.5 -18t77.5 -8q32 0 49 -22t17 -58 q0 -34 -17.5 -57t-48.5 -23h-2q-160 3 -356 93q52 -135 61 -246q8 -123 -7 -219t-75 -162q-77 -83 -206 -86h-9q-138 0 -231 90q-34 34 -63 84q-43 -69 -89 -109q-93 -74 -210 -59q-178 21 -244 180q-39 99 -35 268z" />
<glyph unicode="x" horiz-adv-x="1177" d="M0 397q-7 25 5.5 53.5t41.5 41.5q31 13 66 -4.5t43 -49.5q24 -93 63.5 -167t79.5 -95q25 -14 59 -2q26 13 64 62q14 19 31.5 46.5t29 46t32.5 54.5t28 47q3 4 8 12t9.5 15t8.5 12q-48 82 -99.5 153.5t-85.5 110.5t-56 58q-15 11 -22.5 15.5t-26 11t-42.5 4.5t-57 -11 q-31 -7 -57 11.5t-35 51.5q-8 33 6 59.5t45 33.5q109 27 189 4q46 -13 102 -56q20 -17 46 -44t56.5 -63.5t65 -85t68.5 -101.5q118 183 235 354q20 27 50.5 31t56.5 -17q29 -21 36 -51t-12 -57q-44 -61 -276 -416q73 -146 123 -215q45 -67 84 -82q11 -3 18.5 -3t24.5 3.5 t36.5 21t40.5 46.5q51 72 93 190q10 30 39 41t59 0q33 -12 48 -39t3 -57q-50 -142 -111 -228q-50 -73 -116 -110q-60 -29 -113 -29q-25 0 -65 8q-33 10 -64.5 32t-56.5 48t-52 65.5t-46 72t-44 77.5q-3 -4 -8 -13t-8 -13q-16 -26 -19 -31.5t-18 -30t-20.5 -32t-20 -29 t-22 -30.5t-21.5 -26t-24.5 -25.5t-24 -20t-26.5 -19t-27 -12.5q-53 -17 -90 -17q-44 0 -84 16.5t-69.5 43t-56.5 63t-45.5 71.5t-34 75t-24 67t-14.5 53z" />
<glyph unicode="y" horiz-adv-x="1009" d="M2 768q0 10 1 30t1 29q0 32 22 53t54 21q35 -2 60 -23.5t24 -54.5v-59q-9 -268 16 -391q37 -180 142 -203q102 -21 151 20q52 39 76 142q18 77 22 205v299q0 33 22.5 53t57.5 20q34 2 57.5 -17.5t24.5 -51.5l1 -22q0 -22 0.5 -53.5t0.5 -69.5t-0.5 -81.5t-1.5 -78.5 q0 -22 1 -97.5t2.5 -187.5t2.5 -195q15 12 19 17q66 59 140.5 173t111.5 193q13 29 42 38t60 -5q30 -16 43 -44t0 -56q-42 -89 -124.5 -217t-164.5 -203q-35 -31 -125 -84v-84q0 -125 -33.5 -242.5t-91.5 -179.5q-61 -70 -147 -70q-103 0 -166 82q-47 61 -60 156t7 156 q15 55 70 108.5t100 80.5t142 79q12 7 18 10v105q-4 -2 -9 -7q-77 -59 -184 -59q-160 0 -244.5 89t-119.5 251q-30 152 -21 426zM406 -358q-10 -34 -3.5 -88t27.5 -82q18 -21 39 -21q17 0 37 26t35 70q37 99 41 234q-43 -23 -103 -62q-68 -49 -73 -77z" />
<glyph unicode="z" horiz-adv-x="1069" d="M10 449q11 25 35 38t53 9q80 -11 145 -11.5t104.5 4t76.5 19t53 24t42 28.5q5 3 7 5q61 44 144 150q-42 0 -85 10t-68.5 21t-61.5 28q-7 4 -25.5 14.5t-27 14t-24 10t-31.5 8.5t-36 2q-42 0 -90 -61q-13 -15 -29.5 -22t-32.5 -5t-32 9t-27.5 19.5t-18.5 26.5t-6 30.5 t11 31.5q8 12 23 28t45 43.5t70.5 45t80.5 16.5q48 -1 94 -13t70.5 -23t60.5 -31q70 -34 101 -39q55 -9 97 6.5t83 62.5q22 25 55 26t58 -22q44 -38 20 -94q-11 -28 -46.5 -92.5t-68.5 -110.5q-78 -105 -181.5 -195t-213.5 -118q-59 -13 -115 -16q63 -47 177 -123 q118 -78 266 -10q156 73 315 276q21 25 48.5 25t54.5 -23q28 -21 35.5 -48t-11.5 -54q-191 -238 -375 -322q-103 -47 -198 -47q-117 0 -223 68q-112 74 -207.5 143.5t-132.5 99t-43 35.5q-22 20 -26 49t11 54z" />
<glyph unicode="{" horiz-adv-x="481" d="M0 657v5q0 34 21 57.5t53 23.5h6q28 -1 37 1.5t12 11.5q6 6 8 86q0 62 -5 202.5t-5 210.5v37q-2 96 3.5 164t27.5 127q62 168 262 186q34 3 57.5 -16t26.5 -53q3 -33 -16.5 -60t-51.5 -30q-35 -3 -59.5 -12t-41.5 -28t-26.5 -41t-14.5 -60.5t-6.5 -77t-0.5 -99.5v-35 q0 -15 6 -225q7 -137 3.5 -223t-24.5 -125q-2 -3 -4 -7.5t-4 -9.5t-4 -8q30 -45 36 -120t-1 -201q-1 -32 -2 -49q-6 -210 -6 -226v-36q-1 -61 0.5 -99.5t6.5 -76.5t14.5 -60t26.5 -41t41.5 -28t59.5 -13q32 -3 51.5 -28.5t14.5 -59.5q-3 -31 -23.5 -51.5t-50.5 -20.5h-8 q-200 18 -262 189q-35 91 -31 291v34q0 70 5 211t5 203q-2 77 -8 88q-3 8 -11.5 10.5t-37.5 2.5h-6q-32 0 -53 23t-21 56z" />
<glyph unicode="|" horiz-adv-x="546" d="M242 -190v1898q0 33 23 54.5t57 21.5t57.5 -21.5t23.5 -54.5v-1898q0 -33 -23 -54.5t-56 -21.5q-34 0 -58 21.5t-24 54.5z" />
<glyph unicode="}" horiz-adv-x="641" d="M27 1700q3 34 26.5 53t57.5 16q200 -18 262 -186q15 -41 23 -95.5t9 -91.5t1 -104q0 -76 -6.5 -229.5t-6.5 -220.5q1 -18 2 -33.5t2 -24.5t2 -15.5t1.5 -9.5l0.5 -3q4 -6 7 -8.5t13 -4t30 -0.5h6q32 0 52.5 -23.5t20.5 -57.5v-5q0 -33 -20.5 -56t-52.5 -23h-6 q-29 0 -37 -2.5t-13 -10.5l-1.5 -8.5t-3.5 -29.5t-3 -50q0 -56 3.5 -137.5t6.5 -165t3 -145.5q0 -67 -1 -104t-9 -92t-23 -95q-62 -171 -262 -189h-9q-33 0 -52 24t-20.5 53t15.5 54.5t49 28.5q35 4 59.5 13t41.5 27.5t27 41t15 60.5t6.5 76.5t0.5 99.5v36q0 46 -4.5 157.5 t-6.5 187.5t7 152t32 99q-34 45 -38.5 133.5t4.5 239.5q6 210 6 225v35q1 73 -1.5 117t-10.5 85t-24.5 62.5t-44 35.5t-69.5 18q-32 3 -51 30t-16 60z" />
<glyph unicode="&#xa1;" horiz-adv-x="491" d="M272 1425q-3 44 26.5 77t72.5 36q44 2 76.5 -27t35.5 -73q3 -43 -26.5 -76.5t-73.5 -34.5q-43 -3 -75.5 26t-35.5 72zM297 72v989q0 32 22.5 49.5t57.5 17.5t57.5 -17.5t22.5 -49.5v-989q0 -32 -23 -53t-57 -21t-57 21t-23 53z" />
<glyph unicode="&#xa3;" horiz-adv-x="854" d="M18 469q-2 36 15 59t49 23q37 2 90 2q3 170 29 258q27 83 86 127q61 49 155 49q113 -2 207 -72q13 -10 18.5 -23t3 -26.5t-8 -25.5t-13.5 -23q-10 -15 -25 -25t-35.5 -12.5t-41.5 11.5q-1 0 -10 6t-12 7.5l-12 6t-15 6.5t-15.5 4.5t-19.5 3t-21 0.5q-39 0 -57.5 -13.5 t-30.5 -49.5q-19 -63 -22 -205q74 2 157 2q38 0 55 -17t19 -55q0 -23 -8 -43t-24 -32.5t-37 -12.5l-162 -4q-2 -51 -2 -143v-68q54 15 80 15q37 0 66 -10t43.5 -22t31 -22.5t31.5 -11.5q7 0 13 0.5t10.5 1.5t9 4t7 4.5t5.5 6t4.5 6t4 6.5t3.5 6q22 28 43.5 33.5t52.5 -6.5 q33 -13 47.5 -35.5t3.5 -50.5q-19 -45 -42.5 -74.5t-50.5 -43.5t-51.5 -18.5t-55.5 -3.5q-30 0 -55 10.5t-39.5 23t-38 23t-50.5 11.5q-35 0 -108 -51q-31 -19 -59 -14t-48 28t-20 51v201q2 45 2 139h-86q-31 0 -48.5 22t-17.5 56z" />
<glyph unicode="&#xa7;" horiz-adv-x="819" d="M0 1331q0 72 25 141t68.5 122t107.5 84.5t137 29.5q177 -6 270 -147q19 -28 13 -55t-35 -46q-27 -20 -59 -18.5t-50 28.5q-51 72 -145 78q-52 0 -92 -33t-59 -81.5t-19 -102.5q0 -62 20.5 -110.5t53 -82t88.5 -71.5q10 -8 30.5 -20.5t28.5 -18.5q22 -14 32.5 -20 t32 -20.5t33 -23.5t30.5 -25t30 -29.5t25.5 -33t23 -38t16.5 -42t12 -48.5q21 -104 -8 -181q-24 -59 -75 -110q9 -9 16 -23q76 -107 76 -252q0 -70 -24 -138t-65.5 -121t-103.5 -85.5t-133 -32.5h-12q-86 3 -155.5 41t-115.5 107q-13 20 -10.5 43.5t20 41t38.5 28t45 5.5 t39 -28q51 -72 145 -78q77 0 123.5 66.5t46.5 150.5q0 91 -39 148.5t-123 115.5q-4 2 -25.5 16.5t-33.5 22.5q-49 30 -75.5 48.5t-66 54t-62.5 79.5t-32 99q-18 111 8 180q24 59 76 111q-10 10 -16 22q-76 107 -76 252zM166 791q4 -22 13.5 -41t22 -34t34 -32t41 -29.5 t51.5 -31.5q47 -29 65 -43q4 -2 11.5 -7.5t11.5 -7.5q38 35 47 69.5t-2 86.5q-8 52 -45 87t-117 83q-51 31 -66 43q-10 5 -22 14q-38 -35 -47 -69t2 -88z" />
<glyph unicode="&#xa8;" horiz-adv-x="829" d="M106 1184q1 43 34.5 72t76.5 26q44 -1 73 -34.5t27 -76.5q-3 -43 -35.5 -72t-76.5 -28q-43 3 -72.5 36t-26.5 77zM451 1184q1 43 34 72t76 26q43 -1 72 -34.5t26 -76.5q-1 -43 -34 -72.5t-76 -27.5q-43 3 -72 36t-26 77z" />
<glyph unicode="&#xa9;" horiz-adv-x="878" d="M0 1237q0 172 121 293t291 121q172 0 292.5 -121t120.5 -293q0 -112 -55 -206.5t-150 -150t-208 -55.5q-170 0 -291 121t-121 291zM98 1237q0 -129 92.5 -221t221.5 -92q130 0 222.5 92t92.5 221q0 131 -92.5 223t-222.5 92q-129 0 -221.5 -92.5t-92.5 -222.5zM205 1243 q-2 90 62.5 154t162.5 59q20 -1 46.5 -7.5t53.5 -20t36 -33.5t-5 -47q-12 -17 -32 -20.5t-37 7.5q-61 43 -125 13.5t-64 -105.5q0 -88 65.5 -115t147.5 23q17 9 37.5 4t30.5 -22q14 -29 -2.5 -52t-50 -35t-64.5 -18t-53 -6q-96 0 -152.5 60.5t-56.5 160.5z" />
<glyph unicode="&#xab;" horiz-adv-x="993" d="M215 514q0 24 14 41l154 209q20 27 49 30t55 -18q29 -21 36.5 -50t-11.5 -56l-115 -156l115 -156q27 -36 2 -78t-72 -42q-43 0 -61 26l-154 209q-12 18 -12 41zM541 514q0 24 14 41l154 209q20 27 49 30t55 -18q29 -21 36.5 -50t-11.5 -56l-115 -156l115 -156 q27 -36 2 -78t-72 -42q-43 0 -61 26l-154 209q-12 18 -12 41z" />
<glyph unicode="&#xad;" horiz-adv-x="827" d="M215 514q0 33 23.5 56.5t56.5 23.5h356q34 0 58 -23t24 -57t-24 -57t-58 -23h-356q-33 0 -56.5 23.5t-23.5 56.5z" />
<glyph unicode="&#xae;" horiz-adv-x="878" d="M0 1237q0 172 121 293t291 121q172 0 292.5 -121t120.5 -293q0 -112 -55 -206.5t-150 -150t-208 -55.5q-170 0 -291 121t-121 291zM98 1237q0 -129 92.5 -221t221.5 -92q130 0 222.5 92t92.5 221q0 131 -92.5 223t-222.5 92q-129 0 -221.5 -92.5t-92.5 -222.5zM270 1063 v352q0 20 14.5 34.5t34.5 14.5h27q132 5 182 -43q35 -30 35 -82q3 -82 -61 -114l80 -115q17 -24 3.5 -51t-44.5 -27q-27 0 -39 21l-105 147h-4q-16 0 -24 2v-139q0 -21 -14.5 -35t-35.5 -14q-20 0 -34.5 14.5t-14.5 34.5zM369 1300q69 -6 90 15q1 0 3 2t3 7.5t0 12.5 q0 13 -4 13q-14 16 -92 16v-66z" />
<glyph unicode="&#xaf;" horiz-adv-x="1705" d="M131 1214q0 33 23.5 56.5t56.5 23.5h356q34 0 58 -23t24 -57q0 -33 -24 -56t-58 -23h-356q-33 0 -56.5 23t-23.5 56z" />
<glyph unicode="&#xb0;" horiz-adv-x="522" d="M-92 1507q0 110 78 188.5t188 78.5t188 -78.5t78 -188.5t-78 -188t-188 -78t-188 78t-78 188zM61 1507q0 -46 33.5 -79t79.5 -33t79.5 33t33.5 79t-33.5 79.5t-79.5 33.5t-79.5 -33.5t-33.5 -79.5z" />
<glyph unicode="&#xb2;" horiz-adv-x="528" d="M33 915q21 49 59 117q5 11 33.5 66t43 83.5t36.5 72.5t34 72.5t17 43.5q13 43 10.5 60t-24.5 20q-41 5 -62 -84q-14 -55 -74 -49q-68 10 -65 65q9 73 49 127q65 91 160 82q88 -5 131 -67q49 -71 12 -193q-17 -68 -143 -307q11 -4 42.5 -29.5t51.5 -25.5q11 -2 23.5 13.5 t29.5 51.5q11 25 36.5 30.5t51.5 -7.5q29 -13 42 -35t1 -49q-70 -148 -176 -148q-75 -3 -133 47q-29 19 -39 21q-3 -7 -8.5 -18.5t-7.5 -14.5q-11 -21 -34 -28.5t-54 2.5q-30 12 -42.5 33.5t-0.5 47.5z" />
<glyph unicode="&#xb3;" horiz-adv-x="524" d="M31 991q-21 57 37 82q27 12 56 6t40 -32q18 -42 43.5 -61.5t64.5 -16.5q26 1 45.5 27t26 59.5t3 66.5t-18.5 47q-28 26 -111 2q-12 -3 -23.5 -2.5t-21.5 3.5t-19 10t-16 16q-13 19 -13 42t13 42l121 170l-141 2q-19 0 -32 10t-18.5 26t-5.5 36q0 32 14 51.5t42 19.5 l278 -2q25 0 45.5 -17t25 -42t-12.5 -53l-115 -164q38 -6 72 -27q66 -39 79 -129q10 -77 -7.5 -147.5t-59.5 -120.5q-64 -70 -150 -70t-147.5 45.5t-93.5 120.5z" />
<glyph unicode="&#xb4;" horiz-adv-x="1705" d="M330 1217l153 208q20 27 50 30.5t57 -17.5q28 -21 35.5 -50.5t-11.5 -56.5l-153 -209q-18 -26 -62 -26q-47 0 -71 42t2 79z" />
<glyph unicode="&#xb6;" horiz-adv-x="1228" d="M-20 1102q-24 161 57 264q72 89 229 133q91 25 279 39q81 5 177.5 -6t171.5 -28.5t149 -40t106 -34.5t45 -18q55 -22 27 -94q-13 -33 -36 -49t-52 -6l-19 7t-56.5 20.5t-76.5 25.5q2 -62 7 -229t6.5 -233.5t4 -185t1 -206t-4.5 -174.5q-6 -141 -71.5 -217.5t-190.5 -77.5 q-107 0 -182 49q-76 -49 -203 -49q-146 0 -233 90q-77 77 -109 229q-6 32 11.5 53t52.5 27q16 4 31.5 3t28.5 -6.5t22 -16.5t12 -27q10 -48 23 -80.5t33.5 -58.5t52 -38.5t75.5 -12.5q30 0 70 6q19 4 34 11.5t34 24t35 48.5t26 78q14 64 19 147t4 135.5t-5 149.5 q-176 0 -286 34q-124 40 -203 117t-96 197zM137 1128q20 -133 189 -186q97 -31 229 -31l-18 465q-87 -6 -153.5 -16t-129 -33.5t-90.5 -58.5q-39 -51 -27 -140zM659 162q47 -26 93 -19q29 4 49 24.5t30 53.5t14 64.5t5 72.5q0 83 1 121.5t-2 134.5t-4.5 143.5t-6 149.5 t-7 151.5t-7.5 150t-7 145.5q-59 12 -119 18q2 -56 9.5 -238.5t11.5 -306t4 -188.5q0 -13 1 -75t0.5 -95t-5.5 -86.5t-14 -95.5q-14 -66 -46 -125z" />
<glyph unicode="&#xb8;" horiz-adv-x="1021" d="M178 -344q-16 134 94 209q49 29 101 43v155q0 33 22.5 52.5t57.5 19.5t57 -19.5t22 -52.5v-217q0 -28 -16.5 -49.5t-42.5 -27.5q-3 -1 -8 -2.5t-8 -2.5q-76 -19 -99 -38t-20 -52q3 -30 31 -45t64 -14.5t70.5 9t51.5 20.5q28 18 56.5 10.5t47.5 -35.5q26 -44 13.5 -75.5 t-55 -51.5t-88.5 -29.5t-87 -9.5q-71 0 -139 29q-113 55 -125 174z" />
<glyph unicode="&#xb9;" horiz-adv-x="395" d="M14 1374l199 197q34 34 78 14q43 -16 43 -65v-637q0 -28 -20 -43t-52 -15q-31 0 -51.5 15t-20.5 43v465l-73 -76q-22 -21 -48.5 -18.5t-48.5 24.5q-21 23 -23.5 48t17.5 48z" />
<glyph unicode="&#xbb;" horiz-adv-x="993" d="M254 358l115 156l-113 156q-28 37 -2.5 79t72.5 42q43 0 59 -27l154 -209q14 -17 14 -41t-14 -41l-154 -209q-20 -27 -49.5 -30t-56.5 18t-35 50t10 56zM580 358l114 156l-112 156q-28 37 -3 79t72 42q44 0 60 -27l153 -209q15 -18 15 -41t-15 -41l-153 -209 q-20 -27 -50 -30t-57 18t-34.5 50t10.5 56z" />
<glyph unicode="&#xbc;" horiz-adv-x="1226" d="M20 1319l199 197q34 34 78 14q20 -7 31.5 -25.5t11.5 -40.5v-637q0 -28 -20 -42.5t-52 -14.5q-31 0 -51 14.5t-20 42.5v465l-74 -75q-22 -21 -48 -18.5t-48 24.5q-21 23 -23.5 48t16.5 48zM61 96l723 1415q13 28 43.5 35.5t59.5 -8.5q31 -15 42.5 -43t-1.5 -57 l-723 -1415q-17 -35 -68 -35q-45 0 -69.5 35.5t-6.5 72.5zM643 317l4 11l10 30t12.5 39t13 45t9.5 43q2 27 2.5 43t-3 45t-5.5 43t-6.5 37t-5.5 27q-8 29 8 54.5t45 31.5q28 6 53.5 -9t32.5 -44q36 -161 21 -250q-9 -47 -25 -98h76v163q0 29 21 50.5t50 21.5t50.5 -21.5 t21.5 -50.5v-163h49q30 0 51 -21t21 -51t-21 -51t-51 -21h-49v-147q0 -29 -21.5 -50.5t-50.5 -21.5t-50 21.5t-21 50.5v147h-174q-37 0 -59 29t-9 67z" />
<glyph unicode="&#xbd;" horiz-adv-x="1226" d="M20 1319l199 197q34 34 78 14q20 -7 31.5 -25.5t11.5 -40.5v-637q0 -28 -20 -42.5t-52 -14.5q-31 0 -51 14.5t-20 42.5v465l-74 -75q-22 -21 -48 -18.5t-48 24.5q-21 23 -23.5 48t16.5 48zM61 96l723 1415q13 28 43.5 35.5t59.5 -8.5q31 -15 42.5 -43t-1.5 -57 l-723 -1415q-17 -35 -68 -35q-45 0 -69.5 35.5t-6.5 72.5zM612 96q18 42 60 117q152 298 164 338q9 30 10.5 45.5t-4 24t-21.5 10.5q-23 3 -38 -23t-23 -61q-14 -55 -74 -49q-68 10 -65 65q9 73 49 127q65 91 159 82q89 -5 132 -67q49 -71 12 -193q-16 -65 -144 -307 q11 -4 42.5 -29.5t52.5 -25.5q11 -2 23.5 13.5t29.5 51.5q11 25 36.5 30.5t51.5 -7.5q29 -13 42 -35t1 -49q-70 -148 -176 -148q-75 -3 -133 47q-29 19 -39 21q-7 -14 -10.5 -20.5t-11 -17.5t-15 -16t-17.5 -9t-22.5 -3t-28.5 6q-30 12 -42.5 34t-0.5 48z" />
<glyph unicode="&#xbe;" horiz-adv-x="1308" d="M4 932q-21 57 37 82q27 12 56 5.5t40 -32.5q35 -84 109 -78q26 1 45 27t26 59.5t3 67t-19 47.5q-28 26 -111 2q-23 -6 -44.5 1t-35 26t-13.5 42t14 42l120 170l-141 2q-28 0 -41.5 20t-13.5 51q0 33 13.5 52.5t41.5 19.5l279 -2q25 0 45.5 -17.5t24.5 -42.5t-13 -53 l-115 -163q37 -6 72 -27q68 -39 80 -129q10 -77 -8 -147.5t-60 -120.5q-64 -70 -149 -70q-88 0 -149 45t-93 121zM109 96l722 1415q15 29 45 36t60 -9q30 -15 41.5 -42.5t-2.5 -57.5l-723 -1415q-10 -20 -26 -27.5t-42 -7.5q-17 0 -34 10q-32 16 -43.5 41.5t2.5 56.5z M659 317l4 11.5t10 29.5t12.5 39t12.5 45t9 43q11 63 -19 195q-6 29 9.5 54.5t43.5 31.5q30 6 55 -9t31 -44q37 -149 23 -250q-9 -47 -25 -98h76v163q0 29 21.5 50.5t50.5 21.5t50 -21.5t21 -50.5v-163h50q29 0 50 -21.5t21 -50.5q0 -30 -20.5 -51t-50.5 -21h-50v-147 q0 -29 -21 -50.5t-50 -21.5t-50.5 21.5t-21.5 50.5v147h-176q-35 0 -57 30t-9 66z" />
<glyph unicode="&#xbf;" horiz-adv-x="819" d="M55 350q3 38 18 75t31.5 63t45.5 57.5t47 47.5t51 44q61 53 76 72q24 31 38 64t19.5 75.5t6.5 69t1 79.5v13q0 34 24 57t58 23q21 0 39.5 -10.5t29.5 -29t11 -40.5v-11q0 -35 -0.5 -54t-2 -53.5t-5 -57t-11 -55t-18 -58t-26.5 -55t-37 -56.5q-33 -40 -97 -94 q-25 -21 -39.5 -33.5t-35.5 -33.5t-32.5 -37t-20.5 -36t-11 -40q-9 -106 45 -172q46 -52 115 -58q66 -5 116.5 40.5t79.5 136.5q11 31 41 46t62 5q31 -9 46.5 -39.5t4.5 -61.5q-20 -63 -51 -115t-75 -93.5t-105 -62t-132 -15.5q-139 13 -225 112q-97 121 -82 291zM365 1427 q3 44 35.5 73.5t76.5 27.5q43 -3 72 -36t26 -77q-3 -43 -35 -72t-75 -26q-44 1 -73.5 34t-26.5 76z" />
<glyph unicode="&#xc0;" horiz-adv-x="1488" d="M-61 289q-7 31 10.5 53.5t50.5 30.5q34 8 60.5 -3t33.5 -42q37 -150 127 -162q39 -6 76.5 29t87.5 124q49 91 145 324h-32q-32 0 -48 24t-16 60q0 76 64 76h98q18 45 64.5 167t91 240.5t83 218.5t44.5 113q17 52 86 41q66 -11 69 -65q0 -6 7 -150t17 -317t15 -228 q0 -11 4 -57q15 -208 35 -326q36 -193 82 -231q37 -32 92 -19q47 12 101 67t102 177q11 31 39.5 39t58.5 -6q32 -12 44.5 -36t0.5 -54q-59 -157 -133 -236q-79 -82 -174 -106q-64 -15 -127.5 -1.5t-110.5 54.5q-71 62 -107 205t-54 350h-221q-98 -248 -179 -399 q-67 -119 -118 -166q-80 -74 -175 -74q-136 0 -221 119q-49 64 -73 166zM745 1905q-19 27 -11.5 56t36.5 50q26 21 56 18t48 -30l154 -209q17 -26 13 -53t-27.5 -47.5t-52.5 -20.5q-43 0 -62 27zM770 803h143q0 4 -2 6q-9 123 -18 319q-109 -286 -113 -297q-2 -4 -5 -14 t-5 -14z" />
<glyph unicode="&#xc1;" horiz-adv-x="1488" d="M-61 289q-7 31 10.5 53.5t50.5 30.5q34 8 60.5 -3t33.5 -42q37 -150 127 -162q39 -6 76.5 29t87.5 124q49 91 145 324h-32q-32 0 -48 24t-16 60q0 76 64 76h98q18 45 64.5 167t91 240.5t83 218.5t44.5 113q17 52 86 41q66 -11 69 -65q0 -6 7 -150t17 -317t15 -228 q0 -11 4 -57q15 -208 35 -326q36 -193 82 -231q37 -32 92 -19q47 12 101 67t102 177q11 31 39.5 39t58.5 -6q32 -12 44.5 -36t0.5 -54q-59 -157 -133 -236q-79 -82 -174 -106q-64 -15 -127.5 -1.5t-110.5 54.5q-71 62 -107 205t-54 350h-221q-98 -248 -179 -399 q-67 -119 -118 -166q-80 -74 -175 -74q-136 0 -221 119q-49 64 -73 166zM770 803h143q0 4 -2 6q-9 123 -18 319q-109 -286 -113 -297q-2 -4 -5 -14t-5 -14zM905 1786l154 209q20 27 49.5 30t56.5 -18q28 -21 36 -50t-11 -56l-154 -209q-19 -27 -61 -27q-47 0 -71.5 42.5 t1.5 78.5z" />
<glyph unicode="&#xc2;" horiz-adv-x="1488" d="M-61 289q-7 31 10.5 53.5t50.5 30.5q34 8 60.5 -3t33.5 -42q37 -150 127 -162q39 -6 76.5 29t87.5 124q49 91 145 324h-32q-32 0 -48 24t-16 60q0 76 64 76h98q18 45 64.5 167t91 240.5t83 218.5t44.5 113q17 52 86 41q66 -11 69 -65q0 -6 7 -150t17 -317t15 -228 q0 -11 4 -57q15 -208 35 -326q36 -193 82 -231q37 -32 92 -19q47 12 101 67t102 177q11 31 39.5 39t58.5 -6q32 -12 44.5 -36t0.5 -54q-59 -157 -133 -236q-79 -82 -174 -106q-64 -15 -127.5 -1.5t-110.5 54.5q-71 62 -107 205t-54 350h-221q-98 -248 -179 -399 q-67 -119 -118 -166q-80 -74 -175 -74q-136 0 -221 119q-49 64 -73 166zM731 1790l154 209q22 31 61 31q41 0 60 -31l153 -209q17 -26 13 -53t-27.5 -47.5t-52.5 -20.5q-43 0 -62 27l-84 114l-84 -114q-19 -27 -61 -27q-30 0 -53.5 20.5t-27.5 47.5t11 53zM770 803h143 q0 4 -2 6q-9 123 -18 319q-109 -286 -113 -297q-2 -4 -5 -14t-5 -14z" />
<glyph unicode="&#xc3;" horiz-adv-x="1488" d="M-61 289q-7 31 10.5 53.5t50.5 30.5q34 8 60.5 -3t33.5 -42q37 -150 127 -162q39 -6 76.5 29t87.5 124q49 91 145 324h-32q-32 0 -48 24t-16 60q0 76 64 76h98q18 45 64.5 167t91 240.5t83 218.5t44.5 113q17 52 86 41q66 -11 69 -65q0 -6 7 -150t17 -317t15 -228 q0 -11 4 -57q15 -208 35 -326q36 -193 82 -231q37 -32 92 -19q47 12 101 67t102 177q11 31 39.5 39t58.5 -6q32 -12 44.5 -36t0.5 -54q-59 -157 -133 -236q-79 -82 -174 -106q-64 -15 -127.5 -1.5t-110.5 54.5q-71 62 -107 205t-54 350h-221q-98 -248 -179 -399 q-67 -119 -118 -166q-80 -74 -175 -74q-136 0 -221 119q-49 64 -73 166zM616 1808q5 5 19.5 20.5t22.5 22.5t23 19t30 22q70 43 151 31q7 -1 15 -3t14 -4.5t14 -6t13 -6t12.5 -7.5t11.5 -7.5t12 -8.5t11 -8t11.5 -8.5t10.5 -8.5q22 -18 32.5 -26t28 -16t33.5 -9q15 -2 33 10 t29 24.5t35 41.5q17 21 39.5 25.5t41 -6t33 -27t15.5 -38.5t-11 -40q-2 -2 -16.5 -22.5t-18.5 -25t-18.5 -22t-23 -22.5t-25 -17t-30.5 -16t-34.5 -8t-42.5 -4h-18q-36 3 -72.5 18.5t-56 29t-47.5 36.5q-39 35 -53 37q-19 3 -38.5 -6.5t-32.5 -20.5t-36 -35l-10 -10 q-22 -21 -49 -19.5t-49 23.5q-24 22 -26.5 49t17.5 49zM770 803h143q0 4 -2 6q-9 123 -18 319q-109 -286 -113 -297q-2 -4 -5 -14t-5 -14z" />
<glyph unicode="&#xc4;" horiz-adv-x="1488" d="M-61 289q-7 31 10.5 53.5t50.5 30.5q34 8 60.5 -3t33.5 -42q37 -150 127 -162q39 -6 76.5 29t87.5 124q49 91 145 324h-32q-32 0 -48 24t-16 60q0 76 64 76h98q18 45 64.5 167t91 240.5t83 218.5t44.5 113q17 52 86 41q66 -11 69 -65q0 -6 7 -150t17 -317t15 -228 q0 -11 4 -57q15 -208 35 -326q36 -193 82 -231q37 -32 92 -19q47 12 101 67t102 177q11 31 39.5 39t58.5 -6q32 -12 44.5 -36t0.5 -54q-59 -157 -133 -236q-79 -82 -174 -106q-64 -15 -127.5 -1.5t-110.5 54.5q-71 62 -107 205t-54 350h-221q-98 -248 -179 -399 q-67 -119 -118 -166q-80 -74 -175 -74q-136 0 -221 119q-49 64 -73 166zM678 1757q1 43 34 72t76 26q29 -1 52.5 -16.5t36.5 -40.5t12 -53q-3 -43 -36 -72t-77 -28q-43 3 -72 35.5t-26 76.5zM770 803h143q0 4 -2 6q-9 123 -18 319q-109 -286 -113 -297q-2 -4 -5 -14t-5 -14z M1022 1757q1 43 34.5 72t76.5 26q43 -1 72 -34t26 -76q-1 -42 -34.5 -72t-76.5 -28q-43 3 -72 35.5t-26 76.5z" />
<glyph unicode="&#xc5;" horiz-adv-x="1488" d="M-61 289q-7 31 10.5 53.5t50.5 30.5q34 8 60.5 -3t33.5 -42q37 -150 127 -162q39 -6 76.5 29t87.5 124q49 91 145 324h-32q-32 0 -48 24t-16 60q0 76 64 76h98q18 45 64.5 167t91 240.5t83 218.5t44.5 113q17 52 86 41q66 -11 69 -65q0 -6 7 -150t17 -317t15 -228 q0 -11 4 -57q15 -208 35 -326q36 -193 82 -231q37 -32 92 -19q47 12 101 67t102 177q11 31 39.5 39t58.5 -6q32 -12 44.5 -36t0.5 -54q-59 -157 -133 -236q-79 -82 -174 -106q-64 -15 -127.5 -1.5t-110.5 54.5q-71 62 -107 205t-54 350h-221q-98 -248 -179 -399 q-67 -119 -118 -166q-80 -74 -175 -74q-136 0 -221 119q-49 64 -73 166zM739 1837q0 86 61 146.5t146 60.5q86 0 146.5 -60.5t60.5 -146.5q0 -85 -60.5 -145t-146.5 -60q-85 0 -146 60t-61 145zM770 803h143q0 4 -2 6q-9 123 -18 319q-109 -286 -113 -297q-2 -4 -5 -14 t-5 -14zM872 1837q0 -29 21.5 -50.5t52.5 -21.5t52.5 21.5t21.5 50.5q0 31 -21.5 52.5t-52.5 21.5t-52.5 -21.5t-21.5 -52.5z" />
<glyph unicode="&#xc6;" horiz-adv-x="1505" d="M-61 285q-7 32 9.5 55t49.5 31q34 8 61.5 -4t34.5 -43q41 -150 127 -162q40 -5 77.5 30.5t86.5 124.5q39 68 145 322h-32q-32 0 -51 24.5t-19 59.5t18.5 56.5t51.5 21.5h98q30 71 149.5 390t133.5 349q23 49 71 51l385 13q27 1 45.5 -15t23 -39.5t0.5 -47.5t-21.5 -41.5 t-43.5 -18.5l-303 -8q5 -282 11 -529l153 13q33 3 52 -16t22 -54t-14 -62t-48 -28l-161 -15v-215q0 -213 2 -354l409 10q26 1 44 -15t22.5 -39.5t0.5 -47t-21 -40.5t-42 -17l-491 -15h-2q-32 0 -56 23t-24 55v4q-2 180 -2 436v111h-186q-114 -284 -179 -399 q-67 -119 -118 -166q-80 -74 -175 -74q-115 0 -189.5 81.5t-104.5 203.5zM770 801h119v12q-2 63 -6 285q-18 -48 -43 -114.5t-41 -108.5t-29 -74z" />
<glyph unicode="&#xc7;" horiz-adv-x="868" d="M2 866q9 202 39 314q40 160 111 237q82 92 215 109q120 15 213 -72q70 -63 110 -168q12 -30 -3.5 -54.5t-47.5 -35.5q-30 -13 -59.5 -4.5t-40.5 39.5q-5 14 -15 34t-28.5 46.5t-47.5 42.5t-61 12q-76 -12 -117 -55q-44 -49 -73 -170q-17 -63 -27.5 -165.5t-4 -248.5 t37.5 -266q12 -45 26 -80.5t41 -76t62 -67.5t90.5 -46t124.5 -21q60 -1 114.5 22t93.5 62.5t67.5 84.5t45.5 95q12 31 40.5 41t60.5 -2q32 -11 47.5 -36t5.5 -56q-56 -149 -160 -246q-109 -106 -254 -125v-164q0 -28 -16.5 -49.5t-42.5 -27.5l-17 -5q-76 -19 -98.5 -38 t-19.5 -52q3 -30 31 -45.5t64 -14.5t70.5 9.5t51.5 20.5q28 18 56.5 10.5t47.5 -35.5q26 -44 13.5 -75.5t-55 -51.5t-88.5 -29.5t-87 -9.5q-71 0 -139 29q-113 55 -125 174q-16 134 94 209q49 29 101 43v110q-175 30 -281 154q-86 102 -121 248q-50 189 -45 446z" />
<glyph unicode="&#xc8;" horiz-adv-x="833" d="M-41 1006q-1 28 -2.5 64.5t7 96t26.5 111.5q35 104 106.5 169.5t173.5 88.5q142 30 260 -20q91 -42 162 -127q21 -27 15.5 -55.5t-31.5 -51.5q-26 -22 -56.5 -22t-50.5 26q-15 17 -28.5 30t-32.5 27t-39.5 23t-45.5 14.5t-55.5 5t-64.5 -7.5q-41 -9 -73.5 -31t-52 -49.5 t-32.5 -62.5t-18.5 -66t-7 -64t-1 -52.5t2.5 -34.5q3 -57 41.5 -101t109.5 -51q48 -4 118.5 8.5t117.5 26.5q25 7 47 -4t32.5 -33t13.5 -45.5t-9.5 -45t-38.5 -28.5q-4 -1 -62.5 -16t-62.5 -16q-38 -12 -68 -24.5t-63 -32t-56 -44.5t-42 -57.5t-26.5 -76.5t-4.5 -97 q3 -47 22.5 -86t47.5 -62.5t63 -40.5t65 -24t58 -8q45 -3 87 2t90 22t88.5 46.5t79 81t65.5 120.5q12 31 39 39.5t59 -4.5q32 -12 45.5 -37t3.5 -55q-90 -233 -276 -322q-112 -55 -254 -55h-35q-68 3 -135.5 27.5t-122.5 64.5q-140 106 -152 281q-6 116 30 209t103 157 q-47 24 -85.5 63t-64 93t-30.5 113zM166 1905q-19 27 -12 56t36 50q26 21 56.5 18t48.5 -30l154 -209q13 -17 13 -39t-10.5 -39.5t-29.5 -30t-41 -12.5q-43 0 -62 27z" />
<glyph unicode="&#xc9;" horiz-adv-x="833" d="M-41 1006q-1 28 -2.5 64.5t7 96t26.5 111.5q35 104 106.5 169.5t173.5 88.5q142 30 260 -20q91 -42 162 -127q21 -27 15.5 -55.5t-31.5 -51.5q-26 -22 -56.5 -22t-50.5 26q-15 17 -28.5 30t-32.5 27t-39.5 23t-45.5 14.5t-55.5 5t-64.5 -7.5q-41 -9 -73.5 -31t-52 -49.5 t-32.5 -62.5t-18.5 -66t-7 -64t-1 -52.5t2.5 -34.5q3 -57 41.5 -101t109.5 -51q48 -4 118.5 8.5t117.5 26.5q25 7 47 -4t32.5 -33t13.5 -45.5t-9.5 -45t-38.5 -28.5q-4 -1 -62.5 -16t-62.5 -16q-38 -12 -68 -24.5t-63 -32t-56 -44.5t-42 -57.5t-26.5 -76.5t-4.5 -97 q3 -47 22.5 -86t47.5 -62.5t63 -40.5t65 -24t58 -8q45 -3 87 2t90 22t88.5 46.5t79 81t65.5 120.5q12 31 39 39.5t59 -4.5q32 -12 45.5 -37t3.5 -55q-90 -233 -276 -322q-112 -55 -254 -55h-35q-68 3 -135.5 27.5t-122.5 64.5q-140 106 -152 281q-6 116 30 209t103 157 q-47 24 -85.5 63t-64 93t-30.5 113zM252 1790l154 209q20 27 49.5 30t56.5 -18q28 -21 36 -50t-11 -56l-154 -209q-19 -27 -61 -27q-30 0 -53.5 20.5t-28 47.5t11.5 53z" />
<glyph unicode="&#xca;" horiz-adv-x="833" d="M-41 1006q-1 28 -2.5 64.5t7 96t26.5 111.5q35 104 106.5 169.5t173.5 88.5q142 30 260 -20q91 -42 162 -127q21 -27 15.5 -55.5t-31.5 -51.5q-26 -22 -56.5 -22t-50.5 26q-15 17 -28.5 30t-32.5 27t-39.5 23t-45.5 14.5t-55.5 5t-64.5 -7.5q-41 -9 -73.5 -31t-52 -49.5 t-32.5 -62.5t-18.5 -66t-7 -64t-1 -52.5t2.5 -34.5q3 -57 41.5 -101t109.5 -51q48 -4 118.5 8.5t117.5 26.5q25 7 47 -4t32.5 -33t13.5 -45.5t-9.5 -45t-38.5 -28.5q-4 -1 -62.5 -16t-62.5 -16q-38 -12 -68 -24.5t-63 -32t-56 -44.5t-42 -57.5t-26.5 -76.5t-4.5 -97 q3 -47 22.5 -86t47.5 -62.5t63 -40.5t65 -24t58 -8q45 -3 87 2t90 22t88.5 46.5t79 81t65.5 120.5q12 31 39 39.5t59 -4.5q32 -12 45.5 -37t3.5 -55q-90 -233 -276 -322q-112 -55 -254 -55h-35q-68 3 -135.5 27.5t-122.5 64.5q-140 106 -152 281q-6 116 30 209t103 157 q-47 24 -85.5 63t-64 93t-30.5 113zM154 1790l153 209q22 31 62 31t59 -31l154 -209q16 -26 12 -52.5t-27.5 -47.5t-52.5 -21q-42 0 -61 27l-84 114l-84 -114q-19 -27 -62 -27q-30 0 -53 20.5t-27 47.5t11 53z" />
<glyph unicode="&#xcb;" horiz-adv-x="833" d="M-41 1006q-1 28 -2.5 64.5t7 96t26.5 111.5q35 104 106.5 169.5t173.5 88.5q142 30 260 -20q91 -42 162 -127q21 -27 15.5 -55.5t-31.5 -51.5q-26 -22 -56.5 -22t-50.5 26q-15 17 -28.5 30t-32.5 27t-39.5 23t-45.5 14.5t-55.5 5t-64.5 -7.5q-41 -9 -73.5 -31t-52 -49.5 t-32.5 -62.5t-18.5 -66t-7 -64t-1 -52.5t2.5 -34.5q3 -57 41.5 -101t109.5 -51q48 -4 118.5 8.5t117.5 26.5q25 7 47 -4t32.5 -33t13.5 -45.5t-9.5 -45t-38.5 -28.5q-4 -1 -62.5 -16t-62.5 -16q-38 -12 -68 -24.5t-63 -32t-56 -44.5t-42 -57.5t-26.5 -76.5t-4.5 -97 q3 -47 22.5 -86t47.5 -62.5t63 -40.5t65 -24t58 -8q45 -3 87 2t90 22t88.5 46.5t79 81t65.5 120.5q12 31 39 39.5t59 -4.5q32 -12 45.5 -37t3.5 -55q-90 -233 -276 -322q-112 -55 -254 -55h-35q-68 3 -135.5 27.5t-122.5 64.5q-140 106 -152 281q-6 116 30 209t103 157 q-47 24 -85.5 63t-64 93t-30.5 113zM86 1757q1 43 34.5 72t76.5 26q44 -1 73 -34t27 -76q-3 -43 -36 -72t-77 -28q-28 2 -51.5 17.5t-36 40.5t-10.5 54zM430 1757q1 43 34.5 72t76.5 26q43 -1 72 -34t26 -76q-1 -42 -34.5 -72t-76.5 -28q-28 2 -51.5 17.5t-36 40.5t-10.5 54 z" />
<glyph unicode="&#xcc;" horiz-adv-x="860" d="M-20 383q-3 31 16.5 51t52.5 25q36 3 61.5 -12t28.5 -46q2 -6 2 -16q10 -102 41 -149q55 -79 197 -76q47 1 81.5 21t55.5 54t34 89.5t18.5 116.5t6.5 145v20q3 140 -2 623q-84 -66 -180 -66q-119 -3 -221 74v-158q0 -33 -21 -50t-55 -17q-37 0 -61.5 18.5t-24.5 50.5v2 q4 224 -2 369q-2 26 13 48.5t40 29.5q26 9 52 2t41 -29l18 -24q26 -37 46 -61.5t47 -48.5t58.5 -35.5t67.5 -10.5q26 1 49 10.5t46 31t40.5 43t44.5 58.5q9 9 17 21q15 21 40.5 29t49.5 0q24 -7 38.5 -28t16.5 -48q2 -80 3.5 -403t0.5 -433v-20q-2 -69 -3.5 -107.5 t-11.5 -110t-28 -124.5q-36 -111 -114 -176t-199 -68h-10q-118 0 -195 39q-78 37 -127 110q-56 84 -67 222q0 3 -1 7.5t-1 6.5zM180 1868q-15 26 -11 53t27.5 47.5t53.5 20.5q42 0 61 -27l154 -209q19 -27 11 -56t-36 -50q-27 -21 -56.5 -18t-49.5 30z" />
<glyph unicode="&#xcd;" horiz-adv-x="860" d="M-20 383q-3 31 16.5 51t52.5 25q36 3 61.5 -12t28.5 -46q2 -6 2 -16q10 -102 41 -149q55 -79 197 -76q39 0 69.5 13.5t51.5 40t35.5 61.5t22.5 85t12 103t5 123v20q3 140 -2 623q-84 -66 -180 -66q-119 -3 -221 74v-158q0 -33 -21 -50t-55 -17q-37 0 -61.5 18.5 t-24.5 50.5v2q4 224 -2 369q-2 26 13 48.5t40 29.5q26 9 52 2t41 -29l18 -24q26 -37 46 -61.5t47 -48.5t58.5 -35.5t67.5 -10.5q26 1 49 10.5t46 31t40.5 43t44.5 58.5q9 9 17 21q15 21 40.5 29t49.5 0q12 -4 22 -11.5t17 -17.5t11 -22t5 -25q2 -80 3.5 -403t0.5 -433v-20 q-2 -69 -3.5 -107.5t-11.5 -110t-28 -124.5q-36 -111 -113.5 -176t-199.5 -68h-10q-118 0 -195 39q-78 37 -127 110q-56 84 -67 222q0 3 -1 7.5t-1 6.5zM293 1741l153 209q20 27 50 30t57 -18q28 -21 36 -50.5t-11 -56.5l-154 -208q-19 -27 -62 -27q-47 0 -71 42t2 79z" />
<glyph unicode="&#xce;" horiz-adv-x="860" d="M-20 383q-3 31 16.5 51t52.5 25q36 3 61.5 -12t28.5 -46q2 -6 2 -16q10 -102 41 -149q55 -79 197 -76q47 1 81.5 21t55.5 54t34 89.5t18.5 116.5t6.5 145v20q3 140 -2 623q-84 -66 -180 -66q-119 -3 -221 74v-158q0 -33 -21 -50t-55 -17q-37 0 -61.5 18.5t-24.5 50.5v2 q4 224 -2 369q-2 26 13 48.5t40 29.5q26 9 52 2t41 -29l18 -24q26 -37 46 -61.5t47 -48.5t58.5 -35.5t67.5 -10.5q26 1 49 10.5t46 31t40.5 43t44.5 58.5q9 9 17 21q15 21 40.5 29t49.5 0q24 -7 38.5 -28t16.5 -48q2 -80 3.5 -403t0.5 -433v-20q-2 -69 -3.5 -107.5 t-11.5 -110t-28 -124.5q-36 -111 -114 -176t-199 -68h-10q-118 0 -195 39q-78 37 -127 110q-56 84 -67 222q0 3 -1 7.5t-1 6.5zM172 1790l154 209q22 31 61 31q40 0 59 -31l154 -209q17 -26 13 -53t-27.5 -47.5t-53.5 -20.5q-42 0 -61 27l-84 114l-84 -114q-19 -27 -61 -27 q-30 0 -53.5 20.5t-27.5 47.5t11 53z" />
<glyph unicode="&#xcf;" horiz-adv-x="860" d="M-20 383q-3 31 16.5 51t52.5 25q36 3 61.5 -12t28.5 -46q2 -6 2 -16q10 -102 41 -149q55 -79 197 -76q39 0 69.5 13.5t51.5 40t35.5 61.5t22.5 85t12 103t5 123v20q3 140 -2 623q-84 -66 -180 -66q-119 -3 -221 74v-158q0 -33 -21 -50t-55 -17q-37 0 -61.5 18.5 t-24.5 50.5v2q4 224 -2 369q-2 26 13 48.5t40 29.5q26 9 52 2t41 -29l18 -24q26 -37 46 -61.5t47 -48.5t58.5 -35.5t67.5 -10.5q26 1 49 10.5t46 31t40.5 43t44.5 58.5q9 9 17 21q15 21 40.5 29t49.5 0q12 -4 22 -11.5t17 -17.5t11 -22t5 -25q2 -80 3.5 -403t0.5 -433v-20 q-2 -69 -3.5 -107.5t-11.5 -110t-28 -124.5q-36 -111 -113.5 -176t-199.5 -68h-10q-118 0 -195 39q-78 37 -127 110q-56 84 -67 222q0 3 -1 7.5t-1 6.5zM102 1757q1 43 34.5 72t76.5 26q44 -1 73 -34t27 -76q-3 -43 -35.5 -72t-76.5 -28q-43 3 -72.5 35.5t-26.5 76.5z M446 1757q1 28 16.5 51.5t41 36t53.5 10.5q43 -1 72 -34t26 -76q-1 -43 -34 -72.5t-76 -27.5q-43 3 -72.5 35.5t-26.5 76.5z" />
<glyph unicode="&#xd0;" horiz-adv-x="1312" d="M-96 197q-16 151 59 235q65 70 168 70q62 0 122.5 -32t133.5 -91q4 40 4 67q6 177 6 179h-129q-33 0 -56.5 23.5t-23.5 56.5t23.5 56t56.5 23h131v27q-5 129 -39 510q-45 -11 -84.5 -31t-64.5 -38.5t-74 -57.5q-46 -40 -100 25q-49 59 -2 98q60 51 100 78t98 53.5 t130 37.5t174 13q104 2 200.5 -30t168.5 -87t124.5 -121.5t81.5 -138.5q106 -260 94 -565q-9 -176 -47 -285q-26 -86 -78 -147q-59 -77 -147 -102q-115 -36 -227 -15q-95 14 -197 74q-33 -85 -109.5 -135.5t-183.5 -50.5q-55 0 -98 18q-91 33 -147 114t-68 169zM63 217 q5 -35 20 -66.5t42.5 -57.5t65.5 -33t88 8q37 11 63.5 40.5t30.5 73.5l-31 27q-6 5 -25 20.5t-26.5 21.5t-25 19.5t-26.5 19.5t-23.5 16.5t-24 15t-21.5 10.5t-21.5 8t-17.5 2q-31 0 -47 -16q-28 -31 -21 -109zM520 1337q36 -397 39 -522v-31h66q34 0 58 -23t24 -56 q0 -22 -11 -40.5t-30 -29t-41 -10.5h-66l-6 -187l-12 -182l20 -16q80 -56 163 -72.5t163 8.5q77 23 121 148q30 95 36 239q6 140 -13 260t-68 240q-21 53 -61 102.5t-94 89t-124 62.5t-143 22q-15 0 -21 -2z" />
<glyph unicode="&#xd1;" horiz-adv-x="1468" d="M-76 549v31q0 31 23.5 48t58.5 17q16 0 30.5 -4t25.5 -12t17.5 -20.5t6.5 -28.5v-33q-5 -172 29 -258q16 -43 40.5 -71t60 -42t83.5 -14q26 -1 48.5 3.5t48 18.5t47.5 44.5t38 76.5q35 97 41 279q3 217 -8 766l-2 63q0 30 17 52t46 28q28 6 54.5 -6.5t36.5 -38.5 q12 -27 51.5 -115t89 -199.5t104 -232t107.5 -239t88 -193.5q13 699 47 827q22 89 78 142q38 38 76 53q20 9 53 0.5t47 -35.5q15 -30 6.5 -63t-39.5 -47l-5 -3q-5 -3 -6.5 -4t-6.5 -4.5t-7.5 -6l-7 -7t-7.5 -9l-7 -10.5t-7 -12.5t-6 -15t-5 -17.5q-20 -76 -33.5 -463.5 t-13.5 -689.5q0 -29 -18 -51t-46 -28q-28 -5 -54 8t-36 39q-30 65 -207.5 460.5t-220.5 489.5q7 -307 2 -442q-6 -214 -49 -330q-40 -110 -113 -174q-92 -76 -217 -76h-6q-127 3 -211.5 64.5t-122.5 168.5q-19 51 -28 119t-10 101t-1 96zM608 1659q-19 18 -23.5 38t2.5 37 t23 33q41 47 84 74q70 43 152 31q7 -1 15 -3t14 -4.5t14 -6t13 -6t12.5 -7.5t11.5 -7.5t12 -8.5t11 -8t11.5 -8.5t10.5 -8.5q22 -18 32.5 -26t28 -16t33.5 -9q21 -3 40 14t51 55q3 5 5 7q27 35 67 25t55 -44t-3 -67q-4 -5 -13.5 -18.5t-14 -19.5t-14.5 -18t-16.5 -18.5 t-17.5 -16.5t-20.5 -15.5t-22.5 -12t-26 -10t-29.5 -6t-34.5 -2.5h-18q-36 3 -72.5 18.5t-56 29t-47.5 36.5q-37 33 -54 36q-19 3 -38.5 -6.5t-32 -20.5t-35.5 -34l-3.5 -3.5l-3 -3l-3.5 -3.5q-22 -21 -49.5 -19.5t-49.5 23.5z" />
<glyph unicode="&#xd2;" horiz-adv-x="1021" d="M0 770q0 143 14.5 256t48.5 211.5t89 169.5q116 143 303 143q125 0 243 -118q33 -33 61.5 -73.5t58.5 -105t51 -140t34 -180.5t12 -224q-3 -226 -49 -377q-83 -262 -278 -322q-60 -18 -133 -18q-76 0 -138 26q-90 35 -155 115q-162 194 -162 637zM162 770 q0 -380 125 -534q69 -84 168 -84q109 0 174 67q122 131 125 492q1 91 -6.5 171t-21.5 140t-30.5 109t-37.5 85.5t-38 60t-36 42.5q-36 36 -70.5 53t-58.5 17q-57 0 -101 -20.5t-74 -59.5t-49 -82.5t-34 -100.5q-35 -143 -35 -356zM258 1905q-19 27 -11.5 56t36.5 50 q26 21 56 18t48 -30l154 -209q16 -26 12 -52.5t-27.5 -47.5t-52.5 -21q-42 0 -61 27z" />
<glyph unicode="&#xd3;" horiz-adv-x="1021" d="M0 770q0 216 35.5 374t116.5 263q116 143 303 143q125 0 243 -118q33 -33 61.5 -73.5t58.5 -105t51 -140t34 -180.5t12 -224q-6 -430 -170 -600q-112 -117 -290 -117q-76 0 -138 26q-90 35 -155 115q-162 194 -162 637zM162 770q0 -380 125 -534q69 -84 168 -84 q109 0 174 67q122 131 125 492q1 108 -10 201.5t-28.5 156.5t-42 116t-45.5 82t-44 52q-35 36 -69.5 53t-59.5 17q-57 0 -101 -20.5t-74 -59.5t-49 -82.5t-34 -100.5q-35 -143 -35 -356zM367 1790l153 209q20 27 50 30t57 -18q28 -21 35.5 -50t-11.5 -56l-153 -209 q-19 -27 -62 -27q-30 0 -53 20.5t-27 47.5t11 53z" />
<glyph unicode="&#xd4;" horiz-adv-x="1021" d="M0 770q0 143 14.5 256t48.5 211.5t89 169.5q116 143 303 143q125 0 243 -118q33 -33 61.5 -73.5t58.5 -105t51 -140t34 -180.5t12 -224q-3 -226 -49 -377q-83 -262 -278 -322q-60 -18 -133 -18q-76 0 -138 26q-90 35 -155 115q-162 194 -162 637zM162 770 q0 -380 125 -534q69 -84 168 -84q109 0 174 67q122 131 125 492q1 91 -6.5 171t-21.5 140t-30.5 109t-37.5 85.5t-38 60t-36 42.5q-36 36 -70.5 53t-58.5 17q-57 0 -101 -20.5t-74 -59.5t-49 -82.5t-34 -100.5q-35 -143 -35 -356zM231 1790l154 209q22 31 61 31q41 0 60 -31 l153 -209q17 -26 13 -53t-27.5 -47.5t-52.5 -20.5q-43 0 -62 27l-84 114l-84 -114q-19 -27 -61 -27q-30 0 -53.5 20.5t-27.5 47.5t11 53z" />
<glyph unicode="&#xd5;" horiz-adv-x="1021" d="M0 770q0 216 35.5 374t116.5 263q116 143 303 143q125 0 243 -118q33 -33 61.5 -73.5t58.5 -105t51 -140t34 -180.5t12 -224q-6 -430 -170 -600q-112 -117 -290 -117q-76 0 -138 26q-90 35 -155 115q-162 194 -162 637zM106 1808q5 5 19.5 20.5t22.5 22.5t23 19t30 22 q70 43 151 31q8 -1 16 -3t16.5 -6t14.5 -6t15 -8t13 -8t13.5 -9.5t12 -9t13 -9.5t11.5 -9q14 -11 19.5 -15.5t17 -13t19 -12t18 -6.5t20.5 -4q15 -2 33 10t29 24.5t35 41.5q17 21 39.5 25.5t41 -6t33 -27t15.5 -38.5t-11 -40q-3 -4 -16.5 -23t-18 -24.5t-18.5 -22 t-22.5 -22.5t-25 -17t-31 -15.5t-34.5 -8.5t-42 -4h-19q-36 3 -72.5 18.5t-56 29t-47.5 36.5q-39 35 -53 37q-19 3 -38.5 -6.5t-32.5 -20.5t-36 -35l-10 -10q-22 -21 -49 -19.5t-49 23.5q-24 22 -26.5 49t17.5 49zM162 770q0 -380 125 -534q69 -84 168 -84q109 0 174 67 q122 131 125 492q1 108 -10 201.5t-28.5 156.5t-42 116t-45.5 82t-44 52q-35 36 -69.5 53t-59.5 17q-57 0 -101 -20.5t-74 -59.5t-49 -82.5t-34 -100.5q-35 -143 -35 -356z" />
<glyph unicode="&#xd6;" horiz-adv-x="1021" d="M0 770q0 216 35.5 374t116.5 263q116 143 303 143q125 0 243 -118q33 -33 61.5 -73.5t58.5 -105t51 -140t34 -180.5t12 -224q-6 -430 -170 -600q-112 -117 -290 -117q-76 0 -138 26q-90 35 -155 115q-162 194 -162 637zM162 770q0 -380 125 -534q69 -84 168 -84 q109 0 174 67q122 131 125 492q1 108 -10 201.5t-28.5 156.5t-42 116t-45.5 82t-44 52q-35 36 -69.5 53t-59.5 17q-57 0 -101 -20.5t-74 -59.5t-49 -82.5t-34 -100.5q-35 -143 -35 -356zM162 1757q1 43 34 72t76 26q29 -1 52.5 -16.5t36.5 -40.5t12 -53q-3 -43 -36 -72 t-77 -28q-28 2 -51.5 17.5t-36 40.5t-10.5 54zM506 1757q1 43 34 72t76 26q28 -1 51.5 -16.5t36.5 -40.5t11 -53q-1 -42 -34.5 -72t-76.5 -28q-28 2 -51.5 17.5t-36 40.5t-10.5 54z" />
<glyph unicode="&#xd7;" horiz-adv-x="872" d="M168 248q-23 25 -23 58t23 56l156 154l-156 154q-23 25 -23 57t23 57q25 23 58.5 23t56.5 -23l153 -153l154 153q25 23 57.5 23t57.5 -23q23 -25 23 -57t-23 -57l-154 -154l154 -154q23 -23 23 -56t-23 -58q-25 -23 -57.5 -23t-57.5 23l-154 155l-153 -155 q-23 -23 -56.5 -23t-58.5 23z" />
<glyph unicode="&#xd8;" horiz-adv-x="1021" d="M-12 90l96 170q-84 210 -84 510q0 216 35.5 374t116.5 263q116 143 303 143q125 0 243 -118l35 -39l70 123q17 29 48 35.5t58 -11.5q30 -15 40 -44.5t-7 -59.5l-115 -201q91 -215 88 -526q-6 -430 -170 -600q-112 -117 -290 -117q-162 0 -273 117l-55 -99 q-20 -35 -66 -35q-45 0 -69.5 40.5t-3.5 74.5zM162 770q0 -180 31 -321l452 790q-36 55 -61 80q-35 36 -69.5 53t-59.5 17q-57 0 -101 -20.5t-74 -59.5t-49 -82.5t-34 -100.5q-35 -143 -35 -356zM268 258l19 -22q69 -84 168 -84q109 0 174 67q122 131 125 492q0 202 -35 336 z" />
<glyph unicode="&#xd9;" horiz-adv-x="1325" d="M-297 1186q24 125 41 178q44 121 119 170q49 34 112.5 37t117.5 -19.5t85 -62.5q38 -50 55 -131q24 -118 27 -414q0 -16 1 -46t1 -46q1 -121 3 -186.5t10.5 -158.5t23.5 -155q12 -46 28 -80.5t32 -54t36 -31.5t36.5 -16.5t37.5 -5.5q127 -9 188 49q63 59 86.5 193.5 t26.5 365.5q4 700 4 711q0 32 23.5 47.5t60.5 15.5q23 0 40 -6.5t27.5 -21t10.5 -35.5q0 -189 -6 -711q0 -22 -0.5 -57t-1 -61.5l-0.5 -26.5q0 -30 1 -59t3.5 -64.5t6.5 -67.5t10.5 -66.5t16 -63t22.5 -55t29.5 -44.5t38 -29.5t46.5 -13.5h2q37 0 70.5 19t57 49.5t41.5 62.5 t29.5 65t16.5 50t6 24q7 32 34 43.5t62 3.5q33 -8 48 -31t6 -55q-32 -154 -99 -243q-114 -148 -270 -148h-8q-113 0 -193 86q-37 40 -65 100q-102 -188 -342 -188h-37q-57 4 -104.5 23t-82.5 47.5t-62 72.5t-45 89t-30.5 106.5t-19 115.5t-10.5 126t-5 127t-2 129v12v92 q-6 299 -24 383q-7 33 -17.5 52t-17.5 23t-18 7q-47 12 -70 -6q-60 -41 -90 -240q-4 -32 -31 -45.5t-61 -7.5q-34 5 -53 25.5t-15 52.5zM289 1825q-15 26 -11 53t27 47.5t53 20.5q43 0 62 -27l153 -209q19 -27 11.5 -56t-35.5 -50q-27 -21 -57 -18t-50 30z" />
<glyph unicode="&#xda;" horiz-adv-x="1325" d="M-297 1186q24 125 41 178q44 121 119 170q49 34 112.5 37t117.5 -19.5t85 -62.5q38 -50 55 -131q24 -118 27 -414q0 -16 1 -46t1 -46q1 -121 3 -186.5t10.5 -158.5t23.5 -155q12 -46 28 -80.5t32 -54t36 -31.5t36.5 -16.5t37.5 -5.5q127 -9 188 49q63 59 86.5 193.5 t26.5 365.5q4 700 4 711q0 32 23.5 47.5t60.5 15.5q23 0 40 -6.5t27.5 -21t10.5 -35.5q0 -189 -6 -711q0 -22 -0.5 -57t-1 -61.5l-0.5 -26.5q0 -30 1 -59t3.5 -64.5t6.5 -67.5t10.5 -66.5t16 -63t22.5 -55t29.5 -44.5t38 -29.5t46.5 -13.5h2q37 0 70.5 19t57 49.5t41.5 62.5 t29.5 65t16.5 50t6 24q7 32 34 43.5t62 3.5q33 -8 48 -31t6 -55q-32 -154 -99 -243q-114 -148 -270 -148h-8q-113 0 -193 86q-37 40 -65 100q-102 -188 -342 -188h-37q-57 4 -104.5 23t-82.5 47.5t-62 72.5t-45 89t-30.5 106.5t-19 115.5t-10.5 126t-5 127t-2 129v12v92 q-6 299 -24 383q-7 33 -17.5 52t-17.5 23t-18 7q-47 12 -70 -6q-60 -41 -90 -240q-4 -32 -31 -45.5t-61 -7.5q-34 5 -53 25.5t-15 52.5zM414 1698l153 209q20 27 50 30t57 -18q28 -21 35.5 -50.5t-11.5 -56.5l-153 -208q-19 -27 -62 -27q-47 0 -71 42t2 79z" />
<glyph unicode="&#xdb;" horiz-adv-x="1325" d="M-297 1186q24 125 41 178q44 121 119 170q49 34 112.5 37t117.5 -19.5t85 -62.5q38 -50 55 -131q24 -118 27 -414q0 -16 1 -46t1 -46q1 -121 3 -186.5t10.5 -158.5t23.5 -155q12 -46 28 -80.5t32 -54t36 -31.5t36.5 -16.5t37.5 -5.5q127 -9 188 49q63 59 86.5 193.5 t26.5 365.5q4 700 4 711q0 32 23.5 47.5t60.5 15.5q23 0 40 -6.5t27.5 -21t10.5 -35.5q0 -189 -6 -711q0 -22 -0.5 -57t-1 -61.5l-0.5 -26.5q0 -30 1 -59t3.5 -64.5t6.5 -67.5t10.5 -66.5t16 -63t22.5 -55t29.5 -44.5t38 -29.5t46.5 -13.5h2q37 0 70.5 19t57 49.5t41.5 62.5 t29.5 65t16.5 50t6 24q7 32 34 43.5t62 3.5q33 -8 48 -31t6 -55q-32 -154 -99 -243q-114 -148 -270 -148h-8q-113 0 -193 86q-37 40 -65 100q-102 -188 -342 -188h-37q-57 4 -104.5 23t-82.5 47.5t-62 72.5t-45 89t-30.5 106.5t-19 115.5t-10.5 126t-5 127t-2 129v12v92 q-6 299 -24 383q-7 33 -17.5 52t-17.5 23t-18 7q-47 12 -70 -6q-60 -41 -90 -240q-4 -32 -31 -45.5t-61 -7.5q-34 5 -53 25.5t-15 52.5zM262 1790l154 209q22 31 61 31q41 0 60 -31l153 -209q17 -26 13 -53t-27.5 -47.5t-52.5 -20.5q-43 0 -62 27l-84 114l-84 -114 q-19 -27 -61 -27q-30 0 -53.5 20.5t-27.5 47.5t11 53z" />
<glyph unicode="&#xdc;" horiz-adv-x="1325" d="M-297 1186q24 125 41 178q44 121 119 170q49 34 112.5 37t117.5 -19.5t85 -62.5q38 -50 55 -131q24 -118 27 -414q0 -16 1 -46t1 -46q1 -121 3 -186.5t10.5 -158.5t23.5 -155q12 -46 28 -80.5t32 -54t36 -31.5t36.5 -16.5t37.5 -5.5q127 -9 188 49q63 59 86.5 193.5 t26.5 365.5q4 700 4 711q0 32 23.5 47.5t60.5 15.5q23 0 40 -6.5t27.5 -21t10.5 -35.5q0 -189 -6 -711q0 -22 -0.5 -57t-1 -61.5l-0.5 -26.5q0 -30 1 -59t3.5 -64.5t6.5 -67.5t10.5 -66.5t16 -63t22.5 -55t29.5 -44.5t38 -29.5t46.5 -13.5h2q37 0 70.5 19t57 49.5t41.5 62.5 t29.5 65t16.5 50t6 24q7 32 34 43.5t62 3.5q33 -8 48 -31t6 -55q-32 -154 -99 -243q-114 -148 -270 -148h-8q-113 0 -193 86q-37 40 -65 100q-102 -188 -342 -188h-37q-57 4 -104.5 23t-82.5 47.5t-62 72.5t-45 89t-30.5 106.5t-19 115.5t-10.5 126t-5 127t-2 129v12v92 q-6 299 -24 383q-7 33 -17.5 52t-17.5 23t-18 7q-47 12 -70 -6q-60 -41 -90 -240q-4 -32 -31 -45.5t-61 -7.5q-34 5 -53 25.5t-15 52.5zM195 1757q1 43 34 72t76 26q29 -1 52.5 -16.5t36.5 -40.5t12 -53q-3 -43 -36 -72t-77 -28q-43 3 -72 35.5t-26 76.5zM539 1757 q1 43 34 72t76 26q28 -1 51.5 -16.5t36.5 -40.5t11 -53q-1 -42 -34.5 -72t-76.5 -28q-43 3 -72 35.5t-26 76.5z" />
<glyph unicode="&#xdd;" horiz-adv-x="1234" d="M-274 1282q40 106 77 154q89 118 215 100q71 -8 115 -47q45 -42 66 -125q22 -106 30 -510q3 -211 14 -341.5t38 -213.5q26 -78 71.5 -110.5t130.5 -32.5q73 0 132 44.5t96.5 115t64 164t38 184.5t13.5 184q4 209 4 600q0 33 23 53.5t57 20.5t57.5 -20.5t24.5 -53.5 q0 -168 -2 -387q0 -45 17 -893q30 35 36 41q130 145 191 233q45 59 106 23q30 -15 40.5 -44t-5.5 -59q-40 -69 -213 -260q-92 -104 -151 -172q3 -225 6 -282v-10q5 -222 -14 -322q-14 -66 -39.5 -115t-57.5 -75.5t-63 -39.5t-64 -16q-10 -2 -32 -2q-111 0 -197 75.5 t-92 180.5q-6 155 209 440q72 96 182 226q-3 111 -6 237q-59 -102 -150.5 -166.5t-210.5 -64.5q-270 0 -354 252q-33 96 -44.5 229t-16.5 375q-7 386 -27 475q-6 28 -14 37t-31 12q-61 10 -119 -151q-3 -7 -6.5 -17t-5.5 -14q-13 -30 -42 -37t-59 8q-79 35 -38 117z M420 1790l153 209q20 27 50 30t57 -18q28 -21 36 -50t-11 -56l-154 -209q-19 -27 -62 -27q-46 0 -70.5 42.5t1.5 78.5zM618 -668q3 -47 48.5 -77t93.5 -25q10 1 18 4.5t21.5 14t25 36.5t19.5 66q17 79 12 282v11q-1 13 -2 48t-2 52q-9 -13 -28.5 -37.5t-28.5 -36.5 q-177 -237 -177 -338z" />
<glyph unicode="&#xde;" horiz-adv-x="1300" d="M-25 918q-18 29 -11 58t36 44q4 3 31 17t77.5 36.5t109.5 45.5t135.5 45.5t146.5 35.5l-2 126t-1.5 95t-0.5 33q0 32 22.5 53t56.5 21h3q33 0 55.5 -20t23.5 -52q0 -2 0.5 -35t1 -89t0.5 -113q150 4 254 -11q158 -24 240 -106q94 -91 88 -256q-6 -124 -77 -209t-187 -135 q-131 -57 -309 -70q-4 -109 -23 -182q-29 -110 -87 -164.5t-124 -69.5q-44 -12 -100 -12q-135 0 -225 94q-63 66 -109 195q-4 12 -4 14q-12 31 3.5 56t49.5 38q30 12 58 2.5t38 -38.5q37 -111 80 -156q62 -62 170 -37q27 6 47.5 26t32 52t19 61.5t10.5 72.5t3.5 65.5 t0.5 58.5v2q0 25 -1 107t-2.5 204.5t-2.5 216.5q-96 -21 -202.5 -61t-163 -67t-60.5 -31q-30 -14 -58 -2.5t-43 41.5zM662 1057q6 -255 6 -463q151 14 245 55q160 69 166 205q3 91 -41 135q-46 46 -143 59.5t-233 8.5z" />
<glyph unicode="&#xdf;" horiz-adv-x="1075" d="M-53 -223q33 177 45 380.5t12 504.5v106q-1 84 0 159.5t4 140.5t11.5 122t23 104t38.5 86t58 68q52 46 136 69t169 15q94 -9 174 -64q78 -57 115 -160.5t0 -220.5q-25 -79 -80 -130.5t-137 -67.5q-80 -26 -90 -41q-11 -22 0 -45q5 -20 35 -27l88 -16q111 -19 145 -31 q68 -22 103 -27q156 -22 319 58q29 15 61.5 4.5t47.5 -39.5t5.5 -61.5t-38.5 -47.5q-55 -28 -138 -49t-151 -26l12 -39q48 -192 -51 -344q-82 -124 -227 -146q-103 -15 -183.5 0.5t-181.5 69.5q-30 15 -39.5 46t5.5 62q15 29 47 38.5t61 -5.5q84 -44 142.5 -54t123.5 3 q79 10 117 76q29 42 37 99.5t-6 113.5q-8 30 -22.5 51.5t-31.5 35.5t-48 24t-58 16t-76 14q-35 4 -96 19q-105 20 -149 116q-20 46 -17.5 99t27.5 94q15 26 37.5 46t51 33t48 19.5t47.5 13.5q31 9 37 13q56 25 71 84.5t3 107.5q-30 112 -156 125q-49 4 -102.5 -9t-81.5 -36 q-23 -21 -39 -60t-24 -78t-12 -115.5t-4.5 -127t-0.5 -156.5v-20v-108q0 -315 -12 -523t-48 -393q-4 -27 -26.5 -45t-50.5 -18h-17q-32 6 -50.5 34t-12.5 60z" />
<glyph unicode="&#xe0;" d="M0 510q12 205 86 315q90 140 266 140q149 0 219 -82t82 -240v-141q0 -106 13 -180q18 -124 73 -148q72 -29 146 39q31 28 57 63.5t59.5 91.5t42.5 70q19 29 52 38t63 -9q27 -17 34 -50.5t-11 -62.5q-34 -59 -52.5 -89.5t-57 -81.5t-79.5 -89q-97 -92 -207 -92 q-47 0 -112 25q-68 30 -109 98q-83 -121 -250 -121h-8q-123 0 -203 86q-116 125 -104 420zM162 502q-9 -227 61 -303q28 -32 86 -35h6q32 0 52.5 5t43.5 23.5t37 53.5t26 97.5t18 152.5q2 45 2 120q-6 106 -29 142q-26 45 -113 47q-16 0 -26 -0.5t-30.5 -6.5t-35 -16.5 t-33 -33t-30.5 -53.5t-22 -81t-13 -112zM166 1331q-19 27 -12 56.5t36 50.5q26 21 56.5 17.5t48.5 -30.5l154 -208q27 -36 2.5 -78.5t-70.5 -42.5q-44 0 -62 26z" />
<glyph unicode="&#xe1;" d="M0 510q12 205 86 315q90 140 266 140q149 0 219 -82t82 -240v-141q0 -106 13 -180q18 -124 73 -148q72 -29 146 39q31 28 57 63.5t59.5 91.5t42.5 70q19 29 52 38t63 -9q27 -17 34 -50.5t-11 -62.5q-34 -59 -52.5 -89.5t-57 -81.5t-79.5 -89q-97 -92 -207 -92 q-47 0 -112 25q-68 30 -109 98q-83 -121 -250 -121h-8q-123 0 -203 86q-116 125 -104 420zM162 502q-9 -227 61 -303q28 -32 86 -35h6q32 0 52.5 5t43.5 23.5t37 53.5t26 97.5t18 152.5q2 45 2 120q-6 106 -29 142q-26 45 -113 47q-16 0 -26 -0.5t-30.5 -6.5t-35 -16.5 t-33 -33t-30.5 -53.5t-22 -81t-13 -112zM274 1217l154 208q20 27 50 30.5t57 -17.5q28 -21 35.5 -50.5t-11.5 -56.5l-153 -209q-18 -26 -62 -26q-47 0 -71.5 42.5t1.5 78.5z" />
<glyph unicode="&#xe2;" d="M0 510q12 205 86 315q90 140 266 140q149 0 219 -82t82 -240v-141q0 -106 13 -180q18 -124 73 -148q72 -29 146 39q31 28 57 63.5t59.5 91.5t42.5 70q19 29 52 38t63 -9q27 -17 34 -50.5t-11 -62.5q-34 -59 -52.5 -89.5t-57 -81.5t-79.5 -89q-97 -92 -207 -92 q-47 0 -112 25q-68 30 -109 98q-83 -121 -250 -121h-8q-123 0 -203 86q-116 125 -104 420zM137 1217l154 208q22 31 61 31q41 0 60 -31l153 -208q14 -18 14 -39.5t-10 -39.5t-29.5 -30t-41.5 -12q-44 0 -62 26l-84 115l-84 -115q-11 -16 -25 -21t-36 -5q-47 0 -71.5 42.5 t1.5 78.5zM162 502q-9 -227 61 -303q28 -32 86 -35h6q32 0 52.5 5t43.5 23.5t37 53.5t26 97.5t18 152.5q2 45 2 120q-6 106 -29 142q-13 22 -38.5 34t-74.5 13q-16 0 -26 -0.5t-30.5 -6.5t-35 -16.5t-33 -33t-30.5 -53.5t-22 -81t-13 -112z" />
<glyph unicode="&#xe3;" d="M0 510q12 205 86 315q90 140 266 140q149 0 219 -82t82 -240v-141q0 -106 13 -180q18 -124 73 -148q72 -29 146 39q31 28 57 63.5t59.5 91.5t42.5 70q19 29 52 38t63 -9q27 -17 34 -50.5t-11 -62.5q-34 -59 -52.5 -89.5t-57 -81.5t-79.5 -89q-97 -92 -207 -92 q-47 0 -112 25q-68 30 -109 98q-83 -121 -250 -121h-8q-123 0 -203 86q-116 125 -104 420zM45 1137q-27 30 -24.5 57t26.5 51q41 47 84 74q70 43 152 31q8 -1 16 -3t16.5 -6t14.5 -6t15 -8t13 -8t13.5 -9.5t12 -9t13 -9.5t11.5 -9q22 -18 32.5 -26t28 -16t33.5 -9 q15 -2 33 10.5t28 23.5t35 42q17 21 39.5 25.5t41 -6t33.5 -27.5t16 -38.5t-11 -39.5q-2 -3 -16.5 -22.5t-18.5 -25t-18.5 -22t-23 -22.5t-24.5 -17.5t-31 -16t-35 -8.5t-42 -4h-19q-36 3 -72.5 18.5t-56 29t-47.5 36.5q-39 35 -53 37q-20 3 -42.5 -9t-34 -22.5t-40.5 -39.5 q-22 -21 -49 -19.5t-49 23.5zM162 502q-9 -227 61 -303q28 -32 86 -35h6q32 0 52.5 5t43.5 23.5t37 53.5t26 97.5t18 152.5q2 45 2 120q-6 106 -29 142q-26 45 -113 47q-16 0 -26 -0.5t-30.5 -6.5t-35 -16.5t-33 -33t-30.5 -53.5t-22 -81t-13 -112z" />
<glyph unicode="&#xe4;" d="M0 510q12 205 86 315q90 140 266 140q149 0 219 -82t82 -240v-141q0 -106 13 -180q18 -124 73 -148q72 -29 146 39q31 28 57 63.5t59.5 91.5t42.5 70q19 29 52 38t63 -9q27 -17 34 -50.5t-11 -62.5q-34 -59 -52.5 -89.5t-57 -81.5t-79.5 -89q-97 -92 -207 -92 q-47 0 -112 25q-68 30 -109 98q-83 -121 -250 -121h-8q-123 0 -203 86q-116 125 -104 420zM82 1184q1 43 34.5 72t76.5 26q44 -1 73 -34.5t27 -76.5q-3 -43 -36 -72t-77 -28q-43 3 -72 36t-26 77zM162 502q-9 -227 61 -303q28 -32 86 -35h6q32 0 52.5 5t43.5 23.5t37 53.5 t26 97.5t18 152.5q2 45 2 120q-6 106 -29 142q-26 45 -113 47q-16 0 -26 -0.5t-30.5 -6.5t-35 -16.5t-33 -33t-30.5 -53.5t-22 -81t-13 -112zM426 1184q1 43 34.5 72t76.5 26q43 -1 72 -34.5t26 -76.5q-1 -42 -34.5 -72t-76.5 -28q-43 3 -72 36t-26 77z" />
<glyph unicode="&#xe5;" d="M0 510q12 205 86 315q90 140 266 140q149 0 219 -82t82 -240v-141q0 -106 13 -180q18 -124 73 -148q72 -29 146 39q31 28 57 63.5t59.5 91.5t42.5 70q19 29 52 38t63 -9q27 -17 34 -50.5t-11 -62.5q-34 -59 -52.5 -89.5t-57 -81.5t-79.5 -89q-97 -92 -207 -92 q-47 0 -112 25q-68 30 -109 98q-83 -121 -250 -121h-8q-123 0 -203 86q-116 125 -104 420zM158 1264q0 86 61 146t146 60q86 0 146 -60t60 -146q0 -85 -60 -145t-146 -60q-85 0 -146 60t-61 145zM162 502q-9 -227 61 -303q28 -32 86 -35h6q32 0 52.5 5t43.5 23.5t37 53.5 t26 97.5t18 152.5q2 45 2 120q-6 106 -29 142q-26 45 -113 47q-16 0 -26 -0.5t-30.5 -6.5t-35 -16.5t-33 -33t-30.5 -53.5t-22 -81t-13 -112zM291 1264q0 -29 21.5 -50.5t52.5 -21.5t52 21t21 51q0 31 -21 52t-52 21t-52.5 -21t-21.5 -52z" />
<glyph unicode="&#xe6;" horiz-adv-x="1187" d="M-27 377q15 70 55 124.5t97 80.5q133 65 319 4q10 72 27 123q-23 35 -42.5 56t-40 30t-36 11.5t-41.5 2.5q-84 0 -159 -35q-31 -13 -59 -0.5t-42 43.5q-14 30 -5.5 60t38.5 43q111 51 227 51q78 0 135.5 -25t108.5 -82q62 69 131 92q71 25 127.5 7.5t93.5 -57t51 -89.5 q31 -114 -47 -242q-65 -105 -215 -176q-55 -25 -92 -37q37 -180 170 -202q141 -25 249.5 46.5t164.5 225.5q22 57 98 31q69 -26 45 -86q-51 -136 -94 -189q-63 -79 -141 -127q-113 -67 -254 -67q-168 0 -269 88q-98 -86 -288 -86h-6q-153 0 -236 104q-47 55 -65.5 129.5 t-4.5 147.5zM166 203q38 -47 115 -47q83 1 126 15.5t74 43.5q-39 90 -43 199q-72 32 -135.5 38t-105.5 -14q-36 -19 -55 -58.5t-13.5 -88.5t37.5 -88zM600 532q132 58 174 127q19 30 27.5 57.5t3 52.5t-28.5 38q-4 2 -14 2q-9 0 -21 -4q-27 -8 -57.5 -40t-52.5 -81 q-22 -62 -31 -152z" />
<glyph unicode="&#xe7;" horiz-adv-x="770" d="M0 547q-3 174 61 284q60 108 162 138q74 22 140.5 13.5t118 -37t89.5 -73.5q44 -50 -10 -98q-28 -23 -58 -26t-54 20q-34 40 -89 50.5t-90 -3.5q-46 -13 -77.5 -80t-30.5 -186q0 -158 59 -252q69 -114 221 -123q57 -4 108 12.5t85 43.5t62.5 64t44 67.5t26.5 60.5 q12 30 42 40t62 -1q31 -12 43 -37.5t0 -56.5q-57 -153 -174 -250q-94 -82 -213 -101v-170q0 -28 -16.5 -49.5t-42.5 -27.5l-16 -5q-76 -19 -99 -38t-20 -52q3 -30 31 -45t64 -14.5t70.5 9t51.5 20.5q28 18 56.5 10.5t47.5 -35.5q26 -44 13.5 -75.5t-55 -51.5t-88.5 -29.5 t-87 -9.5q-71 0 -139 29q-113 55 -125 174q-16 134 94 209q49 29 101 43v112q-187 34 -285 193q-79 130 -84 334z" />
<glyph unicode="&#xe8;" horiz-adv-x="753" d="M0 506q7 162 47 252q31 77 85 133.5t118 79.5q91 32 166 -6q84 -46 106 -134q31 -113 -47 -241q-65 -105 -215 -176q-52 -24 -90 -37q28 -179 168 -203q143 -25 249.5 39.5t164.5 216.5q9 23 35 32t59 3q32 -6 44 -39.5t-1 -63.5q-57 -168 -182.5 -262.5t-300.5 -91.5 q-242 0 -343 180q-68 123 -63 318zM133 1331q-19 27 -11.5 56.5t36.5 50.5q26 21 56 17.5t48 -30.5l154 -208q27 -36 2.5 -78.5t-70.5 -42.5q-43 0 -61 26zM164 547q130 56 174 127q42 67 29 114q-2 6 -5 12t-8 11t-11.5 8.5t-14.5 3.5q-11 0 -23 -4q-27 -8 -57.5 -40 t-50.5 -81q-24 -57 -33 -151z" />
<glyph unicode="&#xe9;" horiz-adv-x="753" d="M0 506q7 162 47 252q31 77 85 133.5t118 79.5q91 32 166 -6q84 -46 106 -134q31 -113 -47 -241q-65 -105 -215 -176q-52 -24 -90 -37q28 -179 168 -203q143 -25 249.5 39.5t164.5 216.5q9 23 35 32t59 3q32 -6 44 -39.5t-1 -63.5q-57 -168 -182.5 -262.5t-300.5 -91.5 q-242 0 -343 180q-68 123 -63 318zM164 547q130 56 174 127q19 30 27.5 57.5t3 52t-28.5 37.5q-4 2 -12 2q-11 0 -23 -4q-27 -8 -57.5 -40t-50.5 -81q-24 -57 -33 -151zM233 1217l154 208q20 27 50 30.5t57 -17.5q28 -21 35.5 -50.5t-11.5 -56.5l-153 -209q-18 -26 -62 -26 q-47 0 -71.5 42.5t1.5 78.5z" />
<glyph unicode="&#xea;" horiz-adv-x="753" d="M0 506q7 162 47 252q31 77 85 133.5t118 79.5q91 32 166 -6q84 -46 106 -134q31 -113 -47 -241q-65 -105 -215 -176q-52 -24 -90 -37q28 -179 168 -203q143 -25 249.5 39.5t164.5 216.5q9 23 35 32t59 3q32 -6 44 -39.5t-1 -63.5q-57 -168 -182.5 -262.5t-300.5 -91.5 q-242 0 -343 180q-68 123 -63 318zM123 1217l153 208q22 31 62 31t59 -31l154 -208q27 -36 2.5 -78.5t-70.5 -42.5q-43 0 -61 26l-84 115l-84 -115q-18 -26 -61 -26q-47 0 -71.5 42t1.5 79zM164 547q130 56 174 127q42 67 29 114q-2 6 -5 12t-8 11t-11.5 8.5t-14.5 3.5 q-11 0 -23 -4q-27 -8 -57.5 -40t-50.5 -81q-24 -57 -33 -151z" />
<glyph unicode="&#xeb;" horiz-adv-x="753" d="M0 506q7 162 47 252q31 77 85 133.5t118 79.5q91 32 166 -6q84 -46 106 -134q31 -113 -47 -241q-65 -105 -215 -176q-52 -24 -90 -37q28 -179 168 -203q143 -25 249.5 39.5t164.5 216.5q9 23 35 32t59 3q32 -6 44 -39.5t-1 -63.5q-57 -168 -182.5 -262.5t-300.5 -91.5 q-242 0 -343 180q-68 123 -63 318zM45 1184q1 43 34.5 72t76.5 26q44 -1 73 -34.5t27 -76.5q-3 -43 -36 -72t-77 -28q-43 3 -72 36t-26 77zM164 547q130 56 174 127q19 30 27.5 57.5t3 52t-28.5 37.5q-4 2 -12 2q-11 0 -23 -4q-27 -8 -57.5 -40t-50.5 -81q-24 -57 -33 -151z M389 1184q1 43 34.5 72t76.5 26q43 -1 72 -34.5t26 -76.5q-1 -42 -34.5 -72t-76.5 -28q-43 3 -72 36t-26 77z" />
<glyph unicode="&#xec;" horiz-adv-x="620" d="M-121 1229q-26 36 -1 78.5t71 42.5q42 0 61 -27l154 -209q19 -27 11 -56t-36 -50q-27 -21 -56.5 -18t-49.5 30zM0 641v18q0 32 25 50t61 18q35 -2 55 -20t19 -50v-18v-137t8 -122t22.5 -100.5t42.5 -72.5t68 -37q106 -23 184 49q66 64 136 219q13 28 45.5 35t62.5 -8 q31 -14 41.5 -39.5t-2.5 -54.5q-89 -191 -172 -269q-106 -100 -242 -100q-265 0 -331 279q-19 76 -23 181t0 179z" />
<glyph unicode="&#xed;" horiz-adv-x="620" d="M0 641v18q0 32 25 50t61 18q35 -2 55 -20t19 -50v-18v-137t8 -122t22.5 -100.5t42.5 -72.5t68 -37q106 -23 184 49q66 64 136 219q13 28 45.5 35t62.5 -8q31 -14 41.5 -39.5t-2.5 -54.5q-28 -59 -51 -102t-62.5 -97t-79.5 -88t-98 -58t-123 -24q-265 0 -331 279 q-19 76 -23 181t0 179zM25 1102l153 209q20 27 50 30t57 -18q28 -21 35.5 -50t-11.5 -56l-153 -209q-19 -27 -62 -27q-47 0 -71 42t2 79z" />
<glyph unicode="&#xee;" horiz-adv-x="620" d="M-121 1100l154 209q21 30 61 30q42 0 60 -30l153 -209q17 -26 13 -53t-27 -47.5t-53 -20.5q-43 0 -62 27l-84 114l-84 -114q-19 -27 -61 -27q-47 0 -71.5 42.5t1.5 78.5zM0 641v18q0 32 25 50t61 18q35 -2 55 -20t19 -50v-18v-137t8 -122t22.5 -100.5t42.5 -72.5t68 -37 q106 -23 184 49q66 64 136 219q13 28 45.5 35t62.5 -8q31 -14 41.5 -39.5t-2.5 -54.5q-42 -90 -81.5 -155t-90.5 -114q-106 -100 -242 -100q-265 0 -331 279q-19 76 -23 181t0 179z" />
<glyph unicode="&#xef;" horiz-adv-x="620" d="M-176 1092q1 43 34 72t76 26q44 -1 73.5 -34.5t27.5 -76.5q-3 -43 -36 -72t-77 -28q-43 3 -72 36t-26 77zM0 641v18q0 32 25 50t61 18q35 -2 55 -20t19 -50v-18v-137t8 -122t22.5 -100.5t42.5 -72.5t68 -37q106 -23 184 49q66 64 136 219q13 28 45.5 35t62.5 -8 q31 -14 41.5 -39.5t-2.5 -54.5q-28 -59 -51 -102t-62.5 -97t-79.5 -88t-98 -58t-123 -24q-265 0 -331 279q-19 76 -23 181t0 179zM168 1092q1 43 34.5 72t76.5 26q43 -1 72 -34.5t26 -76.5q-1 -42 -34.5 -72t-76.5 -28q-43 3 -72 36t-26 77z" />
<glyph unicode="&#xf0;" horiz-adv-x="884" d="M0 471q-2 73 12.5 144t45 134t73.5 111.5t102.5 77.5t128.5 31q81 0 160 -29q-44 112 -110 209q-84 -44 -183 -70q-19 -4 -35.5 1t-27 17.5t-18 28t-8 33t3.5 33t16 27.5t30 16q54 14 117 43q-55 55 -123 104q-52 38 -4 103q44 66 96 31q92 -65 170 -152q69 52 109 100 q25 25 53 23t56 -25q26 -23 30 -50.5t-18 -53.5q-62 -68 -129 -121q77 -114 129 -246q64 -161 82.5 -332t-10.5 -329q-28 -160 -127 -246q-108 -90 -248 -84q-172 6 -271.5 138.5t-101.5 332.5zM166 473q0 -33 6 -71.5t21 -81.5t37.5 -77.5t59.5 -58t83 -24.5q90 0 139 46 t74 148q30 127 10 234q-20 122 -75.5 173t-151.5 46q-43 -2 -78.5 -26t-58 -60.5t-38 -81.5t-22 -87t-6.5 -79z" />
<glyph unicode="&#xf1;" horiz-adv-x="1105" d="M0 72q4 299 4 860q0 31 23 47t57 16q36 0 59 -16t23 -47v-84q51 47 115.5 76.5t134.5 27.5q95 0 192 -57q98 -56 133 -201q17 -90 17 -231q4 -167 20 -217q11 -37 29.5 -55.5t52.5 -24.5q29 -6 60.5 11.5t55.5 43.5t52 69.5t43 72.5t35 69q15 29 45 37.5t61 -6.5 q28 -15 35.5 -45.5t-6.5 -59.5q-7 -14 -25 -50.5t-30.5 -61t-34 -58t-43.5 -59.5q-58 -67 -117 -96q-54 -29 -114 -29q-18 0 -50 4q-76 14 -135 70q-47 50 -67 121q-27 86 -27 262q-1 85 -4 129t-19.5 96t-48.5 70q-107 65 -202 12q-67 -39 -108 -123t-46 -168 q0 -58 -1 -192.5t-1 -214.5q-1 -31 -25.5 -49.5t-58.5 -18.5h-2q-34 0 -58 19t-24 51zM63 1235l10 10t10.5 11t10 10.5t11 10.5t11.5 10.5t12.5 10.5t14 10.5t15.5 10.5q70 43 151 31q8 -1 16 -3t16.5 -6t14.5 -6t15 -8t13 -8t13.5 -9.5t12 -9t13 -9.5t11.5 -9 q22 -18 32.5 -26t28 -16t33.5 -9q15 -2 33 10t29 24.5t35 41.5q17 21 39.5 25.5t41 -6t33 -27t15.5 -38.5t-11 -40q-4 -6 -14.5 -20.5t-16 -21.5t-16.5 -20.5t-19 -20.5l-20 -17.5t-24.5 -16t-27.5 -11t-32.5 -8t-37.5 -2.5h-19q-28 2 -53.5 10t-49.5 22.5t-38 24.5t-35 27 q-39 35 -53 37q-38 6 -88 -42l-29 -29q-22 -21 -49 -19.5t-49 23.5q-24 22 -26.5 49t17.5 49z" />
<glyph unicode="&#xf2;" horiz-adv-x="1001" d="M0 539q5 143 62.5 248.5t158.5 150.5q67 33 154 33h20q134 -7 226 -88.5t127 -210.5q16 -4 26 -4q3 0 27.5 -2.5t33 -2.5t34 2t45 7.5t51.5 17.5t67 29q29 15 61.5 4.5t47.5 -39.5t4.5 -61.5t-39.5 -47.5q-139 -71 -266 -71h-6q-36 0 -68 4v-33q-3 -208 -105.5 -339.5 t-287.5 -131.5h-8q-152 3 -242 100q-129 135 -123 435zM162 535q-6 -233 78 -320q46 -49 129 -49h4q107 0 164 74q63 77 69 239q1 48 -4 90t-19 86.5t-37.5 76.5t-64 53.5t-94.5 23.5h-12q-93 0 -150 -66q-60 -75 -63 -208zM205 1331q-19 27 -12 56.5t36 50.5 q26 21 56.5 17.5t48.5 -30.5l153 -208q17 -26 13 -53t-27 -47.5t-53 -20.5q-44 0 -62 26z" />
<glyph unicode="&#xf3;" horiz-adv-x="1001" d="M0 539q5 143 62.5 248.5t158.5 150.5q67 33 154 33h20q134 -7 226 -88.5t127 -210.5q16 -4 26 -4q3 0 27.5 -2.5t33 -2.5t34 2t45 7.5t51.5 17.5t67 29q29 15 61.5 4.5t47.5 -39.5t4.5 -61.5t-39.5 -47.5q-139 -71 -266 -71h-6q-36 0 -68 4v-33q-3 -208 -105.5 -339.5 t-287.5 -131.5h-8q-152 3 -242 100q-129 135 -123 435zM162 535q-6 -233 78 -320q46 -49 129 -49h4q107 0 164 74q63 77 69 239q1 48 -4 90t-19 86.5t-37.5 76.5t-64 53.5t-94.5 23.5h-12q-93 0 -150 -66q-60 -75 -63 -208zM303 1217l154 208q20 27 49.5 30.5t56.5 -17.5 q28 -21 36 -50.5t-11 -56.5l-154 -209q-8 -11 -18 -17t-19.5 -7.5t-23.5 -1.5q-47 0 -71.5 42.5t1.5 78.5z" />
<glyph unicode="&#xf4;" horiz-adv-x="1001" d="M0 539q5 143 62.5 248.5t158.5 150.5q67 33 154 33h20q134 -7 226 -88.5t127 -210.5q16 -4 26 -4q3 0 27.5 -2.5t33 -2.5t34 2t45 7.5t51.5 17.5t67 29q29 15 61.5 4.5t47.5 -39.5t4.5 -61.5t-39.5 -47.5q-139 -71 -266 -71h-6q-36 0 -68 4v-33q-3 -208 -105.5 -339.5 t-287.5 -131.5h-8q-152 3 -242 100q-129 135 -123 435zM162 535q-6 -233 78 -320q46 -49 129 -49h4q107 0 164 74q63 77 69 239q1 48 -4 90t-19 86.5t-37.5 76.5t-64 53.5t-94.5 23.5h-12q-93 0 -150 -66q-60 -75 -63 -208zM172 1217l154 208q22 31 61 31q40 0 59 -31 l154 -208q17 -26 13 -53t-27.5 -47.5t-53.5 -20.5q-22 0 -36 5t-25 21l-84 115l-84 -115q-8 -11 -18 -17t-19.5 -7.5t-23.5 -1.5q-47 0 -71.5 42.5t1.5 78.5z" />
<glyph unicode="&#xf5;" horiz-adv-x="1001" d="M0 539q5 143 62.5 248.5t158.5 150.5q67 33 154 33h20q134 -7 226 -88.5t127 -210.5q16 -4 26 -4q3 0 27.5 -2.5t33 -2.5t34 2t45 7.5t51.5 17.5t67 29q29 15 61.5 4.5t47.5 -39.5t4.5 -61.5t-39.5 -47.5q-139 -71 -266 -71h-6q-36 0 -68 4v-33q-3 -208 -105.5 -339.5 t-287.5 -131.5h-8q-152 3 -242 100q-129 135 -123 435zM82 1137q-19 18 -23.5 38t2.5 37t23 33q41 47 84 74q70 43 151 31q8 -1 16 -3t16.5 -6t14.5 -6t15 -8t13 -8t13.5 -9.5t12 -9t13 -9.5t11.5 -9q21 -17 32.5 -25.5t29 -16.5t33.5 -9q12 -1 23 3t25.5 19t21 22t26.5 32 q17 21 39.5 25.5t41 -6t33.5 -27.5t16 -38.5t-11 -39.5q-4 -5 -15 -20.5t-16 -22t-16 -20t-19 -20.5t-20.5 -17.5t-24.5 -15.5t-27.5 -11t-33 -8.5t-37.5 -2.5h-19q-28 2 -53.5 10t-49.5 22.5t-38 24.5t-35 27q-39 35 -53 37q-38 6 -88 -42l-29 -29q-22 -21 -49 -19.5 t-49 23.5zM162 535q-6 -233 78 -320q46 -49 129 -49h4q107 0 164 74q63 77 69 239q1 48 -4 90t-19 86.5t-37.5 76.5t-64 53.5t-94.5 23.5h-12q-93 0 -150 -66q-60 -75 -63 -208z" />
<glyph unicode="&#xf6;" horiz-adv-x="1001" d="M0 539q5 143 62.5 248.5t158.5 150.5q67 33 154 33h20q134 -7 226 -88.5t127 -210.5q16 -4 26 -4q3 0 27.5 -2.5t33 -2.5t34 2t45 7.5t51.5 17.5t67 29q29 15 61.5 4.5t47.5 -39.5t4.5 -61.5t-39.5 -47.5q-139 -71 -266 -71h-6q-36 0 -68 4v-33q-3 -208 -105.5 -339.5 t-287.5 -131.5h-8q-152 3 -242 100q-129 135 -123 435zM111 1184q1 43 34 72t76 26q29 -1 52.5 -16.5t36.5 -41t12 -53.5q-3 -43 -36 -72t-77 -28q-43 3 -72 36t-26 77zM162 535q-6 -233 78 -320q46 -49 129 -49h4q107 0 164 74q63 77 69 239q1 48 -4 90t-19 86.5 t-37.5 76.5t-64 53.5t-94.5 23.5h-12q-93 0 -150 -66q-60 -75 -63 -208zM455 1184q1 28 16.5 51.5t40.5 36t53 10.5q43 -1 72.5 -34.5t26.5 -76.5q-1 -42 -34.5 -72t-76.5 -28q-43 3 -72 36t-26 77z" />
<glyph unicode="&#xf7;" d="M143 514q0 33 23.5 56.5t56.5 23.5h596q34 0 58 -23t24 -57t-24 -57t-58 -23h-596q-33 0 -56.5 23.5t-23.5 56.5zM416 201q3 44 35.5 73t76.5 27q43 -3 72.5 -36t26.5 -77q-1 -43 -34.5 -72t-76.5 -26q-44 3 -73 35.5t-27 75.5zM416 836q3 43 35.5 72t76.5 26 q43 -1 72.5 -34.5t26.5 -76.5q-1 -42 -34.5 -72t-76.5 -28q-44 3 -73 36t-27 77z" />
<glyph unicode="&#xf8;" horiz-adv-x="1001" d="M0 539q5 143 62.5 248.5t158.5 150.5q67 33 154 33h20q107 -6 189 -60l41 60q19 26 46.5 29.5t55.5 -15.5q29 -21 38.5 -50t-9.5 -56l-60 -86q37 -65 52 -121q16 -4 26 -4q3 0 27.5 -2.5t33 -2.5t34 2t45 7.5t51.5 17.5t67 29q29 15 61.5 4.5t47.5 -39.5t4.5 -61.5 t-39.5 -47.5q-139 -71 -266 -71h-6q-36 0 -68 4v-33q-1 -101 -27 -186t-74.5 -149t-123 -100t-168.5 -36h-8q-103 0 -185 51l-43 -63q-17 -24 -50.5 -25.5t-57.5 15.5q-29 21 -35.5 48t12.5 54l64 92q-73 131 -70 363zM162 535q-3 -120 18 -203l312 448q-47 26 -105 29h-12 q-93 0 -150 -66q-60 -75 -63 -208zM272 186q39 -20 97 -20h4q221 0 233 313q0 94 -18 160z" />
<glyph unicode="&#xf9;" horiz-adv-x="1083" d="M0 653q1 39 2 80.5t2 73t2 56.5t1.5 39.5t0.5 15.5q3 32 29.5 48.5t56.5 15t53.5 -21.5t22.5 -53q-11 -128 -8.5 -331t24.5 -271q27 -77 59.5 -110.5t94.5 -32.5q75 0 139 80q70 82 76 190q4 86 4 481q-1 32 22.5 51t59.5 19q35 0 56.5 -17.5t21.5 -50.5v-415 q0 -54 6 -103.5t21 -104t47.5 -89.5t78.5 -39q34 -3 65 18t57.5 63t46.5 85t42 102q10 29 40.5 39t62.5 -2t45.5 -37t1.5 -55q-53 -151 -113 -236q-53 -68 -106 -100q-59 -39 -131 -39q-17 0 -25 2q-153 13 -233 164q-117 -161 -283 -168h-6q-45 0 -84 11t-66.5 26 t-52.5 41.5t-38.5 45t-28.5 50t-19.5 43.5t-13.5 37q-36 112 -33 399zM168 1331q-19 27 -11.5 56.5t36.5 50.5q26 21 56 17.5t48 -30.5l154 -208q11 -14 13 -31t-3.5 -32.5t-16.5 -28.5t-27 -21t-34 -8q-22 0 -36 5t-25 21z" />
<glyph unicode="&#xfa;" horiz-adv-x="1083" d="M0 653q1 39 2 80.5t2 73t2 56.5t1.5 39.5t0.5 15.5q3 32 29.5 48.5t56.5 15t53.5 -21.5t22.5 -53q-11 -128 -8.5 -331t24.5 -271q27 -77 59.5 -110.5t94.5 -32.5q75 0 139 80q70 82 76 190q4 86 4 481q-1 32 22.5 51t59.5 19q35 0 56.5 -17.5t21.5 -50.5v-415 q0 -54 6 -103.5t21 -104t47.5 -89.5t78.5 -39q34 -3 65 18t57.5 63t46.5 85t42 102q10 29 40.5 39t62.5 -2t45.5 -37t1.5 -55q-53 -151 -113 -236q-53 -68 -106 -100q-59 -39 -131 -39q-17 0 -25 2q-153 13 -233 164q-117 -161 -283 -168h-6q-45 0 -84 11t-66.5 26 t-52.5 41.5t-38.5 45t-28.5 50t-19.5 43.5t-13.5 37q-36 112 -33 399zM305 1217l154 208q20 27 49.5 30.5t56.5 -17.5q28 -21 36 -50.5t-11 -56.5l-154 -209q-11 -16 -25 -21t-36 -5q-47 0 -71.5 42.5t1.5 78.5z" />
<glyph unicode="&#xfb;" horiz-adv-x="1083" d="M0 653q1 39 2 80.5t2 73t2 56.5t1.5 39.5t0.5 15.5q3 32 29.5 48.5t56.5 15t53.5 -21.5t22.5 -53q-11 -128 -8.5 -331t24.5 -271q27 -77 59.5 -110.5t94.5 -32.5q75 0 139 80q70 82 76 190q4 86 4 481q-1 32 22.5 51t59.5 19q35 0 56.5 -17.5t21.5 -50.5v-415 q0 -54 6 -103.5t21 -104t47.5 -89.5t78.5 -39q34 -3 65 18t57.5 63t46.5 85t42 102q10 29 40.5 39t62.5 -2t45.5 -37t1.5 -55q-53 -151 -113 -236q-53 -68 -106 -100q-59 -39 -131 -39q-17 0 -25 2q-153 13 -233 164q-117 -161 -283 -168h-6q-45 0 -84 11t-66.5 26 t-52.5 41.5t-38.5 45t-28.5 50t-19.5 43.5t-13.5 37q-36 112 -33 399zM145 1217l154 208q22 31 61 31q41 0 60 -31l153 -208q11 -14 13.5 -31t-3 -32.5t-16.5 -28.5t-27 -21t-34 -8q-44 0 -62 26l-84 115l-84 -115q-11 -16 -25 -21t-36 -5q-47 0 -71.5 42.5t1.5 78.5z" />
<glyph unicode="&#xfc;" horiz-adv-x="1083" d="M0 653q1 39 2 80.5t2 73t2 56.5t1.5 39.5t0.5 15.5q3 32 29.5 48.5t56.5 15t53.5 -21.5t22.5 -53q-11 -128 -8.5 -331t24.5 -271q27 -77 59.5 -110.5t94.5 -32.5q75 0 139 80q70 82 76 190q4 86 4 481q-1 32 22.5 51t59.5 19q35 0 56.5 -17.5t21.5 -50.5v-415 q0 -54 6 -103.5t21 -104t47.5 -89.5t78.5 -39q34 -3 65 18t57.5 63t46.5 85t42 102q10 29 40.5 39t62.5 -2t45.5 -37t1.5 -55q-53 -151 -113 -236q-53 -68 -106 -100q-59 -39 -131 -39q-17 0 -25 2q-153 13 -233 164q-117 -161 -283 -168h-6q-45 0 -84 11t-66.5 26 t-52.5 41.5t-38.5 45t-28.5 50t-19.5 43.5t-13.5 37q-36 112 -33 399zM84 1184q1 43 34.5 72t76.5 26q44 -1 73 -34.5t27 -76.5q-3 -43 -36 -72t-77 -28q-43 3 -72 36t-26 77zM428 1184q1 43 34.5 72t76.5 26q43 -1 72 -34.5t26 -76.5q-1 -42 -34.5 -72t-76.5 -28 q-43 3 -72 36t-26 77z" />
<glyph unicode="&#xfd;" horiz-adv-x="1009" d="M2 768q0 10 1 30t1 29q0 32 22 53t54 21q35 -2 60 -23.5t24 -54.5v-59q-9 -268 16 -391q37 -180 142 -203q102 -21 151 20q52 39 76 142q18 77 22 205v299q0 33 22.5 53t57.5 20q34 2 57.5 -17.5t24.5 -51.5l1 -22q0 -22 0.5 -53.5t0.5 -69.5t-0.5 -81.5t-1.5 -78.5 q0 -22 1 -97.5t2.5 -187.5t2.5 -195q15 12 19 17q66 59 140.5 173t111.5 193q13 29 42 38t60 -5q30 -16 43 -44t0 -56q-42 -89 -124.5 -217t-164.5 -203q-35 -31 -125 -84v-84q0 -125 -33.5 -242.5t-91.5 -179.5q-61 -70 -147 -70q-103 0 -166 82q-47 61 -60 156t7 156 q15 55 70 108.5t100 80.5t142 79q12 7 18 10v105q-4 -2 -9 -7q-77 -59 -184 -59q-160 0 -244.5 89t-119.5 251q-30 152 -21 426zM309 1217l154 208q20 27 49.5 30.5t56.5 -17.5q28 -21 36 -50.5t-11 -56.5l-154 -209q-8 -11 -18 -17t-19.5 -7.5t-23.5 -1.5q-47 0 -71.5 42.5 t1.5 78.5zM406 -358q-10 -34 -3.5 -88t27.5 -82q18 -21 39 -21q6 0 12 3t12.5 8.5t13 14t12.5 19t11.5 23.5t10.5 28q37 99 41 234q-43 -23 -103 -62q-68 -49 -73 -77z" />
<glyph unicode="&#xfe;" horiz-adv-x="1050" d="M0 1300q0 32 23.5 52t56.5 20q35 0 58 -19.5t24 -52.5l2 -423q175 83 334 43q78 -20 141 -70t104 -125q3 -7 14.5 -31t16.5 -37q6 -2 17 -2q4 0 21 -2.5t23 -2.5t23.5 -0.5t28 1t30.5 5.5t38 10t42.5 16t51.5 23q29 15 61 5.5t47 -38.5t5.5 -61.5t-38.5 -47.5 q-133 -71 -266 -74h-8q-27 0 -45 3v-31q-12 -210 -134 -316t-349 -106q-86 0 -152 10l4 -682q0 -33 -22 -52.5t-56 -19.5q-35 0 -58.5 19.5t-23.5 52.5zM166 690l2 -479q89 -12 158 -13t132 15t103 51q76 61 82 205q2 38 -7 81t-29 87t-58.5 79t-89.5 48q-29 7 -60 7.5 t-57 -4.5t-52.5 -14t-45.5 -18t-37.5 -19.5t-26.5 -16t-14 -9.5z" />
<glyph unicode="&#xff;" horiz-adv-x="1009" d="M2 768q0 10 1 30t1 29q0 32 22 53t54 21q35 -2 60 -23.5t24 -54.5v-59q-9 -268 16 -391q37 -180 142 -203q102 -21 151 20q52 39 76 142q18 77 22 205v299q0 33 22.5 53t57.5 20q34 2 57.5 -17.5t24.5 -51.5l1 -22q0 -22 0.5 -53.5t0.5 -69.5t-0.5 -81.5t-1.5 -78.5 q0 -22 1 -97.5t2.5 -187.5t2.5 -195q15 12 19 17q66 59 140.5 173t111.5 193q13 29 42 38t60 -5q30 -16 43 -44t0 -56q-42 -89 -124.5 -217t-164.5 -203q-35 -31 -125 -84v-84q0 -125 -33.5 -242.5t-91.5 -179.5q-61 -70 -147 -70q-103 0 -166 82q-47 61 -60 156t7 156 q15 55 70 108.5t100 80.5t142 79q12 7 18 10v105q-4 -2 -9 -7q-77 -59 -184 -59q-160 0 -244.5 89t-119.5 251q-30 152 -21 426zM96 1184q1 43 34.5 72t76.5 26q44 -1 73 -34.5t27 -76.5q-3 -43 -35.5 -72t-76.5 -28q-43 3 -72.5 36t-26.5 77zM406 -358q-10 -34 -3.5 -88 t27.5 -82q18 -21 39 -21q17 0 37 26t35 70q37 99 41 234q-43 -23 -103 -62q-68 -49 -73 -77zM440 1184q1 43 34.5 72t76.5 26q43 -1 72 -34.5t26 -76.5q-1 -43 -34 -72.5t-76 -27.5q-43 3 -72.5 36t-26.5 77z" />
<glyph unicode="&#x152;" horiz-adv-x="1488" d="M0 780q0 217 35.5 374.5t116.5 262.5q116 144 303 144q62 0 133.5 -35.5t134.5 -108.5q78 94 205 121q255 54 422 -147q21 -25 16.5 -54t-29.5 -51q-27 -23 -58 -23t-52 25q-15 18 -28.5 31t-32 27.5t-39.5 23t-46 14t-55.5 5t-64.5 -8.5q-41 -9 -73.5 -31t-52 -49.5 t-33 -63t-19 -65.5t-7.5 -63.5t-1.5 -51.5t1.5 -34q5 -58 44 -102t110 -50q49 -4 120 8t115 25q16 5 32 2.5t29.5 -9.5t23.5 -19.5t14 -28.5q5 -22 0 -41.5t-20 -34.5t-36 -22q-78 -24 -123 -35q-46 -15 -81 -30.5t-72.5 -42.5t-60.5 -60.5t-36.5 -84.5t-9.5 -114 q3 -47 22.5 -86t47.5 -62.5t63 -40.5t65 -24t58 -8q45 -3 87 2t90 22.5t88.5 47t79 81.5t65.5 121q12 30 42 40.5t60 -1.5q20 -8 34 -23t18 -34t-3 -41q-67 -173 -202.5 -275t-331.5 -102h-35q-89 6 -174 43.5t-135 95.5q-58 -70 -137 -104q-77 -33 -172 -33q-73 0 -138 27 q-91 36 -155 114q-162 194 -162 637zM162 780q0 -380 125 -534q67 -82 168 -82q25 0 45.5 2.5t45.5 10t45.5 21t42.5 38t40 57.5l2 4q-31 130 6 248t115 196q-55 24 -97 72q-75 81 -84 195q-12 128 23 249q-32 52 -71 86t-65.5 45t-47.5 11q-57 0 -101 -20.5t-73.5 -59 t-49 -82t-34.5 -100.5q-35 -143 -35 -357z" />
<glyph unicode="&#x153;" horiz-adv-x="1261" d="M0 535q5 143 62.5 248.5t158.5 150.5q67 33 154 33h20q141 -9 236 -95q24 27 54.5 49.5t69.5 40t83.5 17t85.5 -22.5q96 -51 112.5 -157t-51.5 -217q-65 -106 -217 -176q-50 -24 -90 -37q18 -85 58 -138t112 -65q141 -25 249.5 46.5t164.5 225.5q11 29 39.5 36t58.5 -5 q33 -13 48.5 -35t4.5 -51q-80 -213 -244 -315q-115 -68 -254 -68q-93 0 -161 24.5t-121 75.5q-100 -100 -260 -100h-8q-152 3 -242 100q-129 135 -123 435zM162 530q-6 -232 78 -319q46 -49 129 -49h4q107 0 164 74q4 2 8 10q-39 105 -35 252q3 123 37 227q-55 74 -160 80 h-12q-93 0 -150 -66q-60 -75 -63 -209zM674 539q129 57 172 127q15 22 23.5 43t11 41t-5.5 36.5t-25 26.5q-4 2 -14 2q-9 0 -21 -4q-28 -8 -59 -40t-51 -81q-23 -62 -31 -151z" />
<glyph unicode="&#x178;" horiz-adv-x="1234" d="M-274 1282q40 106 77 154q89 118 215 100q71 -8 115 -47q45 -42 66 -125q22 -106 30 -510q3 -211 14 -341.5t38 -213.5q26 -78 71.5 -110.5t130.5 -32.5q73 0 132 44.5t96.5 115t64 164t38 184.5t13.5 184q4 209 4 600q0 33 23 53.5t57 20.5t57.5 -20.5t24.5 -53.5 q0 -168 -2 -387q0 -45 17 -893q30 35 36 41q130 145 191 233q45 59 106 23q30 -15 40.5 -44t-5.5 -59q-40 -69 -213 -260q-92 -104 -151 -172q3 -225 6 -282v-10q5 -222 -14 -322q-14 -66 -39.5 -115t-57.5 -75.5t-63 -39.5t-64 -16q-10 -2 -32 -2q-111 0 -197 75.5 t-92 180.5q-6 155 209 440q72 96 182 226q-3 111 -6 237q-59 -102 -150.5 -166.5t-210.5 -64.5q-270 0 -354 252q-33 96 -44.5 229t-16.5 375q-7 386 -27 475q-6 28 -14 37t-31 12q-61 10 -119 -151q-3 -7 -6.5 -17t-5.5 -14q-13 -30 -42 -37t-59 8q-79 35 -38 117z M217 1757q1 43 34.5 72t76.5 26q44 -1 73 -34t27 -76q-3 -43 -36 -72t-77 -28q-43 3 -72 35.5t-26 76.5zM561 1757q1 43 34.5 72t76.5 26q43 -1 72 -34t26 -76q-1 -42 -34.5 -72t-76.5 -28q-43 3 -72 35.5t-26 76.5zM618 -668q3 -47 48.5 -77t93.5 -25q10 1 18 4.5t21.5 14 t25 36.5t19.5 66q17 79 12 282v11q-1 13 -2 48t-2 52q-9 -13 -28.5 -37.5t-28.5 -36.5q-177 -237 -177 -338z" />
<glyph unicode="&#x2c6;" horiz-adv-x="1705" d="M195 1217l153 208q22 31 62 31t59 -31l154 -208q27 -36 2.5 -78.5t-70.5 -42.5q-43 0 -61 26l-84 115l-84 -115q-18 -26 -62 -26q-47 0 -71 42t2 79z" />
<glyph unicode="&#x2dc;" horiz-adv-x="1705" d="M61 1235q4 4 19.5 20t23 23t22.5 19.5t30 21.5q70 43 151 31q8 -1 16 -3t16.5 -6t14.5 -6t15 -8t13 -8t13.5 -9.5t12 -9t13 -9.5t11.5 -9q22 -18 32.5 -26t28 -16t33.5 -9q15 -2 33 10t29 24.5t35 41.5q17 21 39.5 25.5t41 -6t33 -27t15.5 -38.5t-11 -40 q-2 -3 -16.5 -22.5t-18.5 -25t-18.5 -22t-23 -22.5t-24.5 -17.5t-31 -16t-35 -8.5t-42 -4h-18q-36 3 -72.5 18.5t-56 29t-47.5 36.5q-39 35 -53 37q-20 3 -43 -9t-33.5 -22t-40.5 -40q-22 -21 -49 -19.5t-49 23.5q-24 22 -26.5 49t17.5 49z" />
<glyph unicode="&#x2000;" horiz-adv-x="1022" />
<glyph unicode="&#x2001;" horiz-adv-x="2044" />
<glyph unicode="&#x2002;" horiz-adv-x="1022" />
<glyph unicode="&#x2003;" horiz-adv-x="2044" />
<glyph unicode="&#x2004;" horiz-adv-x="681" />
<glyph unicode="&#x2005;" horiz-adv-x="511" />
<glyph unicode="&#x2006;" horiz-adv-x="340" />
<glyph unicode="&#x2007;" horiz-adv-x="340" />
<glyph unicode="&#x2008;" horiz-adv-x="255" />
<glyph unicode="&#x2009;" horiz-adv-x="408" />
<glyph unicode="&#x200a;" horiz-adv-x="113" />
<glyph unicode="&#x2010;" horiz-adv-x="827" d="M215 514q0 33 23.5 56.5t56.5 23.5h356q34 0 58 -23t24 -57t-24 -57t-58 -23h-356q-33 0 -56.5 23.5t-23.5 56.5z" />
<glyph unicode="&#x2011;" horiz-adv-x="827" d="M215 514q0 33 23.5 56.5t56.5 23.5h356q34 0 58 -23t24 -57t-24 -57t-58 -23h-356q-33 0 -56.5 23.5t-23.5 56.5z" />
<glyph unicode="&#x2012;" horiz-adv-x="827" d="M215 514q0 33 23.5 56.5t56.5 23.5h356q34 0 58 -23t24 -57t-24 -57t-58 -23h-356q-33 0 -56.5 23.5t-23.5 56.5z" />
<glyph unicode="&#x2013;" horiz-adv-x="1067" d="M215 514q0 33 23.5 56.5t56.5 23.5h596q34 0 58 -23t24 -57t-24 -57t-58 -23h-596q-33 0 -56.5 23.5t-23.5 56.5z" />
<glyph unicode="&#x2014;" horiz-adv-x="1404" d="M215 514q0 33 23.5 56.5t56.5 23.5h934q34 0 58 -23t24 -57t-24 -57t-58 -23h-934q-33 0 -56.5 23.5t-23.5 56.5z" />
<glyph unicode="&#x2018;" horiz-adv-x="387" d="M27 1147q0 127 20 214t78 185q12 18 25 24.5t36 6.5q45 0 72 -40.5t4 -74.5q-43 -72 -58.5 -137.5t-15.5 -177.5q0 -33 -23.5 -51.5t-58.5 -18.5t-57 18.5t-22 51.5z" />
<glyph unicode="&#x2019;" horiz-adv-x="434" d="M39 1200q43 72 58.5 138t15.5 178q0 33 23.5 51t58.5 18t57 -18t22 -51q0 -127 -20 -214.5t-78 -185.5q-20 -31 -61 -31q-44 0 -71.5 40.5t-4.5 74.5z" />
<glyph unicode="&#x201a;" horiz-adv-x="499" d="M141 -156q43 72 58.5 138t15.5 178q0 33 23.5 51t58.5 18t57.5 -18t22.5 -51q0 -127 -20 -214.5t-78 -185.5q-19 -30 -62 -30q-45 0 -72 40t-4 74z" />
<glyph unicode="&#x201c;" horiz-adv-x="653" d="M27 1161q0 127 20 214.5t78 185.5q19 30 61 30q45 0 72 -40t4 -74q-43 -72 -58.5 -138t-15.5 -178q0 -33 -23.5 -51t-58.5 -18t-57 18t-22 51zM301 1161q0 127 20 214.5t78 185.5q19 30 62 30q45 0 72 -40t4 -74q-43 -72 -58.5 -138t-15.5 -178q0 -33 -23.5 -51 t-58.5 -18t-57.5 18t-22.5 51z" />
<glyph unicode="&#x201d;" horiz-adv-x="708" d="M39 1200q43 72 58.5 138t15.5 178q0 33 23.5 51t58.5 18t57 -18t22 -51q0 -127 -20 -214.5t-78 -185.5q-20 -31 -61 -31q-44 0 -71.5 40.5t-4.5 74.5zM313 1200q43 72 58.5 138t15.5 178q0 33 23.5 51t58.5 18t57.5 -18t22.5 -51q0 -127 -20 -214.5t-78 -185.5 q-20 -31 -62 -31q-44 0 -71.5 40.5t-4.5 74.5z" />
<glyph unicode="&#x201e;" horiz-adv-x="774" d="M141 -156q43 72 58.5 138t15.5 178q0 33 23.5 51t58.5 18t57.5 -18t22.5 -51q0 -127 -20 -214.5t-78 -185.5q-19 -30 -62 -30q-45 0 -72 40t-4 74zM416 -156q43 72 58 137.5t15 178.5q0 33 23.5 51t58.5 18t57.5 -18t22.5 -51q0 -127 -20 -214.5t-78 -185.5 q-19 -30 -61 -30q-45 0 -72 40t-4 74z" />
<glyph unicode="&#x2022;" horiz-adv-x="727" d="M172 768q0 85 59 144t144 59t144 -59t59 -144t-59 -144t-144 -59t-144 59t-59 144z" />
<glyph unicode="&#x2026;" horiz-adv-x="1212" d="M166 113q1 43 34 72t76 26q43 -1 72.5 -34.5t26.5 -76.5q-1 -44 -34.5 -73t-76.5 -27q-43 3 -72 36t-26 77zM522 113q1 43 34.5 72t76.5 26q43 -1 72 -34.5t26 -76.5q-1 -44 -34 -73t-76 -27q-43 3 -72.5 36t-26.5 77zM879 113q1 43 34 72t76 26q43 -1 72 -34.5t26 -76.5 q-1 -44 -34 -73t-76 -27q-43 3 -72 36t-26 77z" />
<glyph unicode="&#x202f;" horiz-adv-x="408" />
<glyph unicode="&#x2039;" horiz-adv-x="696" d="M231 514q0 23 15 41l153 209q20 27 49.5 30t55.5 -18q29 -21 36 -50t-12 -56l-114 -156l114 -156q16 -26 12 -52.5t-27.5 -47t-53.5 -20.5q-44 0 -62 26l-153 209q-13 19 -13 41z" />
<glyph unicode="&#x203a;" horiz-adv-x="696" d="M272 358l115 156l-113 156q-28 37 -2.5 79t72.5 42q43 0 59 -27l154 -209q14 -17 14 -41t-14 -41l-154 -209q-20 -27 -49.5 -30t-56.5 18t-35 50t10 56z" />
<glyph unicode="&#x205f;" horiz-adv-x="511" />
<glyph unicode="&#x20ac;" horiz-adv-x="980" d="M45 360q0 34 19 57t51 23h82v80h-82q-32 0 -51 23t-19 57q0 23 8 41.5t24 29.5t38 11h104q14 55 36 101t55 85t74.5 66.5t96.5 43t119 15.5q40 0 81 -8t81.5 -24t71.5 -39q2 -1 6 -5q15 -12 24 -19t24 -21t22 -24t14 -24.5t5.5 -26.5t-10 -26t-26.5 -26 q-30 -21 -61.5 -18.5t-55.5 28.5q-71 71 -174 71q-89 0 -139.5 -38t-75.5 -111h236q33 0 51 -23.5t18 -58.5q0 -34 -18.5 -57t-50.5 -23h-265v-80h265q32 0 50.5 -23t18.5 -57q0 -35 -18 -58t-51 -23h-238q24 -70 76.5 -105t140.5 -37q128 -2 194 84l3 4q18 23 49 26t55 -13 q28 -18 37.5 -45.5t-6.5 -53.5q-26 -43 -82 -86q-107 -78 -244 -78q-154 0 -256.5 81.5t-134.5 222.5h-102q-33 0 -51.5 23t-18.5 58z" />
</font>
</defs>
</svg>
