<?xml  version="1.0" encoding="UTF-8"?>
<!DOCTYPE svg PUBLIC "-//W3C//DTD SVG 1.0//EN" "http://www.w3.org/TR/2001/REC-SVG-20010904/DTD/svg10.dtd" >
<svg xmlns="http://www.w3.org/2000/svg" >
<metadata>
<version>1.0</version>
<id><![CDATA[Sassoon Sans W01 Bold]]></id>
<vendor>Monotype Imaging Inc.</vendor>
<credits>
<name>Fonts.com WebFonts</name>
<URL>http://webfonts.fonts.com</URL>
<role>Home of the Web fonts</role>
</credits>
<license>
<URL>http://webfonts.fonts.com/Legal</URL>
</license>
<copyright><![CDATA[Copyright 1995 Monotype Imaging, Inc. All rights reserved.]]></copyright>
<trademark><![CDATA[Sassoon is a trademark of A.Williams & R.Sassoon and may be registered in certain jurisdictions]]></trademark>
<licensee>
<name></name>
</licensee>
</metadata>
<defs >
<font horiz-adv-x="536" id="d24896e6-6a3d-49f2-9adc-ba9b1f340eae">
<font-face font-family="" panose-1="2 11 8 3 2 1 3 3 2 3" ascent="699" descent="-301" units-per-em="1000" alphabetic="0">
</font-face>
<missing-glyph horiz-adv-x="0" />

<glyph unicode="&#xA;" />
<glyph unicode="&#xD;" horiz-adv-x="0" />
<glyph unicode=" " horiz-adv-x="311" />
<glyph unicode="!" horiz-adv-x="340" d="M235 699L221 214H116L102 699H235ZM248 60Q248 29 226 8T171 -13Q139 -13 116 9T93 64Q93 96 114 118T166 140Q200 140 224 117T248 60Z"  />
<glyph unicode="&quot;" horiz-adv-x="451" d="M294 636Q301 665 319 681T364 698Q394 698 414 680T434 633Q434 609 422 588L300 369H233L294 636ZM87 629Q94 661 113 679T161 698Q190 698 209 679T229 632Q229 607 217 586L96 369H30L87 629Z"  />
<glyph unicode="#" horiz-adv-x="499" d="M503 495L487 374H413L399 264H473L458 152H384L361 -20H262L284 152H201L178 -20H77L100 152H21L36 264H115L129 374H50L65 495H144L162 635H265L247 495H329L349 635H446L428 495H503ZM314 374H231L216 264H300L314 374Z"  />
<glyph unicode="$" horiz-adv-x="549" d="M318 429Q375 402 414 377T478 323T513 262T524 190Q524 141 507 105T459 44T386 9T294 -3L291 -94H219L222 -4Q187 2 164 6T120 17T78 33T25 58V186Q63 166 86 154T130 135T172 122T228 111L236 282Q179 314 140 341T78 395T44 451T34 517Q34 603 92 655T261 708L265 786H338L333 706Q378 701 419 690T493 662L491 534Q463 548 442 557T402 573T365 582T325 588L318 429ZM248 589Q204 589 186 573T168 531Q168 509 185 490T243 451Q244 483 245 511Q246 534 246 557T248 589ZM304 109Q346 110 368 126T391 173Q391 199 372 220T310 261L304 109Z"  />
<glyph unicode="%" horiz-adv-x="816" d="M342 525Q342 438 303 387T198 335Q132 335 93 385T53 518Q53 606 91 657T195 709Q264 709 303 661T342 525ZM649 698L258 0H161L550 698H649ZM763 178Q763 91 724 40T619 -12Q553 -12 514 38T474 171Q474 259 512 310T616 362Q685 362 724 314T763 178ZM251 525Q251 562 238 582T199 602Q174 602 160 580T145 520Q145 482 158 462T197 442Q222 442 236 463T250 525H251ZM672 178Q672 215 659 235T620 255Q595 255 581 233T566 173Q566 135 579 115T618 95Q643 95 657 116T672 178Z"  />
<glyph unicode="&amp;" horiz-adv-x="779" d="M142 557Q142 629 198 671T352 713Q398 713 436 701T502 666T545 612T561 543Q561 433 423 374L545 244Q577 272 605 306T651 369L748 295Q719 247 686 211T623 151Q647 126 675 100T728 51Q756 25 785 0H600Q595 4 583 15T556 41Q540 56 521 75Q475 40 415 14T279 -13Q226 -13 182 1T107 42T59 106T42 190Q42 230 56 264T94 324T150 370T221 402Q183 436 163 478T142 557ZM422 539Q422 571 402 591T347 611Q318 611 301 595T284 553Q284 533 298 509T345 451Q422 488 422 539ZM443 162Q436 168 414 192T365 244Q335 276 299 315Q264 299 242 286T207 260T189 232T184 197Q184 178 192 161T215 132T248 112T291 105Q374 105 443 162Z"  />
<glyph unicode="&apos;" horiz-adv-x="273" d="M102 635Q109 665 127 681T173 698Q202 698 222 679T243 633Q243 610 231 588L109 368H43L102 635Z"  />
<glyph unicode="(" horiz-adv-x="360" d="M339 -110Q202 -96 133 4T63 295Q63 674 339 700V597Q297 586 269 564T223 506T199 417T191 295Q191 224 198 173T223 85T269 26T339 -7V-110Z"  />
<glyph unicode=")" horiz-adv-x="360" d="M21 700Q158 686 227 586T297 295Q297 -84 21 -110V-7Q63 4 91 26T137 84T161 172T169 295Q169 365 162 417T137 505T91 564T21 597V700Z"  />
<glyph unicode="*" horiz-adv-x="401" d="M37 587L69 640L130 601Q144 593 155 580T181 550Q175 574 173 589T170 625V698H234V626Q234 604 232 588T222 548Q242 565 252 574T274 590L345 630L374 577L301 532Q290 526 276 521T239 510Q256 508 265 504T290 490L362 443L329 389L269 429Q267 430 261 436T247 449T232 465T219 480Q224 463 226 444T229 402V329H164V406Q164 420 166 438T179 481Q171 472 165 466T153 454T140 444T122 433L57 395L27 449L97 490Q110 498 118 502T132 508T144 511T162 514Q135 524 124 529T100 543L37 587Z"  />
<glyph unicode="+" horiz-adv-x="549" d="M547 216H335V-2H209V216H2V328H209V529H335V328H547V216Z"  />
<glyph unicode="&#x2c;" horiz-adv-x="305" d="M68 -106Q103 -73 117 -49T130 5Q130 18 124 28T110 49T96 72T89 101Q89 121 106 134T151 147Q194 147 223 117T252 40Q252 16 248 -5T233 -47T201 -89T148 -136L68 -106Z"  />
<glyph unicode="-" horiz-adv-x="261" d="M244 180H17V275H244V180Z"  />
<glyph unicode="." horiz-adv-x="305" d="M230 59Q230 28 208 7T153 -14Q121 -14 98 8T75 63Q75 95 96 117T149 139Q183 139 206 116T230 59Z"  />
<glyph unicode="/" horiz-adv-x="328" d="M290 687L142 -75H33L182 687H290Z"  />
<glyph unicode="0" horiz-adv-x="549" d="M533 361Q533 163 468 75T275 -14Q147 -14 81 75T15 348Q15 531 80 621T274 711Q533 711 533 361ZM378 358Q378 474 354 524T275 575Q220 575 195 519T170 338Q170 232 193 178T274 123Q378 123 378 358Z"  />
<glyph unicode="1" horiz-adv-x="549" d="M385 0H252V545Q232 522 214 504T174 464L108 554Q138 580 166 606Q190 628 215 653T256 698H385V0Z"  />
<glyph unicode="2" horiz-adv-x="549" d="M503 0H38V80Q69 117 103 153T172 226T237 296T291 366T329 435T343 504Q343 541 317 564T253 588Q226 588 205 577T168 549T141 510T121 467L25 538Q35 561 50 590T93 646T167 691T284 710Q332 710 371 697T439 658T482 598T498 518Q498 477 484 436T448 357T396 283T338 216T280 159T230 115H503V0Z"  />
<glyph unicode="3" horiz-adv-x="549" d="M135 419Q152 417 167 417T196 417Q238 417 265 422T309 439T331 468T337 510Q337 547 310 569T238 592Q201 592 167 575T95 518L39 616Q115 710 270 710Q319 710 358 697T425 660T468 602T483 526Q483 465 454 427T358 360Q427 346 463 302T499 182Q499 139 483 103T437 41T362 1T261 -14Q218 -14 184 -8T119 11T62 45T8 98L74 187Q114 142 155 121T241 100Q290 100 318 125T347 192Q347 216 340 236T313 271T262 294T181 303Q170 303 159 303T135 301V419Z"  />
<glyph unicode="4" horiz-adv-x="549" d="M532 172H453V0H324V172H30V281L262 699H410L180 284H324V450H450V284H532V172Z"  />
<glyph unicode="5" horiz-adv-x="549" d="M196 423Q211 430 222 434T243 442T266 446T293 447Q340 447 379 431T445 384T488 312T504 218Q504 106 438 45T253 -16Q179 -16 118 8T11 81L67 179Q156 98 241 98Q294 98 328 129T362 209Q362 266 334 295T251 325Q222 325 199 314T149 278L63 327L73 698H474V581H201L196 423Z"  />
<glyph unicode="6" horiz-adv-x="549" d="M450 699Q384 639 326 564T224 407Q240 416 253 422T277 431T301 436T328 438Q371 438 406 422T467 377T507 307T522 218Q522 165 505 123T458 50T384 4T286 -12Q230 -12 184 6T106 59T55 140T37 247Q37 310 58 372T114 493T192 604T279 699H450ZM380 214Q380 261 355 288T289 316Q236 316 193 274Q190 258 189 250T188 229Q188 178 216 146T289 113Q330 113 355 141T380 214Z"  />
<glyph unicode="7" horiz-adv-x="549" d="M514 595L246 0H95L357 581H43V699H514V595Z"  />
<glyph unicode="8" horiz-adv-x="549" d="M41 536Q41 621 98 667T276 714Q328 714 370 702T443 668T489 614T506 543Q506 487 477 447T378 369Q455 335 490 288T526 173Q526 85 462 36T282 -14Q223 -14 176 0T94 39T42 99T23 179Q23 244 56 286T169 362Q128 388 103 407T65 446T46 486T41 536ZM364 529Q364 564 338 585T268 607Q230 607 205 587T180 534Q180 479 277 434Q325 451 344 475T364 529ZM384 180Q384 202 376 217T352 245T315 267T266 289Q214 270 193 249T171 193Q171 151 201 128T282 104Q328 104 356 124T384 180Z"  />
<glyph unicode="9" horiz-adv-x="549" d="M173 0Q198 38 218 70T256 136T291 207T328 290Q296 273 276 267T230 261Q190 261 154 277T91 323T47 394T30 484Q30 535 47 576T95 647T171 692T271 708Q383 708 446 647T509 476Q509 431 497 376T461 260T403 133T326 0H173ZM370 489Q370 536 343 563T269 590Q221 590 195 563T169 485Q169 437 195 410T266 383Q313 383 341 411T370 489Z"  />
<glyph unicode=":" horiz-adv-x="305" d="M230 363Q230 331 208 309T154 287Q122 287 99 309T75 364Q75 396 96 418T149 440Q182 440 206 418T230 363ZM230 63Q230 33 208 12T154 -10Q122 -10 99 13T75 68Q75 99 96 121T148 143Q182 143 205 120T229 63H230Z"  />
<glyph unicode=";" horiz-adv-x="305" d="M242 352Q242 320 220 299T166 277Q133 277 110 299T87 355Q87 387 108 408T159 430Q194 430 218 408T242 352ZM58 -106Q92 -74 106 -49T120 5Q120 19 114 31T99 54T85 76T78 101Q78 121 95 134T141 147Q184 147 212 117T241 40Q241 16 237 -5T222 -47T190 -89T138 -136L58 -106Z"  />
<glyph unicode="&lt;" horiz-adv-x="549" d="M544 400L172 272L544 145V31L5 222V320L544 517V400Z"  />
<glyph unicode="=" horiz-adv-x="549" d="M543 319H6V427H543V319ZM543 142H6V250H543V142Z"  />
<glyph unicode="&gt;" horiz-adv-x="549" d="M544 320V222L5 31V145L376 272L5 400V517L544 320Z"  />
<glyph unicode="?" horiz-adv-x="422" d="M31 673Q72 693 109 702T189 711Q239 711 280 696T350 653T395 586T411 499Q411 420 367 372T239 311V214H115V426Q148 423 176 426T226 438T260 462T272 501Q272 539 245 564T175 589Q162 589 149 587T121 581T89 569T48 551L31 673ZM253 60Q253 29 231 8T176 -13Q144 -13 121 9T98 64Q98 96 119 118T172 140Q206 140 229 117T253 60Z"  />
<glyph unicode="@" horiz-adv-x="808" d="M430 493Q450 493 463 490T496 475L498 494H582Q573 431 566 381Q563 360 561 339T556 301T552 273T551 261Q551 224 565 208T611 192Q657 192 685 231T713 333Q713 393 691 443T630 531T538 590T422 611Q358 611 304 589T211 529T149 437T126 322Q126 258 148 204T211 111T306 49T427 27Q458 27 481 29T526 37T568 53T617 80L645 31Q615 10 591 -3T541 -23T485 -33T411 -36Q330 -36 261 -10T140 64T61 174T32 313Q32 390 61 456T143 570T267 646T423 674Q502 674 568 650T682 581T756 477T783 343Q783 297 770 258T732 190T674 145T601 129Q556 129 524 149T478 204Q434 135 358 135Q306 135 274 173T241 272Q241 317 256 357T296 428T356 475T430 493ZM482 416Q467 426 458 429T434 432Q414 432 396 421T365 391T344 347T336 291Q336 256 351 236T393 215Q421 215 441 240T467 305L482 416Z"  />
<glyph unicode="A" horiz-adv-x="711" d="M709 0H541L468 192H232L157 0H2L280 698H438L709 0ZM430 304L349 520L272 304H430Z"  />
<glyph unicode="B" horiz-adv-x="668" d="M86 696Q134 698 180 700T285 702Q424 702 500 662T577 528Q577 477 554 437T466 375Q544 357 584 311T625 188Q625 92 545 43T296 -7Q279 -7 253 -6T198 -4T139 1T86 7V696ZM281 424Q353 424 386 444T419 509Q419 554 380 571T271 588H242V424H281ZM242 118Q259 116 277 116T306 115Q452 115 452 204Q452 306 295 306Q292 306 284 306T268 305T253 305T242 304V118Z"  />
<glyph unicode="C" horiz-adv-x="648" d="M628 106Q583 47 515 16T366 -15Q292 -15 234 9T136 80T75 194T53 345Q53 430 75 498T138 615T239 688T374 714Q455 714 522 686T628 597L555 491Q518 537 479 559T388 582Q303 582 257 522T211 350Q211 236 255 177T385 117Q434 117 475 137T564 208L628 106Z"  />
<glyph unicode="D" horiz-adv-x="759" d="M86 691Q128 693 165 696Q197 698 227 700T272 702Q486 702 588 615T691 350Q691 268 670 203T598 92T462 22T248 -3Q222 -3 203 -3T167 -1T130 1T86 6V691ZM247 120Q261 118 269 117T287 115Q402 115 460 174T518 345Q518 460 461 520T291 580Q282 580 273 580T247 578V120Z"  />
<glyph unicode="E" horiz-adv-x="542" d="M507 0H86V698H507V577H239V419H478V298H239V116H507V0Z"  />
<glyph unicode="F" horiz-adv-x="530" d="M494 586H238V397H463V281H238V0H86V698H494V586Z"  />
<glyph unicode="G" horiz-adv-x="739" d="M716 268H635Q637 254 638 244T639 219Q639 108 570 47T374 -14Q295 -14 235 12T135 87T73 202T52 352Q52 436 76 502T146 616T255 688T398 713Q477 713 536 688T646 606L575 510Q535 554 494 574T402 595Q360 595 326 578T268 530T231 453T217 352Q217 235 259 170T377 104Q432 104 464 135T497 221Q497 229 496 242T493 268H392V376H716V268Z"  />
<glyph unicode="H" horiz-adv-x="769" d="M683 0H526V298H243V0H86V698H243V410H526V698H683V0Z"  />
<glyph unicode="I" horiz-adv-x="297" d="M225 0H72V699H225V0Z"  />
<glyph unicode="J" horiz-adv-x="557" d="M471 195Q471 148 457 110T415 43T347 0T254 -15Q28 -15 28 200Q28 208 28 214T28 238H168Q168 229 168 223T167 212Q167 99 242 99Q284 99 300 128T317 230V699H471V195Z"  />
<glyph unicode="K" horiz-adv-x="685" d="M706 0H505L251 323V0H86V698H251V392L484 698H666L406 371L706 0Z"  />
<glyph unicode="L" horiz-adv-x="616" d="M568 0H99V698H263V112H568V0Z"  />
<glyph unicode="M" horiz-adv-x="931" d="M842 0H681V435L529 176H397L250 412V0H89V698H264L467 351L682 698H842V0Z"  />
<glyph unicode="N" horiz-adv-x="812" d="M724 0H567Q492 105 434 188Q409 223 385 257T343 317T313 360T301 377Q290 391 278 410T255 446Q243 466 230 487Q231 461 233 435Q235 412 236 386T237 336V0H88V698H244L508 317Q528 288 545 265T577 217Q575 241 575 258T574 290T574 320T574 355V698H724V0Z"  />
<glyph unicode="O" horiz-adv-x="807" d="M740 353Q740 178 658 83T404 -13Q242 -13 155 82T68 353Q68 434 90 499T156 612T263 684T408 710Q491 710 553 685T656 613T719 500T740 353ZM404 109Q437 109 466 125T518 171T554 247T567 353Q567 459 524 518T405 578Q367 578 337 562T286 517T253 446T241 353Q241 297 252 252T285 175T337 126T404 109Z"  />
<glyph unicode="P" horiz-adv-x="642" d="M86 696Q125 697 162 699Q193 700 226 701T279 702Q440 702 523 652T606 490Q606 445 589 408T537 345T453 304T337 289Q325 289 316 289T296 289T275 291T247 293V0H86V696ZM247 409Q266 407 276 407T305 407Q369 407 401 427T433 492Q433 513 427 529T405 557T363 574T296 580Q283 580 274 580T247 578V409Z"  />
<glyph unicode="Q" horiz-adv-x="806" d="M518 8Q495 1 479 -3T448 -9T419 -11T385 -12Q317 -12 259 12T159 82T92 196T68 353Q68 438 91 504T157 616T265 686T410 710Q487 710 548 687T651 619T716 507T739 353Q739 167 626 72L712 -27L612 -105L518 8ZM516 190Q537 211 551 255T566 367Q566 411 556 452T526 524T477 573T408 592Q370 592 340 575T287 526T253 450T241 353Q241 300 251 256T281 181T327 131T386 113Q394 113 400 115T418 124L371 178L462 254L516 190Z"  />
<glyph unicode="R" horiz-adv-x="663" d="M656 0H465L248 280V0H87V693Q108 694 140 695T204 698T262 699T300 700Q463 700 536 649T609 498Q609 458 594 426T551 370T483 333T393 319L656 0ZM248 410Q261 409 272 408Q282 407 291 407T304 406Q368 406 405 429T442 494Q442 539 408 562T299 586Q279 586 248 583V410Z"  />
<glyph unicode="S" horiz-adv-x="559" d="M486 531Q460 547 438 557T396 575T357 585T315 588Q270 588 245 570T220 514Q220 488 243 467T320 416Q372 386 409 361T471 309T506 254T517 189Q517 146 503 110T460 46T386 4T276 -11Q250 -11 220 -7T156 5T91 25T30 54L68 173Q137 131 188 117T276 103Q312 103 332 121T353 171Q353 197 336 217T276 260Q217 293 175 322T107 382T69 443T57 510Q57 602 118 654T293 706Q325 706 351 704T402 697T455 681T515 653L486 531Z"  />
<glyph unicode="T" horiz-adv-x="550" d="M537 586H352V0H198V586H13V698H537V586Z"  />
<glyph unicode="U" horiz-adv-x="789" d="M701 300Q701 208 681 148T623 52T527 2T395 -13Q322 -13 265 1T169 51T110 147T90 297V698H251V298Q251 197 288 153T395 109Q464 109 502 154T540 305V698H701V300Z"  />
<glyph unicode="V" horiz-adv-x="726" d="M715 699L415 0H279L11 699H178L355 206L550 699H715Z"  />
<glyph unicode="W" horiz-adv-x="1076" d="M1066 699L829 -3H675L551 415Q546 429 541 447T532 481Q527 499 523 518Q518 497 513 479Q508 462 504 445T494 414L355 -3H212L10 699H176L272 294Q275 280 278 265T285 236Q289 220 292 205L322 300L457 699H606L721 298Q725 284 731 264T742 226Q748 205 755 183Q760 205 764 226Q768 244 772 263T782 296L898 699H1066Z"  />
<glyph unicode="X" horiz-adv-x="680" d="M682 0H498L342 241L180 0H-2L254 353L19 698H198L346 467L501 698H682L437 354L682 0Z"  />
<glyph unicode="Y" horiz-adv-x="640" d="M638 698L398 326V0H237V319L2 698H171L317 435L466 698H638Z"  />
<glyph unicode="Z" horiz-adv-x="597" d="M589 0H3V62L373 586H27V698H589V631L225 112H589V0Z"  />
<glyph unicode="[" horiz-adv-x="320" d="M307 -99H96V699H307V609H207V-9H307V-99Z"  />
<glyph unicode="\" horiz-adv-x="328" d="M337 -77H226L-10 688H99L337 -77Z"  />
<glyph unicode="]" horiz-adv-x="320" d="M13 699H224V-99H13V-9H113V609H13V699Z"  />
<glyph unicode="^" horiz-adv-x="549" d="M539 277H409L271 525L132 277H10L216 622H333L539 277Z"  />
<glyph unicode="_" horiz-adv-x="500" d="M500 -168H0V-83H500V-168Z"  />
<glyph unicode="`" horiz-adv-x="289" d="M222 527H129L-31 652H144L222 527Z"  />
<glyph unicode="a" horiz-adv-x="567" d="M378 59Q353 25 313 8T228 -10Q146 -10 99 44T51 198Q51 319 125 384T334 450Q356 450 374 449T410 446T447 439T489 428V144Q489 121 490 96T493 49Q495 24 497 0H382Q382 7 381 17Q380 25 380 36T378 59ZM362 326Q345 330 331 331T305 332Q251 332 219 297T187 198Q187 156 207 134T260 112Q281 112 299 121T332 146T354 185T362 236V326Z"  />
<glyph unicode="b" horiz-adv-x="567" d="M208 400Q258 453 338 453Q378 453 411 439T468 398T504 336T517 254Q517 194 500 145T450 62T373 8T271 -11Q223 -11 172 0T78 30V698H208V400ZM208 126Q226 116 238 114T273 111Q323 111 350 142T378 229Q378 272 359 296T302 321Q279 321 262 312T232 288T214 252T208 210V126Z"  />
<glyph unicode="c" horiz-adv-x="449" d="M387 303Q372 310 362 315T342 324T321 330T293 332Q243 332 217 301T190 218Q190 165 217 135T298 105Q325 105 350 113T403 140L412 26Q375 7 342 -1T270 -9Q222 -9 182 7T113 52T67 122T51 213Q51 265 65 308T109 383T182 432T284 450Q331 450 360 440T410 418L387 303Z"  />
<glyph unicode="d" horiz-adv-x="577" d="M393 52Q362 17 327 3T248 -11Q204 -11 168 4T107 47T67 113T52 200Q52 255 69 301T116 380T187 432T278 451Q301 451 322 448T371 435V698H499V152Q499 135 500 109T504 59Q506 31 509 0H399Q398 6 397 14Q396 21 395 30T393 52ZM371 321Q352 329 336 331T301 333Q252 333 222 299T191 204Q191 160 213 136T270 111Q291 111 309 118T341 142T363 186T371 255V321Z"  />
<glyph unicode="e" horiz-adv-x="491" d="M419 28Q382 6 347 -3T268 -13Q218 -13 178 2T109 45T66 113T51 203Q51 258 68 303T117 382T193 433T290 451Q364 451 408 415T453 319Q453 285 436 257T388 210T314 179T216 168Q211 168 205 168T189 169Q194 131 217 110T279 89Q346 89 419 133V28ZM320 309Q320 325 308 337T276 349Q246 349 224 325T196 260Q205 258 210 258T224 258Q320 258 320 309Z"  />
<glyph unicode="f" horiz-adv-x="334" d="M97 440Q97 511 108 560T143 640T206 685T301 699Q318 699 330 699T354 696T378 691T405 682L392 579Q381 584 373 587T357 593T341 596T322 597Q297 597 280 590T252 564T236 516T231 440H326V345H231V-39Q231 -175 176 -237T8 -300Q-7 -300 -18 -300T-39 -297T-61 -293T-88 -285L-86 -183Q-61 -188 -43 -190T-7 -193Q50 -193 74 -154T98 -43V345H16V440H97Z"  />
<glyph unicode="g" horiz-adv-x="564" d="M359 31Q329 5 302 -2T240 -10Q197 -10 162 5T103 47T65 112T51 198Q51 256 71 302T130 382T222 432T344 450Q365 450 381 450T412 447T445 442T486 432V-14Q486 -95 470 -149T425 -237T357 -284T272 -299Q229 -299 185 -294T102 -272V-171Q141 -185 178 -192T242 -200Q268 -200 289 -190T326 -158T350 -100T359 -13V31ZM359 320Q342 323 334 324T311 325Q254 325 222 293T190 203Q190 162 211 140T264 118Q282 118 299 122T329 140T351 180T359 252V320Z"  />
<glyph unicode="h" horiz-adv-x="574" d="M497 0H357V258Q357 283 353 298T340 321T322 331T301 334Q284 334 269 324T241 295T221 253T213 201V0H77V698H213V402Q239 429 268 440T336 452Q366 452 395 444T446 419T483 372T497 301V0Z"  />
<glyph unicode="i" horiz-adv-x="289" d="M224 572Q224 541 201 520T146 498Q113 498 90 520T66 574Q66 606 88 628T146 651Q161 651 175 645T200 628T217 603T224 572ZM213 0H77V440H213V0Z"  />
<glyph unicode="j" horiz-adv-x="289" d="M230 572Q230 541 207 520T152 498Q119 498 96 520T72 574Q72 606 94 628T152 651Q167 651 181 645T206 628T223 603T230 572ZM216 440V-30Q216 -104 202 -155T161 -238T92 -284T-3 -299Q-17 -299 -27 -299T-48 -297T-70 -293T-98 -287V-184Q-78 -189 -66 -190T-35 -192Q-1 -192 21 -182T57 -148T75 -86T80 9V440H216Z"  />
<glyph unicode="k" horiz-adv-x="590" d="M563 440L339 260L552 0H376L211 217V0H78V698H211V295L372 440H563Z"  />
<glyph unicode="l" horiz-adv-x="289" d="M213 0H76V698H213V0Z"  />
<glyph unicode="m" horiz-adv-x="862" d="M211 0H78V285Q78 310 77 330T74 369T67 404T56 440H189Q194 425 196 417T202 394Q234 420 272 436T364 453Q402 453 433 439T479 398Q491 411 509 421T548 438T591 449T635 453Q705 453 745 412T785 293V0H652V229Q652 291 634 315T586 339Q571 339 556 332T528 307T507 261T499 189V0H366V229Q366 286 350 312T297 339Q263 339 237 304T211 189V0Z"  />
<glyph unicode="n" horiz-adv-x="578" d="M211 0H78V299Q78 337 72 377T56 440H189Q195 426 197 417T203 391Q235 422 273 437T349 452Q381 452 408 440T456 407T488 354T500 283V0H361V259Q361 286 355 301T339 323T319 332T302 334Q296 334 281 330T251 311T223 267T211 189V0Z"  />
<glyph unicode="o" horiz-adv-x="565" d="M514 221Q514 164 498 121T451 47T378 2T283 -14Q231 -14 189 1T116 47T68 120T51 221Q51 276 67 319T114 392T187 437T283 453Q335 453 377 438T450 394T497 321T514 221ZM379 221Q379 275 353 305T283 335Q238 335 214 305T190 221Q190 165 213 135T283 104Q329 104 354 134T379 221Z"  />
<glyph unicode="p" horiz-adv-x="573" d="M200 393Q232 425 264 439T338 453Q378 453 412 439T470 398T508 334T522 251Q522 194 507 147T464 67T400 15T318 -4Q285 -4 261 2T212 28V-298H79V319Q79 330 78 345T74 376T67 409T58 440H189Q194 429 196 421T200 393ZM206 143Q238 114 283 114Q327 114 355 144T383 229Q383 274 360 299T301 324Q259 324 233 292T206 206V143Z"  />
<glyph unicode="q" horiz-adv-x="559" d="M481 -298H348V44Q320 16 293 4T229 -9Q189 -9 157 5T101 46T65 108T52 189Q52 249 68 298T119 381T205 433T330 452Q376 452 414 446T481 432V-298ZM354 323Q338 327 330 328T309 330Q251 330 221 298T191 209Q191 167 209 142T264 116Q307 116 330 147T354 236V323Z"  />
<glyph unicode="r" horiz-adv-x="387" d="M207 0H78V295Q78 320 78 338T75 373T70 404T60 440H183Q186 428 188 420T192 404T194 388T195 367Q224 412 251 430T315 449Q329 449 338 447T365 437L363 329Q349 332 341 333T323 335Q266 335 237 294T207 173V0Z"  />
<glyph unicode="s" horiz-adv-x="444" d="M373 322Q339 342 305 349T240 357Q217 357 209 349T200 326Q200 309 212 299T261 271Q298 253 324 237T367 203T390 166T398 122Q398 59 355 22T233 -15Q179 -15 130 -5T49 22L66 124Q153 79 218 79Q240 79 249 88T259 110Q259 125 252 134T215 158Q174 176 145 194T97 231T70 273T61 323Q61 386 110 420T238 455Q280 455 313 449T389 423L373 322Z"  />
<glyph unicode="t" horiz-adv-x="381" d="M225 168Q225 122 240 105T285 88Q302 88 321 95T366 117V18Q343 3 314 -5T249 -14Q214 -14 186 -7T136 18T104 63T92 132V345H20V440H92V551H225V440H357V345H225V168Z"  />
<glyph unicode="u" horiz-adv-x="574" d="M363 440H496V141Q496 103 502 63T518 0H385Q379 14 377 23T371 49Q309 -12 230 -12Q198 -12 171 0T123 35T90 88T78 157Q78 199 79 235T82 304T83 370T78 440H217Q220 406 220 375T221 312T219 249T217 181Q217 154 223 139T239 116T259 108T277 106Q283 106 297 110T326 129T352 173T363 251V440Z"  />
<glyph unicode="v" horiz-adv-x="521" d="M501 440L335 55Q327 37 320 24T304 3T284 -8T255 -12Q226 -12 209 1T177 50L20 440H158L232 232Q240 210 246 190T256 156Q261 170 269 190T285 231L364 440H501Z"  />
<glyph unicode="w" horiz-adv-x="804" d="M776 440L631 40Q621 13 605 1T559 -11Q529 -11 513 2T487 44L402 309L313 38Q305 12 288 1T240 -11Q229 -11 219 -10T200 -3T183 13T169 42L28 440H163L221 258Q224 248 227 235T235 208Q239 193 244 176Q246 188 250 201Q253 212 256 224T263 248L319 440H481L541 239Q543 230 546 220T553 199Q557 188 559 176Q562 186 565 197Q570 217 576 235L635 440H776Z"  />
<glyph unicode="x" horiz-adv-x="502" d="M484 0H331L253 140L171 0H18L176 233L39 440H193L259 324L322 440H479L338 229L484 0Z"  />
<glyph unicode="y" horiz-adv-x="559" d="M482 440V-9Q482 -93 468 -149T424 -238T348 -285T238 -299Q206 -299 174 -293T107 -275V-175Q140 -187 169 -194T228 -202Q259 -202 281 -192T318 -159T339 -99T346 -6V44Q292 -10 224 -10Q194 -10 167 2T121 36T90 90T78 162Q78 198 79 231T80 297T80 365T76 440H212Q215 399 215 364T216 298T215 239T214 182Q214 143 227 126T267 108Q302 108 325 136T349 213V440H482Z"  />
<glyph unicode="z" horiz-adv-x="440" d="M412 6Q383 1 337 -1T224 -3Q166 -3 115 -1T26 1V99L235 345H47V440H409V351L182 99H252Q271 99 293 99T336 100T377 102T412 106V6Z"  />
<glyph unicode="{" horiz-adv-x="368" d="M263 18Q263 -14 279 -28T332 -44V-98H310Q226 -98 186 -73T145 12Q145 21 147 39T155 93Q157 110 157 126T158 160Q158 188 154 208T139 241T115 263T79 277V341Q116 350 136 375T157 451Q157 462 157 475T154 502Q148 539 146 553T144 576Q144 607 155 634T185 674Q195 681 206 686T233 694T268 698T316 699H332V643Q294 641 278 626T262 579Q262 571 263 555T268 516Q270 500 271 485T272 455Q272 386 243 353T160 309Q216 294 246 258T276 147Q276 133 275 118T271 89Q267 64 265 45T263 18Z"  />
<glyph unicode="|" horiz-adv-x="182" d="M122 0H60V622H122V0Z"  />
<glyph unicode="}" horiz-adv-x="368" d="M105 583Q105 615 89 629T36 645V699H58Q142 699 182 674T223 589Q223 580 221 562T213 508Q211 491 211 475T210 441Q210 384 229 359T289 324V260Q252 251 232 226T211 150Q211 139 211 126T214 99Q220 62 222 48T225 25Q225 -6 213 -33T183 -73Q163 -87 135 -92T52 -98H36V-42Q74 -40 90 -25T107 22Q107 30 105 46T100 85Q98 101 97 116T96 146Q96 215 125 248T208 292Q152 307 122 343T92 454Q92 468 93 483T97 512Q101 537 103 556T105 583Z"  />
<glyph unicode="~" horiz-adv-x="549" d="M538 449Q537 382 527 343T499 284T456 257T401 251Q360 251 326 268T260 306T201 344T144 362Q112 362 97 339T80 265H11Q12 322 20 361T45 424T88 458T152 469Q179 469 213 451T283 411T351 371T409 353Q437 353 450 375T466 449H538Z"  />
<glyph unicode="&#xA0;" horiz-adv-x="311" />
<glyph unicode="&#xA1;" horiz-adv-x="340" d="M106 -13L119 472H224L238 -13H106ZM93 626Q93 657 115 678T169 699Q201 699 224 677T248 622Q248 590 227 568T174 546Q140 546 117 569T93 626Z"  />
<glyph unicode="&#xA2;" horiz-adv-x="549" d="M488 362Q475 370 466 375T449 384T431 389T410 393L317 94Q330 90 337 89T354 88Q421 88 474 135L476 30Q444 7 409 -3T338 -14Q325 -14 315 -13T286 -9L261 -95L199 -74L223 6Q147 37 111 94T75 241Q75 300 91 350T139 436T217 492T323 512Q334 512 344 512T373 509L397 589L460 567L440 497Q458 492 466 490T488 480V362ZM342 404Q282 400 250 358T217 241Q217 166 257 126L342 404Z"  />
<glyph unicode="&#xA3;" horiz-adv-x="549" d="M137 374Q143 451 155 513T193 620T264 688T380 712Q404 712 423 711T459 705T493 693T530 673L524 534Q513 545 499 555T467 573T433 585T399 590Q364 590 343 575T308 532T289 464T279 374H431V266H263Q256 239 250 220T236 183T217 150T188 112H519V0H19V90Q44 110 62 128T92 166T111 210T123 266H29V374H137Z"  />
<glyph unicode="&#xA4;" horiz-adv-x="612" d="M538 176Q521 159 505 142T471 108L402 176Q376 159 346 151T287 143Q261 143 231 150T173 176L103 108L37 176L107 242Q88 272 81 301T73 354Q73 378 80 407T107 466L37 533L103 601L173 533Q202 551 231 558T287 566Q315 566 345 558T402 533L471 601Q488 584 504 567T538 533L468 466Q488 435 495 406T502 354Q502 330 495 302T468 242L538 176ZM407 355Q407 380 397 401T370 439T332 463T288 472Q263 472 241 463T203 438T178 401T168 355Q168 331 177 310T203 272T241 247T287 237Q312 237 333 246T371 272T397 309T407 355Z"  />
<glyph unicode="&#xA5;" horiz-adv-x="549" d="M560 698L367 381H500V296H349V238H500V153H352V0H207V153H59V238H207V296H59V381H184L-11 698H140L276 453L405 698H560Z"  />
<glyph unicode="&#xA6;" horiz-adv-x="192" d="M132 447H60V685H132V447ZM132 0H60V238H132V0Z"  />
<glyph unicode="&#xA7;" horiz-adv-x="549" d="M376 482Q374 535 353 557T282 579Q246 579 226 564T205 521Q205 504 209 494T226 474T264 457T330 439Q381 426 418 408T478 365T513 307T525 232Q525 112 430 58Q508 4 508 -91Q509 -179 446 -228T270 -277Q213 -277 168 -266T95 -232Q62 -206 42 -162T21 -72Q21 -69 21 -66T22 -57H163Q165 -110 187 -134T253 -159Q338 -159 338 -93Q338 -75 334 -63T317 -42T281 -25T222 -8Q119 17 71 70T22 211Q22 283 48 324T128 383Q90 409 71 444T52 529Q51 617 110 660T284 704Q356 704 408 679T487 604Q494 591 499 579T508 554T512 524T514 484L376 482ZM384 213Q384 256 350 282T262 309Q216 309 190 285T164 218Q164 173 198 147T290 121Q370 121 382 193Q385 204 384 213Z"  />
<glyph unicode="&#xA8;" horiz-adv-x="289" d="M316 567Q316 540 298 521T253 502Q225 502 206 521T186 568Q186 595 206 614T252 634Q280 634 298 615T316 567ZM103 567Q103 540 85 521T40 502Q12 502 -7 521T-27 568Q-27 595 -7 614T39 634Q67 634 84 615T102 567H103Z"  />
<glyph unicode="&#xA9;" horiz-adv-x="720" d="M702 314Q702 242 675 180T602 70T493 -4T360 -31Q289 -31 227 -4T119 71T45 181T18 317Q18 387 45 448T119 556T230 628T365 655Q435 655 496 629T603 556T675 447T702 314ZM655 313Q655 374 632 428T568 522T474 586T358 609Q299 609 246 587T153 525T90 434T66 322Q66 258 89 202T153 103T247 37T362 13Q422 13 475 36T568 100T631 196T654 313H655ZM516 243Q508 180 469 144T369 107Q333 107 303 121T250 162T216 223T204 302Q204 344 216 378T251 437T304 475T373 489Q435 489 472 455T516 357H459Q447 440 375 440Q326 440 296 402T265 301Q265 238 293 199T369 159Q404 159 427 180T460 243H516Z"  />
<glyph unicode="&#xAA;" horiz-adv-x="312" d="M184 708Q208 708 223 705T263 695V539Q263 508 289 508Q294 508 299 509T312 514V468Q285 453 262 453Q213 453 202 492Q188 474 169 464T125 454Q80 454 55 484T30 569Q30 635 70 671T184 708ZM194 639Q184 641 180 642T168 643Q139 643 122 624T105 569Q105 522 143 522Q166 522 180 540T194 590V639Z"  />
<glyph unicode="&#xAB;" horiz-adv-x="493" d="M452 53H337L236 225L332 394H449L357 226L452 53ZM258 53H143L41 225L139 394H255L163 225L258 53Z"  />
<glyph unicode="&#xAC;" horiz-adv-x="549" d="M543 142H435V319H6V427H543V142Z"  />
<glyph unicode="&#xAD;" horiz-adv-x="261" d="M244 180H17V275H244V180Z"  />
<glyph unicode="&#xAE;" horiz-adv-x="444" d="M427 499Q427 459 411 424T368 363T303 321T224 306Q181 306 144 321T78 362T34 422T17 497Q17 539 33 575T78 639T145 682T228 698Q269 698 305 683T369 640T411 577T427 499ZM397 498Q397 534 384 565T347 621T292 658T225 672Q188 672 155 659T98 622T59 569T45 503Q45 468 59 437T97 383T154 347T225 333Q261 333 292 346T346 381T383 434T397 498ZM235 602Q303 602 303 553Q303 516 261 502Q271 498 275 492T283 474T290 445T304 403H269Q262 420 259 436T252 464T242 483T224 491H190V403H159V602H235ZM227 518Q245 518 256 526T268 549Q268 560 260 567T238 575H190V518H227Z"  />
<glyph unicode="&#xAF;" horiz-adv-x="289" d="M293 500H-4V590H293V500Z"  />
<glyph unicode="&#xB0;" horiz-adv-x="372" d="M349 539Q349 505 336 475T301 423T248 387T183 374Q150 374 121 387T70 422T36 473T23 537Q23 571 35 600T70 652T121 687T185 700Q219 700 249 688T301 653T336 602T349 539ZM277 538Q277 557 270 574T251 603T221 623T185 630Q147 630 121 603T94 538Q94 519 101 502T120 473T148 453T184 446Q203 446 220 453T249 472T269 502T277 538Z"  />
<glyph unicode="&#xB1;" horiz-adv-x="549" d="M544 222H335V8H209V222H5V334H209V525H335V334H544V222ZM536 -127H10V-23H536V-127Z"  />
<glyph unicode="&#xB2;" horiz-adv-x="368" d="M349 277H27V332Q91 396 130 436T192 503T220 545T226 578Q224 597 208 610T170 624Q121 624 90 557L18 600Q29 624 43 644T78 678T124 700T186 708Q252 708 295 676T343 590Q346 559 333 529T297 470T242 412T176 356H349V277Z"  />
<glyph unicode="&#xB3;" horiz-adv-x="405" d="M232 585Q232 603 215 614T172 625Q149 625 127 615T77 580L34 647Q83 704 194 704Q259 704 301 676T343 597Q343 559 329 535T271 493Q311 483 334 459T358 393Q358 333 319 300T196 267Q167 267 143 270T98 282T58 303T19 337L67 398Q121 344 178 344Q207 344 225 358T244 396Q244 410 238 421T217 440T174 451T106 452V531Q147 526 172 528T210 537T228 557T232 585Z"  />
<glyph unicode="&#xB4;" horiz-adv-x="289" d="M339 652L195 527H105L167 652H339Z"  />
<glyph unicode="&#xB5;" horiz-adv-x="585" d="M502 440Q501 398 500 348T498 256T497 184T496 152Q497 141 499 131T506 112T521 98T547 92Q556 92 571 95T597 107Q596 87 597 64T597 17Q589 12 575 7T544 -3T511 -11T484 -15Q471 -15 457 -13T429 -3T405 17T387 50Q366 12 338 -1T280 -15Q271 -15 259 -13T234 -7T209 5T188 21Q184 -26 176 -77T150 -170Q112 -168 86 -167T29 -163Q38 -143 46 -106T61 -23T73 74T81 177T86 274T85 357Q85 362 84 372T82 395T80 419T76 440H204Q212 398 213 363T214 297T212 235T212 169Q214 140 229 120T275 99Q312 99 331 123T359 180T367 243T368 286Q368 303 368 318T368 351T369 389T370 440H502Z"  />
<glyph unicode="&#xB6;" horiz-adv-x="549" d="M571 612H511V-291H429V612H328V-291H244V230Q197 230 155 244T81 288T30 360T11 459Q11 575 78 636T286 698H571V612ZM244 612Q101 607 101 464Q101 391 137 352T244 311V612Z"  />
<glyph unicode="&#xB7;" horiz-adv-x="272" d="M210 324Q210 293 189 272T138 251Q107 251 86 272T63 326Q63 356 83 377T131 399Q164 399 187 377T210 324Z"  />
<glyph unicode="&#xB8;" horiz-adv-x="289" d="M179 -57Q214 -57 235 -75T257 -125Q257 -166 223 -188T125 -210Q110 -210 99 -210T77 -207T57 -202T33 -193L41 -134Q58 -142 76 -146T111 -151Q134 -151 148 -142T163 -117Q163 -106 155 -98T135 -90Q132 -90 122 -92L107 -68L120 -2H188L179 -57Z"  />
<glyph unicode="&#xB9;" horiz-adv-x="405" d="M271 272H165V590Q152 579 141 569T113 548L60 613L166 699H271V272Z"  />
<glyph unicode="&#xBA;" horiz-adv-x="311" d="M283 582Q283 519 249 486T156 452Q95 452 62 485T28 582Q28 642 62 675T156 709Q215 709 249 677T283 582ZM207 582Q207 611 193 627T156 643Q131 643 119 627T106 582Q106 552 118 536T156 519Q207 519 207 582Z"  />
<glyph unicode="&#xBB;" horiz-adv-x="493" d="M462 227L375 53H263L340 223L230 394H349L462 227ZM266 227L181 53H69L146 224L36 394H155L266 227Z"  />
<glyph unicode="&#xBC;" horiz-adv-x="862" d="M213 273H109V590Q96 579 85 569T57 548L4 613L110 698H213V273ZM652 698L254 -1H141L536 698H652ZM513 103V177L660 424H774L628 179H704V269H802V179H860V103H805V-1H708V103H513Z"  />
<glyph unicode="&#xBD;" horiz-adv-x="862" d="M209 273H106V588Q93 576 82 566T55 545L2 610L107 697H209V273ZM634 697L236 -2H123L518 697H634ZM854 -2H532V55Q596 119 635 159T695 225T724 267T731 299Q731 318 714 331T675 345Q652 345 631 328T594 278L523 321Q534 345 548 365T582 399T628 421T690 429Q723 429 752 421T802 397T836 360T849 311Q849 280 836 250T800 190T746 133T681 77H854V-2Z"  />
<glyph unicode="&#xBE;" horiz-adv-x="862" d="M212 585Q212 607 196 616T153 625Q130 625 108 615T58 580L14 647Q65 704 174 704Q240 704 281 676T323 597Q323 561 309 536T252 493Q291 483 315 459T339 393Q339 333 299 300T177 267Q147 267 123 270T78 282T38 303T0 337L48 398Q102 344 159 344Q188 344 206 358T225 396Q225 409 218 420T195 439T151 450T82 451V533Q123 528 148 530T188 538T207 557T212 585ZM709 697L312 -3H198L594 697H709ZM517 97V171L664 419H778L633 174H709V263H806V174H861V97H810V-3H712V97H517Z"  />
<glyph unicode="&#xBF;" horiz-adv-x="422" d="M411 25Q370 5 333 -4T253 -13Q203 -13 162 2T92 45T48 112T32 199Q32 278 75 326T203 387V484H327V272Q294 275 266 272T216 260T183 235T171 197Q171 159 198 134T267 109Q280 109 293 111T321 117T353 129T394 147L411 25ZM189 638Q189 669 211 690T266 711Q298 711 321 689T344 634Q344 602 323 580T270 558Q236 558 213 581T189 638Z"  />
<glyph unicode="&#xC0;" horiz-adv-x="711" d="M709 0H541L468 192H232L157 0H2L280 698H438L709 0ZM430 304L349 520L272 304H430ZM433 769H340L180 894H355L433 769Z"  />
<glyph unicode="&#xC1;" horiz-adv-x="711" d="M709 0H541L468 192H232L157 0H2L280 698H438L709 0ZM430 304L349 520L272 304H430ZM550 894L406 769H316L378 894H550Z"  />
<glyph unicode="&#xC2;" horiz-adv-x="711" d="M709 0H541L468 192H232L157 0H2L280 698H438L709 0ZM430 304L349 520L272 304H430ZM541 750H426L354 804L280 750H170L279 877H435L541 750Z"  />
<glyph unicode="&#xC3;" horiz-adv-x="711" d="M709 0H541L468 192H232L157 0H2L280 698H438L709 0ZM430 304L349 520L272 304H430ZM531 925Q531 877 525 844T505 792T472 764T425 755Q398 755 380 763T347 782T317 800T281 809Q241 809 241 752H180Q180 801 185 833T202 884T231 911T275 919Q301 919 320 910T357 891T391 872T428 863Q466 863 469 925H531Z"  />
<glyph unicode="&#xC4;" horiz-adv-x="711" d="M709 0H541L468 192H232L157 0H2L280 698H438L709 0ZM430 304L349 520L272 304H430ZM527 809Q527 782 509 763T464 744Q436 744 417 763T397 810Q397 837 417 856T463 876Q491 876 509 857T527 809ZM314 809Q314 782 296 763T251 744Q223 744 204 763T184 810Q184 837 204 856T250 876Q278 876 295 857T313 809H314Z"  />
<glyph unicode="&#xC5;" horiz-adv-x="711" d="M709 0H541L468 192H232L157 0H2L280 698H438L709 0ZM430 304L349 520L272 304H430ZM457 847Q457 806 429 778T359 750Q338 750 319 758T286 779T264 811T255 851Q255 893 283 922T357 951Q376 951 394 943T426 921T448 887T457 847ZM407 850Q407 871 392 886T357 901Q334 901 319 887T304 851Q304 830 319 815T357 800Q377 800 392 814T407 850Z"  />
<glyph unicode="&#xC6;" horiz-adv-x="1054" d="M1019 586H709L742 390H990V269H759L788 112H1019V0H656L607 269H364L168 0H2L502 698H1019V586ZM590 390L560 576L439 390H590Z"  />
<glyph unicode="&#xC7;" horiz-adv-x="646" d="M632 112Q577 49 518 19T383 -14L375 -59Q422 -60 450 -84T478 -148Q478 -200 433 -229T310 -258Q291 -258 277 -257T249 -254T222 -247T189 -236L201 -161Q253 -183 292 -183Q322 -183 341 -171T360 -138Q360 -124 349 -113T320 -102Q313 -102 301 -105L282 -77L297 -8Q167 18 109 111T51 353Q51 437 73 503T136 616T236 687T370 712Q449 712 508 684T619 592L549 500Q511 544 473 563T384 583Q300 583 255 524T209 358Q209 242 254 180T385 118Q436 118 476 139T565 212L632 112Z"  />
<glyph unicode="&#xC8;" horiz-adv-x="542" d="M507 0H86V698H507V577H239V419H478V298H239V116H507V0ZM359 769H266L106 894H281L359 769Z"  />
<glyph unicode="&#xC9;" horiz-adv-x="542" d="M507 0H86V698H507V577H239V419H478V298H239V116H507V0ZM476 894L332 769H242L304 894H476Z"  />
<glyph unicode="&#xCA;" horiz-adv-x="542" d="M507 0H86V698H507V577H239V419H478V298H239V116H507V0ZM467 750H352L280 804L206 750H96L205 877H361L467 750Z"  />
<glyph unicode="&#xCB;" horiz-adv-x="542" d="M507 0H86V698H507V577H239V419H478V298H239V116H507V0ZM453 809Q453 782 435 763T390 744Q362 744 343 763T323 810Q323 837 343 856T389 876Q417 876 435 857T453 809ZM240 809Q240 782 222 763T177 744Q149 744 130 763T110 810Q110 837 130 856T176 876Q204 876 221 857T239 809H240Z"  />
<glyph unicode="&#xCC;" horiz-adv-x="297" d="M225 0H72V699H225V0ZM214 769H121L-39 894H136L214 769Z"  />
<glyph unicode="&#xCD;" horiz-adv-x="297" d="M225 0H72V699H225V0ZM320 894L176 769H86L148 894H320Z"  />
<glyph unicode="&#xCE;" horiz-adv-x="297" d="M225 0H72V699H225V0ZM335 750H220L148 804L74 750H-36L73 877H229L335 750Z"  />
<glyph unicode="&#xCF;" horiz-adv-x="297" d="M225 0H72V699H225V0ZM320 809Q320 782 302 763T257 744Q229 744 210 763T190 810Q190 837 210 856T256 876Q284 876 302 857T320 809ZM107 809Q107 782 89 763T44 744Q16 744 -3 763T-23 810Q-23 837 -3 856T43 876Q71 876 88 857T106 809H107Z"  />
<glyph unicode="&#xD0;" horiz-adv-x="759" d="M92 691Q134 693 171 696Q203 698 233 700T278 702Q493 702 596 615T699 350Q699 268 678 203T605 92T468 22T254 -3Q228 -3 209 -3T173 -1T136 1T92 6V313H36V388H92V691ZM253 120Q267 118 275 117T293 115Q408 115 467 174T526 345Q526 460 468 520T297 580Q288 580 279 580T253 578V388H361V313H253V120Z"  />
<glyph unicode="&#xD1;" horiz-adv-x="812" d="M724 0H567Q492 105 434 188Q409 223 385 257T343 317T313 360T301 377Q290 391 278 410T255 446Q243 466 230 487Q231 461 233 435Q235 412 236 386T237 336V0H88V698H244L508 317Q528 288 545 265T577 217Q575 241 575 258T574 290T574 320T574 355V698H724V0ZM581 925Q581 877 575 844T555 792T522 764T475 755Q448 755 430 763T397 782T367 800T331 809Q291 809 291 752H230Q230 801 235 833T252 884T281 911T325 919Q351 919 370 910T407 891T441 872T478 863Q516 863 519 925H581Z"  />
<glyph unicode="&#xD2;" horiz-adv-x="807" d="M740 353Q740 178 658 83T404 -13Q242 -13 155 82T68 353Q68 434 90 499T156 612T263 684T408 710Q491 710 553 685T656 613T719 500T740 353ZM404 109Q437 109 466 125T518 171T554 247T567 353Q567 459 524 518T405 578Q367 578 337 562T286 517T253 446T241 353Q241 297 252 252T285 175T337 126T404 109ZM481 769H388L228 894H403L481 769Z"  />
<glyph unicode="&#xD3;" horiz-adv-x="807" d="M740 353Q740 178 658 83T404 -13Q242 -13 155 82T68 353Q68 434 90 499T156 612T263 684T408 710Q491 710 553 685T656 613T719 500T740 353ZM404 109Q437 109 466 125T518 171T554 247T567 353Q567 459 524 518T405 578Q367 578 337 562T286 517T253 446T241 353Q241 297 252 252T285 175T337 126T404 109ZM598 894L454 769H364L426 894H598Z"  />
<glyph unicode="&#xD4;" horiz-adv-x="807" d="M740 353Q740 178 658 83T404 -13Q242 -13 155 82T68 353Q68 434 90 499T156 612T263 684T408 710Q491 710 553 685T656 613T719 500T740 353ZM404 109Q437 109 466 125T518 171T554 247T567 353Q567 459 524 518T405 578Q367 578 337 562T286 517T253 446T241 353Q241 297 252 252T285 175T337 126T404 109ZM589 750H474L402 804L328 750H218L327 877H483L589 750Z"  />
<glyph unicode="&#xD5;" horiz-adv-x="807" d="M740 353Q740 178 658 83T404 -13Q242 -13 155 82T68 353Q68 434 90 499T156 612T263 684T408 710Q491 710 553 685T656 613T719 500T740 353ZM404 109Q437 109 466 125T518 171T554 247T567 353Q567 459 524 518T405 578Q367 578 337 562T286 517T253 446T241 353Q241 297 252 252T285 175T337 126T404 109ZM579 925Q579 877 573 844T553 792T520 764T473 755Q446 755 428 763T395 782T365 800T329 809Q289 809 289 752H228Q228 801 233 833T250 884T279 911T323 919Q349 919 368 910T405 891T439 872T476 863Q514 863 517 925H579Z"  />
<glyph unicode="&#xD6;" horiz-adv-x="807" d="M740 353Q740 178 658 83T404 -13Q242 -13 155 82T68 353Q68 434 90 499T156 612T263 684T408 710Q491 710 553 685T656 613T719 500T740 353ZM404 109Q437 109 466 125T518 171T554 247T567 353Q567 459 524 518T405 578Q367 578 337 562T286 517T253 446T241 353Q241 297 252 252T285 175T337 126T404 109ZM575 809Q575 782 557 763T512 744Q484 744 465 763T445 810Q445 837 465 856T511 876Q539 876 557 857T575 809ZM362 809Q362 782 344 763T299 744Q271 744 252 763T232 810Q232 837 252 856T298 876Q326 876 343 857T361 809H362Z"  />
<glyph unicode="&#xD7;" horiz-adv-x="549" d="M518 108L433 21L275 178L120 21L31 111L186 268L35 418L121 506L273 354L423 504L512 415L362 264L518 108Z"  />
<glyph unicode="&#xD8;" horiz-adv-x="802" d="M775 691L670 583Q703 534 717 484T732 364Q732 277 709 208T641 89T534 14T392 -12Q356 -12 330 -10T282 0T237 21T186 57L84 -44L27 12L129 116Q93 164 78 213T63 334Q63 419 88 489T158 608T269 684T414 711Q477 711 524 695T614 641L713 741L775 691ZM500 516Q456 564 395 564Q359 564 330 548T280 503T248 432T236 341Q236 315 239 296T252 248L500 516ZM295 178Q342 131 405 131Q476 131 516 186T556 340Q556 368 554 391T543 446L295 178Z"  />
<glyph unicode="&#xD9;" horiz-adv-x="789" d="M701 300Q701 208 681 148T623 52T527 2T395 -13Q322 -13 265 1T169 51T110 147T90 297V698H251V298Q251 197 288 153T395 109Q464 109 502 154T540 305V698H701V300ZM472 769H379L219 894H394L472 769Z"  />
<glyph unicode="&#xDA;" horiz-adv-x="789" d="M701 300Q701 208 681 148T623 52T527 2T395 -13Q322 -13 265 1T169 51T110 147T90 297V698H251V298Q251 197 288 153T395 109Q464 109 502 154T540 305V698H701V300ZM589 894L445 769H355L417 894H589Z"  />
<glyph unicode="&#xDB;" horiz-adv-x="789" d="M701 300Q701 208 681 148T623 52T527 2T395 -13Q322 -13 265 1T169 51T110 147T90 297V698H251V298Q251 197 288 153T395 109Q464 109 502 154T540 305V698H701V300ZM580 750H465L393 804L319 750H209L318 877H474L580 750Z"  />
<glyph unicode="&#xDC;" horiz-adv-x="789" d="M701 300Q701 208 681 148T623 52T527 2T395 -13Q322 -13 265 1T169 51T110 147T90 297V698H251V298Q251 197 288 153T395 109Q464 109 502 154T540 305V698H701V300ZM566 809Q566 782 548 763T503 744Q475 744 456 763T436 810Q436 837 456 856T502 876Q530 876 548 857T566 809ZM353 809Q353 782 335 763T290 744Q262 744 243 763T223 810Q223 837 243 856T289 876Q317 876 334 857T352 809H353Z"  />
<glyph unicode="&#xDD;" horiz-adv-x="640" d="M638 698L398 326V0H237V319L2 698H171L317 435L466 698H638ZM514 894L370 769H280L342 894H514Z"  />
<glyph unicode="&#xDE;" horiz-adv-x="642" d="M246 598Q263 598 277 599Q289 600 299 600T312 601Q392 601 448 589T540 551T592 485T609 390Q609 345 592 308T540 245T456 204T340 189Q328 189 319 189T299 189T278 191T250 193V0H89V698H144H246V598ZM250 309Q269 307 279 307T308 307Q372 307 404 327T436 392Q436 413 430 429T408 457T366 474T299 480Q286 480 277 480T250 478V309Z"  />
<glyph unicode="&#xDF;" horiz-adv-x="582" d="M392 358Q392 348 395 340T406 322T429 303T465 277Q557 216 557 129Q557 62 512 25T384 -12Q365 -12 351 -11T322 -7T292 0T256 13L285 114Q308 105 324 102T358 98Q415 98 415 139Q415 149 413 156T404 170T385 186T351 207Q310 230 292 263T274 345Q274 387 289 413T336 457Q339 468 340 474T341 492Q341 527 324 548T278 570Q257 570 245 559T226 529T218 482T218 420Q226 248 224 122Q223 -3 203 -74T149 -180T72 -223T-16 -232Q-37 -232 -48 -230T-80 -223V-123Q-58 -128 -47 -129T-21 -130Q16 -130 40 -123T78 -89T97 -12T103 122Q103 140 102 177T99 252Q97 296 96 345H16V440H94Q94 560 136 626T277 692Q366 692 412 643T459 499Q459 482 459 471T457 451T452 434T444 413Q428 407 418 401T402 389T394 376T392 358Z"  />
<glyph unicode="&#xE0;" horiz-adv-x="567" d="M378 59Q353 25 313 8T228 -10Q146 -10 99 44T51 198Q51 319 125 384T334 450Q356 450 374 449T410 446T447 439T489 428V144Q489 121 490 96T493 49Q495 24 497 0H382Q382 7 381 17Q380 25 380 36T378 59ZM362 326Q345 330 331 331T305 332Q251 332 219 297T187 198Q187 156 207 134T260 112Q281 112 299 121T332 146T354 185T362 236V326ZM371 527H278L118 652H293L371 527Z"  />
<glyph unicode="&#xE1;" horiz-adv-x="567" d="M378 59Q353 25 313 8T228 -10Q146 -10 99 44T51 198Q51 319 125 384T334 450Q356 450 374 449T410 446T447 439T489 428V144Q489 121 490 96T493 49Q495 24 497 0H382Q382 7 381 17Q380 25 380 36T378 59ZM362 326Q345 330 331 331T305 332Q251 332 219 297T187 198Q187 156 207 134T260 112Q281 112 299 121T332 146T354 185T362 236V326ZM488 652L344 527H254L316 652H488Z"  />
<glyph unicode="&#xE2;" horiz-adv-x="567" d="M378 59Q353 25 313 8T228 -10Q146 -10 99 44T51 198Q51 319 125 384T334 450Q356 450 374 449T410 446T447 439T489 428V144Q489 121 490 96T493 49Q495 24 497 0H382Q382 7 381 17Q380 25 380 36T378 59ZM362 326Q345 330 331 331T305 332Q251 332 219 297T187 198Q187 156 207 134T260 112Q281 112 299 121T332 146T354 185T362 236V326ZM479 508H364L292 562L218 508H108L217 635H373L479 508Z"  />
<glyph unicode="&#xE3;" horiz-adv-x="567" d="M378 59Q353 25 313 8T228 -10Q146 -10 99 44T51 198Q51 319 125 384T334 450Q356 450 374 449T410 446T447 439T489 428V144Q489 121 490 96T493 49Q495 24 497 0H382Q382 7 381 17Q380 25 380 36T378 59ZM362 326Q345 330 331 331T305 332Q251 332 219 297T187 198Q187 156 207 134T260 112Q281 112 299 121T332 146T354 185T362 236V326ZM469 683Q469 635 463 602T443 550T410 522T363 513Q336 513 318 521T285 540T255 558T219 567Q179 567 179 510H118Q118 559 123 591T140 642T169 669T213 677Q239 677 258 668T295 649T329 630T366 621Q404 621 407 683H469Z"  />
<glyph unicode="&#xE4;" horiz-adv-x="567" d="M378 59Q353 25 313 8T228 -10Q146 -10 99 44T51 198Q51 319 125 384T334 450Q356 450 374 449T410 446T447 439T489 428V144Q489 121 490 96T493 49Q495 24 497 0H382Q382 7 381 17Q380 25 380 36T378 59ZM362 326Q345 330 331 331T305 332Q251 332 219 297T187 198Q187 156 207 134T260 112Q281 112 299 121T332 146T354 185T362 236V326ZM465 567Q465 540 447 521T402 502Q374 502 355 521T335 568Q335 595 355 614T401 634Q429 634 447 615T465 567ZM252 567Q252 540 234 521T189 502Q161 502 142 521T122 568Q122 595 142 614T188 634Q216 634 233 615T251 567H252Z"  />
<glyph unicode="&#xE5;" horiz-adv-x="567" d="M378 59Q353 25 313 8T228 -10Q146 -10 99 44T51 198Q51 319 125 384T334 450Q356 450 374 449T410 446T447 439T489 428V144Q489 121 490 96T493 49Q495 24 497 0H382Q382 7 381 17Q380 25 380 36T378 59ZM362 326Q345 330 331 331T305 332Q251 332 219 297T187 198Q187 156 207 134T260 112Q281 112 299 121T332 146T354 185T362 236V326ZM395 605Q395 564 367 536T297 508Q276 508 257 516T224 537T202 569T193 609Q193 651 221 680T295 709Q314 709 332 701T364 679T386 645T395 605ZM345 608Q345 629 330 644T295 659Q272 659 257 645T242 609Q242 588 257 573T295 558Q315 558 330 572T345 608Z"  />
<glyph unicode="&#xE6;" horiz-adv-x="805" d="M449 373Q456 385 470 399T504 424T549 444T603 452Q638 452 668 443T720 416T754 375T767 324Q767 285 752 255T705 204T623 176T501 173Q506 134 531 111T596 88Q661 88 737 137L743 32Q701 7 665 -3T584 -14Q515 -14 472 10T405 86Q374 36 335 14T239 -9Q153 -9 102 46T51 198Q51 256 70 303T125 383T211 433T323 451Q354 451 384 446T452 429Q450 414 450 404T449 373ZM640 318Q640 334 626 345T591 357Q573 357 556 350T527 329T506 299T497 262Q506 261 510 261T520 260Q577 260 608 275T640 318ZM356 319Q338 323 329 324T306 326Q254 326 221 294T187 205Q187 163 207 141T260 119Q305 119 330 156T356 259V319Z"  />
<glyph unicode="&#xE7;" horiz-adv-x="449" d="M417 26Q395 15 380 9T350 -2T322 -7T288 -10L282 -44Q317 -44 338 -62T360 -112Q360 -153 326 -175T227 -197Q212 -197 201 -197T180 -194T159 -189T135 -180L143 -121Q179 -138 213 -138Q237 -138 251 -129T265 -104Q265 -93 257 -85T238 -77Q235 -77 232 -77T224 -79L209 -55L219 -3Q52 33 52 219Q52 271 66 313T110 386T182 433T281 450Q328 450 356 441T408 418L387 303Q372 310 361 315T339 323T317 327T293 328Q243 328 217 300T191 220Q191 166 220 137T303 107Q330 107 354 114T406 140L417 26Z"  />
<glyph unicode="&#xE8;" horiz-adv-x="491" d="M419 28Q382 6 347 -3T268 -13Q218 -13 178 2T109 45T66 113T51 203Q51 258 68 303T117 382T193 433T290 451Q364 451 408 415T453 319Q453 285 436 257T388 210T314 179T216 168Q211 168 205 168T189 169Q194 131 217 110T279 89Q346 89 419 133V28ZM320 309Q320 325 308 337T276 349Q246 349 224 325T196 260Q205 258 210 258T224 258Q320 258 320 309ZM333 527H240L80 652H255L333 527Z"  />
<glyph unicode="&#xE9;" horiz-adv-x="491" d="M419 28Q382 6 347 -3T268 -13Q218 -13 178 2T109 45T66 113T51 203Q51 258 68 303T117 382T193 433T290 451Q364 451 408 415T453 319Q453 285 436 257T388 210T314 179T216 168Q211 168 205 168T189 169Q194 131 217 110T279 89Q346 89 419 133V28ZM320 309Q320 325 308 337T276 349Q246 349 224 325T196 260Q205 258 210 258T224 258Q320 258 320 309ZM450 652L306 527H216L278 652H450Z"  />
<glyph unicode="&#xEA;" horiz-adv-x="491" d="M419 28Q382 6 347 -3T268 -13Q218 -13 178 2T109 45T66 113T51 203Q51 258 68 303T117 382T193 433T290 451Q364 451 408 415T453 319Q453 285 436 257T388 210T314 179T216 168Q211 168 205 168T189 169Q194 131 217 110T279 89Q346 89 419 133V28ZM320 309Q320 325 308 337T276 349Q246 349 224 325T196 260Q205 258 210 258T224 258Q320 258 320 309ZM441 508H326L254 562L180 508H70L179 635H335L441 508Z"  />
<glyph unicode="&#xEB;" horiz-adv-x="491" d="M419 28Q382 6 347 -3T268 -13Q218 -13 178 2T109 45T66 113T51 203Q51 258 68 303T117 382T193 433T290 451Q364 451 408 415T453 319Q453 285 436 257T388 210T314 179T216 168Q211 168 205 168T189 169Q194 131 217 110T279 89Q346 89 419 133V28ZM320 309Q320 325 308 337T276 349Q246 349 224 325T196 260Q205 258 210 258T224 258Q320 258 320 309ZM427 567Q427 540 409 521T364 502Q336 502 317 521T297 568Q297 595 317 614T363 634Q391 634 409 615T427 567ZM214 567Q214 540 196 521T151 502Q123 502 104 521T84 568Q84 595 104 614T150 634Q178 634 195 615T213 567H214Z"  />
<glyph unicode="&#xEC;" horiz-adv-x="289" d="M211 0H78V440H211V0ZM199 527H106L-54 652H121L199 527Z"  />
<glyph unicode="&#xED;" horiz-adv-x="289" d="M211 0H78V440H211V0ZM325 652L181 527H91L153 652H325Z"  />
<glyph unicode="&#xEE;" horiz-adv-x="289" d="M211 0H78V440H211V0ZM332 508H217L145 562L71 508H-39L70 635H226L332 508Z"  />
<glyph unicode="&#xEF;" horiz-adv-x="289" d="M211 0H78V440H211V0ZM316 567Q316 540 298 521T253 502Q225 502 206 521T186 568Q186 595 206 614T252 634Q280 634 298 615T316 567ZM103 567Q103 540 85 521T40 502Q12 502 -7 521T-27 568Q-27 595 -7 614T39 634Q67 634 84 615T102 567H103Z"  />
<glyph unicode="&#xF0;" horiz-adv-x="565" d="M392 588Q458 534 488 454T519 255Q519 127 457 58T283 -11Q229 -11 185 5T111 50T64 121T47 215Q47 265 63 307T107 380T175 428T261 445Q279 445 292 444T316 439T339 429T365 413Q352 451 336 478T295 525L220 476L208 539L239 559Q225 566 209 572T173 584L203 680Q242 669 276 655T339 624L448 696L461 633L392 588ZM380 215Q380 269 355 298T280 327Q234 327 209 298T183 213Q183 161 209 132T282 103Q327 103 353 133T380 215Z"  />
<glyph unicode="&#xF1;" horiz-adv-x="578" d="M211 0H78V299Q78 337 72 377T56 440H189Q195 426 197 417T203 391Q235 422 273 437T349 452Q381 452 408 440T456 407T488 354T500 283V0H361V259Q361 286 355 301T339 323T319 332T302 334Q296 334 281 330T251 311T223 267T211 189V0ZM465 683Q465 635 459 602T439 550T406 522T359 513Q332 513 314 521T281 540T251 558T215 567Q175 567 175 510H114Q114 559 119 591T136 642T165 669T209 677Q235 677 254 668T291 649T325 630T362 621Q400 621 403 683H465Z"  />
<glyph unicode="&#xF2;" horiz-adv-x="565" d="M514 221Q514 164 498 121T451 47T378 2T283 -14Q231 -14 189 1T116 47T68 120T51 221Q51 276 67 319T114 392T187 437T283 453Q335 453 377 438T450 394T497 321T514 221ZM379 221Q379 275 353 305T283 335Q238 335 214 305T190 221Q190 165 213 135T283 104Q329 104 354 134T379 221ZM359 527H266L106 652H281L359 527Z"  />
<glyph unicode="&#xF3;" horiz-adv-x="565" d="M514 221Q514 164 498 121T451 47T378 2T283 -14Q231 -14 189 1T116 47T68 120T51 221Q51 276 67 319T114 392T187 437T283 453Q335 453 377 438T450 394T497 321T514 221ZM379 221Q379 275 353 305T283 335Q238 335 214 305T190 221Q190 165 213 135T283 104Q329 104 354 134T379 221ZM476 652L332 527H242L304 652H476Z"  />
<glyph unicode="&#xF4;" horiz-adv-x="565" d="M514 221Q514 164 498 121T451 47T378 2T283 -14Q231 -14 189 1T116 47T68 120T51 221Q51 276 67 319T114 392T187 437T283 453Q335 453 377 438T450 394T497 321T514 221ZM379 221Q379 275 353 305T283 335Q238 335 214 305T190 221Q190 165 213 135T283 104Q329 104 354 134T379 221ZM467 508H352L280 562L206 508H96L205 635H361L467 508Z"  />
<glyph unicode="&#xF5;" horiz-adv-x="565" d="M514 221Q514 164 498 121T451 47T378 2T283 -14Q231 -14 189 1T116 47T68 120T51 221Q51 276 67 319T114 392T187 437T283 453Q335 453 377 438T450 394T497 321T514 221ZM379 221Q379 275 353 305T283 335Q238 335 214 305T190 221Q190 165 213 135T283 104Q329 104 354 134T379 221ZM457 683Q457 635 451 602T431 550T398 522T351 513Q324 513 306 521T273 540T243 558T207 567Q167 567 167 510H106Q106 559 111 591T128 642T157 669T201 677Q227 677 246 668T283 649T317 630T354 621Q392 621 395 683H457Z"  />
<glyph unicode="&#xF6;" horiz-adv-x="565" d="M514 221Q514 164 498 121T451 47T378 2T283 -14Q231 -14 189 1T116 47T68 120T51 221Q51 276 67 319T114 392T187 437T283 453Q335 453 377 438T450 394T497 321T514 221ZM379 221Q379 275 353 305T283 335Q238 335 214 305T190 221Q190 165 213 135T283 104Q329 104 354 134T379 221ZM453 567Q453 540 435 521T390 502Q362 502 343 521T323 568Q323 595 343 614T389 634Q417 634 435 615T453 567ZM240 567Q240 540 222 521T177 502Q149 502 130 521T110 568Q110 595 130 614T176 634Q204 634 221 615T239 567H240Z"  />
<glyph unicode="&#xF7;" horiz-adv-x="549" d="M351 431Q351 403 332 385T284 366Q255 366 234 386T212 435Q212 464 232 483T280 503Q311 503 331 482T351 431ZM543 206H6V314H543V206ZM351 89Q351 61 332 43T284 24Q255 24 234 44T212 93Q212 122 232 141T280 161Q311 161 331 140T351 89Z"  />
<glyph unicode="&#xF8;" horiz-adv-x="578" d="M543 427L478 363Q500 330 510 298T520 223Q520 112 461 49T295 -14Q249 -14 212 -2T148 33L83 -31L35 9L103 76Q83 101 73 138T62 222Q62 275 77 317T122 390T193 436T286 452Q330 452 365 441T434 407L497 468L543 427ZM347 318Q341 323 329 332T291 341Q246 341 219 314T192 232Q192 213 193 200T199 172L347 318ZM233 120Q241 113 253 105T290 96Q334 96 363 124T392 204Q392 244 382 268L233 120Z"  />
<glyph unicode="&#xF9;" horiz-adv-x="574" d="M363 440H496V141Q496 103 502 63T518 0H385Q379 14 377 23T371 49Q309 -12 230 -12Q198 -12 171 0T123 35T90 88T78 157Q78 199 79 235T82 304T83 370T78 440H217Q220 406 220 375T221 312T219 249T217 181Q217 154 223 139T239 116T259 108T277 106Q283 106 297 110T326 129T352 173T363 251V440ZM364 527H271L111 652H286L364 527Z"  />
<glyph unicode="&#xFA;" horiz-adv-x="574" d="M363 440H496V141Q496 103 502 63T518 0H385Q379 14 377 23T371 49Q309 -12 230 -12Q198 -12 171 0T123 35T90 88T78 157Q78 199 79 235T82 304T83 370T78 440H217Q220 406 220 375T221 312T219 249T217 181Q217 154 223 139T239 116T259 108T277 106Q283 106 297 110T326 129T352 173T363 251V440ZM481 652L337 527H247L309 652H481Z"  />
<glyph unicode="&#xFB;" horiz-adv-x="574" d="M363 440H496V141Q496 103 502 63T518 0H385Q379 14 377 23T371 49Q309 -12 230 -12Q198 -12 171 0T123 35T90 88T78 157Q78 199 79 235T82 304T83 370T78 440H217Q220 406 220 375T221 312T219 249T217 181Q217 154 223 139T239 116T259 108T277 106Q283 106 297 110T326 129T352 173T363 251V440ZM472 508H357L285 562L211 508H101L210 635H366L472 508Z"  />
<glyph unicode="&#xFC;" horiz-adv-x="574" d="M363 440H496V141Q496 103 502 63T518 0H385Q379 14 377 23T371 49Q309 -12 230 -12Q198 -12 171 0T123 35T90 88T78 157Q78 199 79 235T82 304T83 370T78 440H217Q220 406 220 375T221 312T219 249T217 181Q217 154 223 139T239 116T259 108T277 106Q283 106 297 110T326 129T352 173T363 251V440ZM458 567Q458 540 440 521T395 502Q367 502 348 521T328 568Q328 595 348 614T394 634Q422 634 440 615T458 567ZM245 567Q245 540 227 521T182 502Q154 502 135 521T115 568Q115 595 135 614T181 634Q209 634 226 615T244 567H245Z"  />
<glyph unicode="&#xFD;" horiz-adv-x="559" d="M482 440V-9Q482 -93 468 -149T424 -238T348 -285T238 -299Q206 -299 174 -293T107 -275V-175Q140 -187 169 -194T228 -202Q259 -202 281 -192T318 -159T339 -99T346 -6V44Q292 -10 224 -10Q194 -10 167 2T121 36T90 90T78 162Q78 198 79 231T80 297T80 365T76 440H212Q215 399 215 364T216 298T215 239T214 182Q214 143 227 126T267 108Q302 108 325 136T349 213V440H482ZM474 652L330 527H240L302 652H474Z"  />
<glyph unicode="&#xFE;" horiz-adv-x="573" d="M206 393Q238 425 267 439T338 453Q378 453 411 439T467 398T504 334T517 251Q517 194 503 147T462 67T399 15T318 -4Q285 -4 263 2T216 28V-298H83V696H206V393ZM216 143Q233 128 247 121T283 114Q327 114 352 144T378 229Q378 274 358 299T301 324Q259 324 238 292T216 206V143Z"  />
<glyph unicode="&#xFF;" horiz-adv-x="559" d="M482 440V-9Q482 -93 468 -149T424 -238T348 -285T238 -299Q206 -299 174 -293T107 -275V-175Q140 -187 169 -194T228 -202Q259 -202 281 -192T318 -159T339 -99T346 -6V44Q292 -10 224 -10Q194 -10 167 2T121 36T90 90T78 162Q78 198 79 231T80 297T80 365T76 440H212Q215 399 215 364T216 298T215 239T214 182Q214 143 227 126T267 108Q302 108 325 136T349 213V440H482ZM451 567Q451 540 433 521T388 502Q360 502 341 521T321 568Q321 595 341 614T387 634Q415 634 433 615T451 567ZM238 567Q238 540 220 521T175 502Q147 502 128 521T108 568Q108 595 128 614T174 634Q202 634 219 615T237 567H238Z"  />
<glyph unicode="&#x131;" horiz-adv-x="289" d="M211 0H78V440H211V0Z"  />
<glyph unicode="&#x152;" horiz-adv-x="1082" d="M599 698H1047V577H769V400H1018V282H769V117H1047V0H599V64Q581 44 562 30T521 7T471 -6T408 -10Q245 -10 156 85T67 356Q67 708 419 708Q469 708 517 690T599 636V698ZM601 347Q601 448 554 501T418 555Q333 555 287 500T240 347Q240 246 287 191T421 135Q507 135 554 190T601 347Z"  />
<glyph unicode="&#x153;" horiz-adv-x="820" d="M620 454Q694 454 738 418T782 319Q782 284 765 255T714 206T633 176T524 168Q536 90 616 90Q651 90 686 101T759 138L765 35Q735 12 691 0T595 -12Q501 -12 444 52Q414 17 377 1T281 -16Q229 -16 187 -2T114 42T68 115T51 218Q51 330 114 391T289 452Q343 452 384 431T452 374Q484 416 525 435T620 454ZM664 312Q664 329 649 340T614 352Q579 352 555 331T519 253Q550 251 576 254T622 265T653 284T664 312ZM380 216Q380 267 354 297T285 327Q240 327 215 298T190 217Q190 166 216 138T286 109Q330 109 355 137T380 216Z"  />
<glyph unicode="&#x160;" horiz-adv-x="559" d="M486 531Q460 547 438 557T396 575T357 585T315 588Q270 588 245 570T220 514Q220 488 243 467T320 416Q372 386 409 361T471 309T506 254T517 189Q517 146 503 110T460 46T386 4T276 -11Q250 -11 220 -7T156 5T91 25T30 54L68 173Q137 131 188 117T276 103Q312 103 332 121T353 171Q353 197 336 217T276 260Q217 293 175 322T107 382T69 443T57 510Q57 602 118 654T293 706Q325 706 351 704T402 697T455 681T515 653L486 531ZM465 878L356 750H200L94 878H209L281 823L355 878H465Z"  />
<glyph unicode="&#x161;" horiz-adv-x="444" d="M373 322Q339 342 305 349T240 357Q217 357 209 349T200 326Q200 309 212 299T261 271Q298 253 324 237T367 203T390 166T398 122Q398 59 355 22T233 -15Q179 -15 130 -5T49 22L66 124Q153 79 218 79Q240 79 249 88T259 110Q259 125 252 134T215 158Q174 176 145 194T97 231T70 273T61 323Q61 386 110 420T238 455Q280 455 313 449T389 423L373 322ZM420 636L311 508H155L49 636H164L236 581L310 636H420Z"  />
<glyph unicode="&#x178;" horiz-adv-x="640" d="M638 698L398 326V0H237V319L2 698H171L317 435L466 698H638ZM491 809Q491 782 473 763T428 744Q400 744 381 763T361 810Q361 837 381 856T427 876Q455 876 473 857T491 809ZM278 809Q278 782 260 763T215 744Q187 744 168 763T148 810Q148 837 168 856T214 876Q242 876 259 857T277 809H278Z"  />
<glyph unicode="&#x17D;" horiz-adv-x="597" d="M589 0H3V62L373 586H27V698H589V631L225 112H589V0ZM484 878L375 750H219L113 878H228L300 823L374 878H484Z"  />
<glyph unicode="&#x17E;" horiz-adv-x="440" d="M412 6Q383 1 337 -1T224 -3Q166 -3 115 -1T26 1V99L235 345H47V440H409V351L182 99H252Q271 99 293 99T336 100T377 102T412 106V6ZM406 636L297 508H141L35 636H150L222 581L296 636H406Z"  />
<glyph unicode="&#x192;" horiz-adv-x="549" d="M196 372Q196 475 210 540T251 643T321 695T421 709Q442 709 456 708T484 704T509 694T537 679L533 562Q518 572 507 578T486 588T465 593T440 595Q416 595 398 587T368 555T349 487T342 372H487V264H342V39Q342 -105 276 -180T81 -256Q57 -256 42 -254T1 -245V-125Q21 -131 33 -132T62 -134Q134 -134 164 -95T195 37V264H87V372H196Z"  />
<glyph unicode="&#x2C6;" horiz-adv-x="289" d="M330 508H215L143 562L69 508H-41L68 635H224L330 508Z"  />
<glyph unicode="&#x2C7;" horiz-adv-x="289" d="M330 636L221 508H65L-41 636H74L146 581L220 636H330Z"  />
<glyph unicode="&#x2DA;" horiz-adv-x="289" d="M246 605Q246 564 218 536T148 508Q127 508 108 516T75 537T53 569T44 609Q44 651 72 680T146 709Q165 709 183 701T215 679T237 645T246 605ZM196 608Q196 629 181 644T146 659Q123 659 108 645T93 609Q93 588 108 573T146 558Q166 558 181 572T196 608Z"  />
<glyph unicode="&#x2DC;" horiz-adv-x="289" d="M320 683Q320 635 314 602T294 550T261 522T214 513Q187 513 169 521T136 540T106 558T70 567Q30 567 30 510H-31Q-31 559 -26 591T-9 642T20 669T64 677Q90 677 109 668T146 649T180 630T217 621Q255 621 258 683H320Z"  />
<glyph unicode="&#x2013;" horiz-adv-x="500" d="M500 180H0V275H500V180Z"  />
<glyph unicode="&#x2014;" horiz-adv-x="1000" d="M1000 180H0V275H1000V180Z"  />
<glyph unicode="&#x2018;" horiz-adv-x="297" d="M234 668Q201 634 188 610T174 558Q174 543 180 532T195 511T210 491T217 465Q217 445 201 433T157 420Q117 420 93 448T69 524Q69 572 94 619T165 699L234 668Z"  />
<glyph unicode="&#x2019;" horiz-adv-x="297" d="M58 450Q87 482 99 507T112 559Q112 575 106 586T91 609T76 631T69 658Q69 676 85 687T127 699Q169 699 194 671T219 595Q219 546 197 504T128 420L58 450Z"  />
<glyph unicode="&#x201A;" horiz-adv-x="297" d="M53 -106Q88 -73 102 -49T115 5Q115 18 109 28T95 49T81 72T74 101Q74 121 91 134T136 147Q179 147 208 117T237 40Q237 16 233 -5T218 -47T186 -89T133 -136L53 -106Z"  />
<glyph unicode="&#x201C;" horiz-adv-x="477" d="M432 668Q401 635 389 611T377 558Q377 542 383 531T398 509T413 487T420 461Q420 444 403 433T359 421Q316 421 293 448T269 526Q269 574 293 618T362 699L432 668ZM236 668Q219 651 209 637T191 611T181 586T178 559Q178 544 184 533T197 511T211 489T218 463Q218 444 201 433T157 421Q119 421 95 449T71 524Q71 572 97 619T167 699L236 668Z"  />
<glyph unicode="&#x201D;" horiz-adv-x="477" d="M242 451Q270 473 285 501T300 561Q300 577 294 587T279 607T265 627T258 659Q258 676 273 687T314 699Q356 699 382 671T408 596Q408 571 405 550T391 508T362 466T312 420L242 451ZM48 450Q104 512 104 561Q104 576 97 586T82 605T67 626T60 656Q60 676 76 687T118 699Q160 699 184 671T209 595Q209 546 188 504T118 420L48 450Z"  />
<glyph unicode="&#x201E;" horiz-adv-x="477" d="M252 -108Q280 -85 295 -57T310 1Q310 14 304 27T290 53T276 77T269 98Q269 117 284 128T325 139Q367 139 393 111T419 37Q419 13 416 -8T402 -50T373 -92T323 -139L252 -108ZM58 -111Q114 -49 114 0Q114 13 108 25T93 48T78 71T71 94Q71 114 87 126T129 138Q170 138 195 110T220 34Q220 -62 129 -140L58 -111Z"  />
<glyph unicode="&#x2020;" horiz-adv-x="499" d="M184 701H325V432H483V311H325V-284H184V311H16V432H184V701Z"  />
<glyph unicode="&#x2021;" horiz-adv-x="499" d="M320 -284H179V-15H21V106H179V311H11V432H179V701H320V432H478V311H320V106H488V-15H320V-284Z"  />
<glyph unicode="&#x2022;" horiz-adv-x="265" d="M236 333Q236 312 228 293T206 260T173 238T133 230Q112 230 93 238T60 260T37 293T29 333Q29 355 37 374T59 407T91 429T131 438Q152 438 171 430T205 407T227 374T236 333Z"  />
<glyph unicode="&#x2026;" horiz-adv-x="540" d="M147 55Q147 29 130 11T86 -8Q58 -8 38 11T18 56Q17 84 35 104T79 124Q108 124 127 104T147 55ZM522 57Q522 30 504 11T459 -8Q431 -8 412 11T392 57Q392 84 410 104T454 124Q483 124 502 104T522 57ZM335 56Q335 30 317 11T272 -8Q245 -8 225 10T204 57Q204 84 223 104T268 124Q297 124 316 104T335 56Z"  />
<glyph unicode="&#x2030;" horiz-adv-x="1000" d="M291 525Q291 438 254 387T154 335Q91 335 54 385T17 518Q17 606 53 657T152 709Q217 709 254 661T291 525ZM572 698L201 0H110L479 698H572ZM671 178Q671 91 634 40T534 -12Q471 -12 434 38T397 171Q397 259 433 310T532 362Q597 362 634 314T671 178ZM204 525Q204 562 191 582T155 602Q131 602 118 580T104 520Q104 482 117 462T154 442Q177 442 190 463T204 525ZM584 178Q584 215 571 235T535 255Q511 255 498 233T484 173Q484 135 497 115T534 95Q557 95 570 116T584 178ZM991 178Q991 91 954 40T854 -12Q791 -12 754 38T717 171Q717 259 753 310T852 362Q917 362 954 314T991 178ZM904 178Q904 215 891 235T855 255Q831 255 818 233T804 173Q804 135 817 115T854 95Q877 95 890 116T904 178Z"  />
<glyph unicode="&#x2039;" horiz-adv-x="301" d="M259 53H144L41 225L139 394H255L163 225L259 53Z"  />
<glyph unicode="&#x203A;" horiz-adv-x="301" d="M259 225L156 53H41L137 225L45 394H161L259 225Z"  />
<glyph unicode="&#x20AC;" horiz-adv-x="549" d="M464 236H233Q245 182 271 152T338 121Q378 121 410 138T478 200L536 107Q499 48 444 17T323 -14Q223 -14 160 51T76 236H3L15 321H68Q68 327 68 333T67 345Q67 353 67 360T68 376H3L15 461H77Q99 579 164 645T330 711Q396 711 450 683T536 595L469 500Q453 522 439 536T410 560T379 572T341 576Q299 576 272 546T233 461H506L494 376H223Q223 370 223 364T222 350Q222 342 222 335T223 321H476L464 236Z"  />
<glyph unicode="&#x2122;" horiz-adv-x="419" d="M389 404H360V586L294 404H276L216 588V404H186V605H242L287 462L336 605H389V404ZM20 581V605H173V581H112V404H81V581H20Z"  />

</font>
</defs>
</svg>
