<?xml  version="1.0" encoding="UTF-8"?>
<!DOCTYPE svg PUBLIC "-//W3C//DTD SVG 1.0//EN" "http://www.w3.org/TR/2001/REC-SVG-20010904/DTD/svg10.dtd" >
<svg xmlns="http://www.w3.org/2000/svg" >
<metadata>
<version>1.0</version>
<id><![CDATA[Sassoon Sans W01 Medium]]></id>
<vendor>Monotype Imaging Inc.</vendor>
<credits>
<name>Fonts.com WebFonts</name>
<URL>http://webfonts.fonts.com</URL>
<role>Home of the Web fonts</role>
</credits>
<license>
<URL>http://webfonts.fonts.com/Legal</URL>
</license>
<copyright><![CDATA[Copyright 1995 Monotype Imaging, Inc. All rights reserved.]]></copyright>
<trademark><![CDATA[Sassoon is a trademark of A.Williams & R.Sassoon and may be registered in certain jurisdictions]]></trademark>
<licensee>
<name></name>
</licensee>
</metadata>
<defs >
<font horiz-adv-x="508" id="3829fa14-15c2-4c6c-a4fb-86f3f25da342">
<font-face font-family="" panose-1="2 11 7 3 2 1 3 3 2 3" ascent="947" descent="-299" units-per-em="1000" alphabetic="0">
</font-face>
<missing-glyph horiz-adv-x="0" />

<glyph unicode="&#xA;" />
<glyph unicode="&#xD;" horiz-adv-x="0" />
<glyph unicode=" " horiz-adv-x="309" />
<glyph unicode="!" horiz-adv-x="301" d="M202 699L189 193H107L94 699H202ZM216 47Q216 21 198 3T152 -15Q124 -15 105 4T85 50Q85 76 103 94T148 113Q177 113 196 94T216 47Z"  />
<glyph unicode="&quot;" horiz-adv-x="419" d="M95 645Q100 671 115 685T154 700Q180 700 197 683T214 639Q214 620 207 606L92 373H41L95 645ZM282 644Q287 670 302 684T341 698Q367 698 384 681T401 638Q401 624 394 608L282 373H230L282 644Z"  />
<glyph unicode="#" horiz-adv-x="499" d="M504 478L491 386H408L389 262H473L460 175H377L348 -18H268L297 175H190L161 -18H79L108 175H19L32 262H121L139 386H51L64 478H151L176 646H258L234 478H341L367 646H445L420 478H504ZM328 386H221L202 262H309L328 386Z"  />
<glyph unicode="$" horiz-adv-x="549" d="M307 413Q356 387 393 363T455 313T492 256T505 185Q505 142 490 108T448 49T383 13T299 0L297 -90H235L237 -1Q204 2 178 7T129 19T85 35T39 56V160Q92 132 137 116T239 92Q240 141 241 182Q242 217 242 251T243 300Q202 324 167 347T105 396T64 454T48 530Q48 571 63 603T107 656T172 689T253 701L255 779H317L314 700Q362 697 405 686T480 658V556Q435 578 396 591T311 606L307 413ZM247 605Q201 605 179 586T157 535Q157 508 178 484T244 432Q244 477 245 514Q246 546 246 573T247 605ZM303 92Q347 92 371 115T396 174Q396 206 376 231T306 281L303 92Z"  />
<glyph unicode="%" horiz-adv-x="859" d="M357 522Q357 436 317 386T207 335Q172 335 144 348T95 386T63 444T52 521Q52 609 93 659T203 709Q275 709 316 660T357 522ZM676 697L268 0H183L588 697H676ZM808 172Q808 87 767 38T657 -11Q585 -11 543 39T501 177Q501 262 542 311T653 360Q728 360 768 310T808 172ZM277 528Q277 574 259 599T207 624Q174 624 154 597T134 518Q134 471 152 446T203 420Q238 420 257 448T276 528H277ZM726 178Q726 225 708 251T655 278Q622 278 603 250T583 172Q583 124 601 98T654 71Q688 71 707 99T726 178Z"  />
<glyph unicode="&amp;" horiz-adv-x="735" d="M142 564Q142 633 192 672T330 711Q372 711 407 700T468 668T508 618T523 555Q523 498 489 455T378 373Q388 360 410 335T456 283Q482 252 513 218Q547 253 572 284T619 354L696 295Q670 250 639 213T576 146Q588 134 610 112T654 67T696 25T721 0H579Q576 2 565 13T541 37T516 63T500 80Q448 37 390 12T263 -13Q214 -13 174 1T104 41T59 103T43 182Q43 257 90 309T224 395Q183 438 163 483T142 564ZM414 551Q414 586 391 607T327 629Q292 629 272 611T251 560Q251 537 266 511T319 439Q414 488 414 551ZM436 151Q424 164 401 189T354 242T311 292T285 324Q245 305 219 289T178 257T158 223T152 183Q152 162 161 143T186 111T224 89T271 81Q316 81 356 98T436 151Z"  />
<glyph unicode="&apos;" horiz-adv-x="228" d="M86 644Q91 669 107 683T146 698Q171 698 188 680T206 637Q206 624 198 606L86 372H35L86 644Z"  />
<glyph unicode="(" horiz-adv-x="311" d="M296 -91Q224 -82 174 -51T93 32T48 151T34 304Q34 388 47 456T92 576T173 658T296 699V619Q206 607 170 530T134 304Q134 242 142 188T170 91T220 22T296 -11V-91Z"  />
<glyph unicode=")" horiz-adv-x="311" d="M15 699Q87 690 137 659T218 576T263 457T277 304Q277 220 264 152T219 32T138 -50T15 -91V-11Q105 1 141 78T177 304Q177 366 169 420T141 517T91 586T15 619V699Z"  />
<glyph unicode="*" horiz-adv-x="417" d="M389 576L310 531Q292 520 251 510Q262 508 268 507T280 504T291 498T307 488L383 441L352 389L281 433Q273 438 257 452T230 481Q236 461 238 444T241 408V328H180V411Q180 426 181 442T190 481Q175 463 165 455T136 437L64 397L36 449L111 491Q123 497 130 501T143 507T156 511T174 514Q147 523 136 528T111 542L40 588L71 638L141 596Q155 588 165 577T190 549Q183 571 182 585T180 619V698H241V620Q241 603 240 586T233 547Q251 564 260 571T282 586L361 629L389 576Z"  />
<glyph unicode="+" horiz-adv-x="549" d="M528 213H322V-6H223V213H21V305H223V508H322V305H528V213Z"  />
<glyph unicode="&#x2c;" horiz-adv-x="279" d="M62 -130Q95 -99 108 -76T121 -24Q121 -10 115 1T101 23T87 47T80 74Q80 91 94 103T129 115Q146 115 161 107T188 85T206 53T213 14Q213 -20 203 -52T167 -113Q156 -127 145 -138T114 -163L62 -130Z"  />
<glyph unicode="-" horiz-adv-x="260" d="M244 189H16V266H244V189Z"  />
<glyph unicode="." horiz-adv-x="279" d="M202 45Q202 20 184 3T140 -14Q114 -14 96 4T78 48Q78 73 95 90T137 108Q163 108 182 90T202 45Z"  />
<glyph unicode="/" horiz-adv-x="325" d="M277 693L128 -69H43L192 693H277Z"  />
<glyph unicode="0" horiz-adv-x="549" d="M526 360Q526 174 463 81T275 -13Q149 -13 86 80T23 350Q23 531 86 620T274 710Q399 710 462 623T526 360ZM274 85Q308 85 333 105T374 162T399 248T407 358Q407 488 375 550T275 612Q209 612 176 546T142 338Q142 218 173 152T274 85Z"  />
<glyph unicode="1" horiz-adv-x="549" d="M364 0H262V572Q252 563 244 555T225 537T202 516T171 491L118 564Q126 570 145 584T186 617T232 657T271 698H364V0Z"  />
<glyph unicode="2" horiz-adv-x="549" d="M497 0H45V72Q101 126 159 181T265 290T343 399T374 506Q374 555 343 585T264 616Q237 616 215 606T175 579T144 538T121 489L37 536Q48 569 65 600T111 656T181 695T281 710Q381 710 437 657T493 512Q493 451 463 390T388 274T292 172T197 92H497V0Z"  />
<glyph unicode="3" horiz-adv-x="549" d="M146 315V409Q254 409 308 434T363 520Q363 562 333 588T251 615Q210 615 175 597T103 538L49 615Q86 661 142 685T270 709Q316 709 354 696T419 659T461 602T476 527Q476 466 448 428T353 361Q422 347 457 303T493 183Q493 139 477 103T431 40T358 0T262 -15Q222 -15 189 -9T127 12T71 47T20 100L80 169Q123 121 163 100T252 79Q309 79 341 109T374 190Q374 217 367 240T341 279T294 305T222 315H146Z"  />
<glyph unicode="4" horiz-adv-x="549" d="M524 172H443V0H341V172H35V261L282 699H399L154 264H341V495H443V264H524V172Z"  />
<glyph unicode="5" horiz-adv-x="549" d="M176 417Q192 425 204 430T227 439T252 443T282 444Q330 444 369 428T435 382T478 311T494 218Q494 164 477 121T429 48T353 1T256 -16Q185 -16 125 9T23 82L74 157Q121 115 161 97T246 78Q308 78 345 115T382 215Q382 276 349 311T259 346Q225 346 202 335T152 298L75 335L81 699H463V604H181L176 417Z"  />
<glyph unicode="6" horiz-adv-x="549" d="M345 699Q319 658 299 622T260 550T226 477T193 396Q210 409 223 417T250 429T277 435T311 437Q353 437 390 421T454 375T496 305T512 214Q512 163 496 122T449 52T376 7T281 -9Q173 -9 113 52T52 225Q52 323 96 440T226 699H345ZM161 208Q161 151 193 118T281 85Q340 85 371 119T403 216Q403 275 373 309T288 343Q260 343 237 333T197 306T171 263T161 208Z"  />
<glyph unicode="7" horiz-adv-x="549" d="M499 617L225 0H109L377 603H57V699H499V617Z"  />
<glyph unicode="8" horiz-adv-x="549" d="M51 543Q51 624 107 668T275 712Q324 712 364 700T434 666T478 613T494 543Q494 487 463 446T362 368Q443 334 480 287T517 172Q517 85 454 35T281 -15Q225 -15 179 -1T101 38T50 99T32 179Q32 248 71 290T182 362Q143 384 118 404T78 444T57 489T51 543ZM382 538Q382 580 351 605T267 630Q219 630 190 605T160 539Q160 469 275 416Q382 465 382 538ZM404 177Q404 200 396 217T372 250T328 279T264 310Q200 285 173 257T145 187Q145 137 181 108T280 79Q337 79 370 105T404 177Z"  />
<glyph unicode="9" horiz-adv-x="549" d="M204 0Q230 41 250 77T289 149T323 222T356 303Q339 290 326 282T299 270T272 264T238 262Q196 262 159 278T95 324T53 394T37 485Q37 536 53 577T100 647T172 693T268 709Q376 709 436 647T497 474Q497 376 453 259T323 0H204ZM388 491Q388 548 356 581T268 615Q209 615 178 581T146 483Q146 424 176 390T261 356Q289 356 312 366T352 393T378 436T388 491Z"  />
<glyph unicode=":" horiz-adv-x="279" d="M201 323Q201 297 183 279T140 261Q114 261 96 279T77 324Q77 349 94 366T137 384Q163 384 182 367T201 323ZM202 46Q202 22 184 5T140 -12Q114 -12 96 6T78 50Q78 75 95 92T136 110Q163 110 182 91T202 46Z"  />
<glyph unicode=";" horiz-adv-x="279" d="M206 319Q206 293 189 276T145 258Q119 258 101 276T81 321Q81 347 98 364T140 382Q167 382 186 364T206 319ZM57 -130Q90 -100 103 -76T117 -23Q117 -10 111 1T96 24T82 48T75 74Q75 91 89 103T125 115Q142 115 157 107T183 85T201 53T208 14Q208 -20 198 -52T162 -114Q151 -126 141 -136T110 -163L57 -130Z"  />
<glyph unicode="&lt;" horiz-adv-x="549" d="M543 523V421L144 276L543 132V31L6 231V317L543 523Z"  />
<glyph unicode="=" horiz-adv-x="549" d="M526 302H23V390H526V302ZM526 138H23V227H526V138Z"  />
<glyph unicode="&gt;" horiz-adv-x="549" d="M7 523L542 316V231L7 30V131L405 274L7 420V523Z"  />
<glyph unicode="?" horiz-adv-x="432" d="M40 673Q78 693 113 702T189 711Q237 711 276 696T342 654T385 589T400 505Q400 424 357 378T231 320V199H138V407Q213 408 252 434T291 507Q291 554 261 583T182 614Q164 615 150 613T122 606T92 593T55 573L40 673ZM247 51Q247 24 228 6T182 -13Q153 -13 134 6T113 54Q113 81 132 100T177 120Q206 120 226 100T247 51Z"  />
<glyph unicode="@" horiz-adv-x="818" d="M440 502Q461 502 475 498T510 481L512 502H590L574 372Q571 348 568 325T563 283T560 253T558 240Q558 172 623 172Q672 172 702 216T732 331Q732 394 709 448T644 541T547 604T426 627Q361 627 305 604T208 540T144 444T120 324Q120 257 145 199T213 97T316 29T443 4Q474 4 498 6T544 15T589 33T641 62L666 20Q635 -3 610 -17T559 -39T502 -50T427 -53Q345 -53 274 -25T151 54T68 172T38 318Q38 396 67 463T148 580T270 658T423 686Q503 686 571 660T688 586T765 475T793 334Q793 287 780 248T743 179T687 134T615 117Q568 117 537 137T491 196Q448 125 367 125Q340 125 318 135T279 164T253 209T244 266Q244 314 259 357T302 432T364 483T440 502ZM501 429Q484 441 473 445T445 449Q421 449 400 436T364 401T339 347T330 281Q330 242 348 219T395 196Q430 196 455 227T486 309L501 429Z"  />
<glyph unicode="A" horiz-adv-x="674" d="M669 0H547L464 215H204L121 0H5L280 699H396L669 0ZM431 304L331 564L237 304H431Z"  />
<glyph unicode="B" horiz-adv-x="632" d="M84 696Q96 697 116 698T161 700T213 701T267 702Q328 702 377 692T461 660T515 607T534 529Q534 475 508 435T422 372Q458 366 488 351T539 312T573 257T586 189Q586 90 510 42T286 -7Q272 -7 247 -6T192 -3T134 1T84 7V696ZM200 410H253Q341 410 378 436T415 513Q415 542 402 561T366 591T312 607T246 612Q242 612 235 612T220 611H200V410ZM200 93Q224 90 243 89T288 87Q367 87 413 112T459 195Q459 252 416 284T278 316Q267 316 255 316T232 316T212 315T200 315V93Z"  />
<glyph unicode="C" horiz-adv-x="634" d="M610 106Q565 47 502 16T362 -15Q295 -15 241 9T148 78T88 191T67 346Q67 431 88 499T149 614T245 686T374 711Q454 711 516 681T616 586L547 515Q512 564 473 588T379 613Q288 613 237 542T186 346Q186 222 234 155T372 87Q423 87 465 109T553 182L610 106Z"  />
<glyph unicode="D" horiz-adv-x="710" d="M84 691Q91 692 109 693T149 695T193 698T232 699Q344 699 422 676T550 608T621 498T643 347Q643 269 624 205T558 94T433 23T238 -2Q214 -2 196 -2T161 -1T126 1T84 6V691ZM203 95Q223 93 234 93T262 92Q392 92 455 157T519 345Q519 407 504 455T458 537T376 587T256 605Q243 605 230 604T203 601V95Z"  />
<glyph unicode="E" horiz-adv-x="525" d="M485 0H84V698H480V601H198V404H454V309H198V92H485V0Z"  />
<glyph unicode="F" horiz-adv-x="518" d="M474 606H198V397H445V302H198V0H84V698H474V606Z"  />
<glyph unicode="G" horiz-adv-x="695" d="M674 279H595Q596 275 596 268T598 251T599 233T600 218Q600 164 582 121T531 48T451 3T344 -13Q272 -13 216 13T122 87T65 203T45 354Q45 439 67 505T132 618T235 689T370 714Q447 714 503 686T603 601L538 534Q503 579 462 599T370 620Q276 620 223 550T169 352Q169 223 215 152T349 81Q412 81 451 114T491 218Q491 230 490 243T487 279H392V366H674V279Z"  />
<glyph unicode="H" horiz-adv-x="709" d="M627 0H511V308H197V0H82V698H197V400H511V698H627V0Z"  />
<glyph unicode="I" horiz-adv-x="262" d="M187 0H75V699H187V0Z"  />
<glyph unicode="J" horiz-adv-x="492" d="M408 195Q408 91 361 38T218 -15Q122 -15 71 38T20 208H129Q129 166 135 140T153 99T179 80T213 75Q235 75 250 81T276 104T290 147T294 216V699H408V195Z"  />
<glyph unicode="K" horiz-adv-x="621" d="M636 0H486L202 323V0H84V698H202V393L458 698H594L311 369L636 0Z"  />
<glyph unicode="L" horiz-adv-x="557" d="M505 0H84V698H203V92H505V0Z"  />
<glyph unicode="M" horiz-adv-x="878" d="M795 0H679V505L482 176H383L199 491V0H83V698H211L434 307L674 698H795V0Z"  />
<glyph unicode="N" horiz-adv-x="741" d="M658 0H542L251 433Q240 449 230 465T211 496T196 522T187 539Q188 527 189 510T192 472T194 429T195 387V0H83V698H199L489 264Q506 239 521 216T553 163Q551 187 550 205T548 238T547 269T547 302V698H658V0Z"  />
<glyph unicode="O" horiz-adv-x="752" d="M686 355Q686 176 608 82T375 -12Q227 -12 147 81T67 345Q67 429 88 496T149 611T247 684T380 710Q455 710 512 686T607 615T666 503T686 355ZM562 356Q562 477 514 543T378 609Q289 609 240 540T191 337Q191 216 239 149T375 82Q463 82 512 152T562 356Z"  />
<glyph unicode="P" horiz-adv-x="584" d="M84 697Q93 697 113 698T157 699T206 700T249 701Q401 701 477 653T554 501Q554 404 487 354T289 304Q269 304 244 305T203 307V0H84V697ZM203 402Q214 401 222 400T237 399T253 398T273 398Q351 398 389 421T427 501Q427 555 387 581T257 607Q243 607 232 607T203 604V402Z"  />
<glyph unicode="Q" horiz-adv-x="751" d="M484 6Q464 0 449 -3T421 -9T395 -12T364 -13Q297 -13 242 10T148 79T88 191T66 343Q66 520 147 614T380 709Q525 709 605 618T686 355Q686 155 569 55L650 -44L573 -105L484 6ZM493 143Q527 177 544 231T562 356Q562 479 514 547T379 615Q289 615 240 542T190 338Q190 279 202 233T237 153T292 103T366 85Q377 85 386 87T411 94L360 156L433 215L493 143Z"  />
<glyph unicode="R" horiz-adv-x="611" d="M605 0H457L202 306V0H84V693Q101 694 125 695T174 697T222 698T261 699Q407 699 481 653T555 500Q555 419 495 371T330 321L605 0ZM202 399Q215 397 234 396T269 395Q347 395 389 421T431 498Q431 523 422 543T393 576T340 597T257 605Q243 605 231 605T202 602V399Z"  />
<glyph unicode="S" horiz-adv-x="537" d="M65 153Q120 115 168 98T260 80Q306 80 333 104T361 169Q361 187 356 202T337 232T303 262T249 295Q198 324 162 350T101 404T66 461T55 525Q55 608 110 658T271 708Q301 708 328 705T380 696T432 678T486 651L458 554Q408 588 368 601T283 614Q232 614 206 592T179 527Q179 494 206 468T294 406Q341 378 376 354T436 303T472 246T485 177Q485 136 471 102T429 43T358 4T259 -10Q230 -10 200 -5T140 9T82 31T30 63L65 153Z"  />
<glyph unicode="T" horiz-adv-x="543" d="M522 606H329V0H216V606H21V698H522V606Z"  />
<glyph unicode="U" horiz-adv-x="721" d="M637 293Q637 201 617 142T561 48T474 0T363 -14Q302 -14 251 -1T162 47T105 141T84 290V698H201V291Q201 227 214 186T249 122T300 89T362 80Q392 80 420 89T471 122T506 188T520 298V698H637V293Z"  />
<glyph unicode="V" horiz-adv-x="671" d="M653 698L373 0H278L18 698H140L330 170L532 698H653Z"  />
<glyph unicode="W" horiz-adv-x="995" d="M979 699L761 -3H651L515 445Q507 470 500 500T489 547Q488 539 486 528T480 503T472 475T464 450L318 -3H217L16 699H138L251 255L272 171Q278 192 281 205T287 227T292 245T299 266L441 699H548L674 265Q682 239 691 207T707 151Q714 178 720 201Q725 221 729 239T736 265L856 699H979Z"  />
<glyph unicode="X" horiz-adv-x="631" d="M624 0H488L317 265L144 0H7L251 354L23 698H155L319 442L486 698H621L386 354L624 0Z"  />
<glyph unicode="Y" horiz-adv-x="594" d="M584 698L356 325V0H239V320L10 698H135L298 414L457 698H584Z"  />
<glyph unicode="Z" horiz-adv-x="555" d="M540 0H11V63L381 606H31V698H535V630L171 92H540V0Z"  />
<glyph unicode="[" horiz-adv-x="291" d="M276 -79H78V698H276V630H163V-11H276V-79Z"  />
<glyph unicode="\" horiz-adv-x="325" d="M320 -77H233L20 688H104L320 -77Z"  />
<glyph unicode="]" horiz-adv-x="291" d="M15 698H213V-79H15V-11H128V630H15V698Z"  />
<glyph unicode="^" horiz-adv-x="549" d="M511 255H420L272 536L125 255H38L238 621H310L511 255Z"  />
<glyph unicode="_" horiz-adv-x="500" d="M500 -158H0V-87H500V-158Z"  />
<glyph unicode="`" horiz-adv-x="257" d="M194 506H120L-35 632H107L194 506Z"  />
<glyph unicode="a" horiz-adv-x="535" d="M371 64Q346 27 306 9T223 -10Q147 -10 100 43T52 199Q52 257 70 304T122 383T204 433T313 451Q333 451 350 450T385 447T421 440T460 428V126Q460 103 460 81T463 41Q465 20 467 0H377Q375 14 374 26Q373 37 372 47T371 64ZM362 349Q342 354 326 355T294 357Q231 357 194 315T157 194Q157 140 180 112T243 84Q267 84 289 95T327 126T352 176T362 240V349Z"  />
<glyph unicode="b" horiz-adv-x="534" d="M170 389Q196 421 231 436T308 452Q389 452 435 398T482 250Q482 190 466 142T421 60T349 8T255 -11Q210 -11 161 0T73 30V698H170V389ZM170 99Q191 87 207 83T248 79Q308 79 342 120T377 235Q377 292 352 323T287 354Q237 354 204 312T170 183V99Z"  />
<glyph unicode="c" horiz-adv-x="426" d="M391 24Q356 6 325 -2T259 -11Q212 -11 174 4T108 48T66 118T51 209Q51 263 65 308T108 384T178 433T274 451Q313 451 338 444T390 423L372 332Q357 339 347 344T327 352T307 356T282 357Q225 357 193 318T160 212Q160 151 189 115T273 79Q301 79 326 87T384 115L391 24Z"  />
<glyph unicode="d" horiz-adv-x="547" d="M386 59Q360 23 320 6T236 -11Q195 -11 161 4T103 47T66 113T52 200Q52 255 68 301T114 380T183 432T270 451Q295 451 319 448T373 435V698H472V152Q472 122 473 95T476 46Q478 21 480 0H392Q390 12 389 23Q388 33 387 43T386 59ZM373 346Q353 354 331 357T289 361Q232 361 197 317T161 199Q161 145 185 114T248 83Q273 83 296 92T336 123T363 178T373 264V346Z"  />
<glyph unicode="e" horiz-adv-x="464" d="M391 26Q357 5 325 -4T253 -13Q159 -13 106 44T52 202Q52 257 68 303T113 382T182 433T271 451Q342 451 383 417T424 322Q424 253 363 213T195 173Q186 173 179 173T157 174Q162 124 189 97T261 69Q323 69 391 113V26ZM322 318Q322 339 306 354T266 369Q246 369 228 360T196 334T172 295T159 248Q172 246 179 245T198 244Q255 244 288 264T322 318Z"  />
<glyph unicode="f" horiz-adv-x="316" d="M100 486Q100 598 142 648T273 698Q286 698 296 698T315 696T334 691T357 683L349 599Q329 610 318 613T287 616Q240 616 221 587T202 484V440H303V363H202V-49Q202 -182 154 -239T9 -296Q-17 -296 -36 -293T-83 -278L-79 -197Q-53 -206 -36 -210T-1 -214Q23 -214 42 -206T74 -178T93 -125T100 -41V363H16V440H100V486Z"  />
<glyph unicode="g" horiz-adv-x="532" d="M457 -29Q457 -99 443 -150T401 -234T336 -283T250 -299Q208 -299 169 -291T92 -260L100 -181Q137 -200 170 -208T232 -217Q295 -217 326 -168T358 -26V45Q331 16 300 3T231 -10Q191 -10 158 4T101 46T64 110T51 195Q51 316 124 383T326 450Q346 450 361 450T390 447T420 442T457 432V-29ZM358 350Q341 353 331 354T306 356Q237 356 199 314T160 198Q160 145 183 117T247 88Q271 88 291 96T326 125T349 179T358 261V350Z"  />
<glyph unicode="h" horiz-adv-x="537" d="M462 0H356V274Q356 323 338 340T286 358Q265 358 245 346T210 312T186 262T177 201V0H75V698H177V388Q228 452 308 452Q339 452 367 444T416 417T449 368T462 292V0Z"  />
<glyph unicode="i" horiz-adv-x="257" d="M191 572Q191 548 173 531T130 514Q104 514 86 531T67 573Q67 599 84 617T128 635Q153 635 172 617T191 572ZM182 0H76V440H182V0Z"  />
<glyph unicode="j" horiz-adv-x="250" d="M191 572Q191 547 173 530T130 513Q104 513 86 530T67 574Q67 600 84 617T128 635Q153 635 172 617T191 572ZM179 -45Q179 -122 166 -171T128 -248T70 -287T-7 -298Q-35 -298 -55 -295T-104 -280L-100 -199Q-78 -208 -63 -212T-28 -216Q0 -216 19 -208T52 -177T71 -118T77 -25V440H179V-45Z"  />
<glyph unicode="k" horiz-adv-x="545" d="M490 440L274 257L512 0H382L176 224V0H74V698H176V287L351 440H490Z"  />
<glyph unicode="l" horiz-adv-x="257" d="M180 0H78V698H180V0Z"  />
<glyph unicode="m" horiz-adv-x="802" d="M177 0H75V285Q75 309 74 329T71 368T64 403T54 440H155Q161 422 163 413T169 384Q198 419 231 436T313 453Q354 453 385 438T436 387Q446 401 462 413T498 433T539 447T581 452Q647 452 687 411T728 288V0H626V259Q626 315 606 338T554 362Q535 362 517 354T485 327T462 280T453 212V0H351V249Q351 363 276 363Q234 363 206 322T177 207V0Z"  />
<glyph unicode="n" horiz-adv-x="539" d="M177 0H75V299Q75 318 74 338T69 376T62 411T54 440H155Q158 432 160 427T163 415T166 400T170 379Q202 417 238 435T315 453Q347 453 374 442T421 409T452 355T464 283V0H358V270Q358 295 352 312T336 340T314 354T289 359Q271 359 252 350T216 321T188 268T177 189V0Z"  />
<glyph unicode="o" horiz-adv-x="533" d="M482 224Q482 168 467 124T423 50T356 3T267 -13Q169 -13 111 47T53 218Q53 329 110 391T267 453Q365 453 423 394T482 224ZM265 77Q316 77 346 114T377 225Q377 291 348 327T268 363Q215 363 187 325T158 216Q158 149 185 113T265 77Z"  />
<glyph unicode="p" horiz-adv-x="537" d="M169 386Q199 421 233 437T310 453Q349 453 381 439T436 397T472 332T485 248Q485 190 471 143T430 63T368 12T287 -6Q255 -6 228 1T178 28V-294H76V319Q76 330 75 345T71 376T64 409T56 440H157Q162 428 164 419T169 386ZM175 120Q192 102 216 93T262 84Q287 84 308 95T346 126T371 173T380 233Q380 291 355 323T288 355Q238 355 207 314T175 202V120Z"  />
<glyph unicode="q" horiz-adv-x="530" d="M456 -298H354V52Q321 18 292 4T224 -10Q185 -10 153 4T99 45T64 107T52 189Q52 249 68 297T117 380T198 433T308 452Q330 452 347 451T382 448T417 441T456 432V-298ZM353 353Q340 356 327 357T303 358Q235 358 198 316T161 199Q161 146 183 117T249 88Q270 88 287 97T316 121T337 156T350 198Q354 221 354 248T355 298Q354 325 353 353Z"  />
<glyph unicode="r" horiz-adv-x="363" d="M173 0H75V295Q75 319 75 337T72 372T67 404T58 440H153Q156 428 158 419T162 401T164 382T165 355Q191 406 219 428T289 450Q304 450 313 447T339 437V351Q325 354 316 355T297 356Q239 356 206 308T173 173V0Z"  />
<glyph unicode="s" horiz-adv-x="408" d="M341 338Q308 358 276 366T214 374Q190 374 177 365T163 333Q163 313 181 299T242 260Q274 242 296 226T332 194T352 158T359 115Q359 56 319 21T205 -14Q157 -14 115 -4T41 26L57 108Q93 85 128 74T195 63Q225 63 239 75T254 109Q254 127 243 141T199 172Q160 193 134 211T90 248T66 287T58 332Q58 389 100 422T214 456Q252 456 284 449T354 421L341 338Z"  />
<glyph unicode="t" horiz-adv-x="351" d="M327 18Q307 4 282 -4T227 -13Q162 -13 126 20T89 132V363H23V440H89V543H188V440H318V363H188V150Q188 106 204 88T249 69Q265 69 285 77T327 99V18Z"  />
<glyph unicode="u" horiz-adv-x="537" d="M361 440H463V129Q463 86 468 49T478 0H379Q375 8 373 23T368 57Q339 22 302 5T225 -12Q192 -12 165 -1T117 33T86 88T75 164Q75 205 76 239T77 305T77 369T70 440H176Q180 404 181 373T182 311T181 249T180 180Q180 150 185 130T201 99T224 83T252 78Q267 78 286 86T321 112T349 159T361 230V440Z"  />
<glyph unicode="v" horiz-adv-x="486" d="M465 440L313 55Q306 38 300 26T286 5T267 -7T240 -11Q215 -11 198 0T168 46L21 440H128L207 205Q209 199 214 184T224 151T234 118T240 100Q241 103 246 118T257 150T268 183T275 204L358 440H465Z"  />
<glyph unicode="w" horiz-adv-x="748" d="M720 440L585 36Q576 10 562 0T523 -10Q498 -10 483 1T459 38L393 251Q388 264 385 278T378 305L371 333Q369 319 365 304Q362 291 359 277T351 248L292 38Q284 10 267 0T224 -10Q204 -10 189 -2T163 36L28 440H133L197 221Q199 216 203 199T213 163Q219 141 227 114Q233 139 238 160Q243 178 247 194T253 216L317 440H427L496 207Q497 202 501 188T510 156Q515 137 522 114L545 204L611 440H720Z"  />
<glyph unicode="x" horiz-adv-x="469" d="M449 0H332L238 157L140 0H20L178 233L39 440H158L239 304L321 440H443L299 230L449 0Z"  />
<glyph unicode="y" horiz-adv-x="522" d="M447 -17Q447 -101 432 -156T389 -242T320 -286T228 -299Q191 -299 155 -288T89 -261L97 -183Q126 -200 158 -211T221 -222Q252 -222 275 -212T314 -177T337 -113T345 -15V53Q317 20 286 6T217 -9Q187 -9 161 1T116 32T86 85T75 162Q75 208 75 244T76 311T75 374T69 440H170Q178 368 178 304T177 171Q177 120 194 101T241 81Q286 81 315 120T345 236V440H447V-17Z"  />
<glyph unicode="z" horiz-adv-x="415" d="M386 7Q357 2 313 1T212 -1Q197 -1 175 -1T127 0T75 1T27 2V83L248 363H46V440H381V369L148 82Q156 82 173 82T208 82T242 82T263 81Q301 81 330 82T386 89V7Z"  />
<glyph unicode="{" horiz-adv-x="346" d="M300 -84H270Q202 -84 172 -58T140 23Q140 40 149 103Q151 122 152 138T153 172Q153 226 135 254T79 293V338Q114 348 132 376T150 454Q150 467 150 479T147 506Q142 542 140 556T138 580Q138 617 148 640T178 676T225 693T285 698H296V657Q261 654 247 639T232 590Q232 582 234 565T239 524Q241 508 242 493T244 463Q244 399 218 363T143 316Q194 301 220 262T247 151Q247 137 246 122T243 93Q240 67 238 48T235 20Q236 -12 251 -27T300 -44V-84Z"  />
<glyph unicode="|" horiz-adv-x="164" d="M107 0H56V622H107V0Z"  />
<glyph unicode="}" horiz-adv-x="346" d="M218 455Q218 405 236 378T290 339V294Q252 283 234 255T216 173Q216 156 217 140T221 105Q226 73 227 53T229 24Q229 -82 95 -82H77L71 -79V-41Q105 -39 119 -24T134 22Q134 30 132 49T127 94Q125 109 124 124T122 153Q122 224 148 263T226 317Q177 328 151 364T124 465Q124 479 125 494T128 525Q131 549 133 566T135 591Q135 624 121 639T71 657V698H84Q117 698 143 693T189 675T219 639T230 579Q230 570 229 557T222 507Q220 493 219 480T218 455Z"  />
<glyph unicode="~" horiz-adv-x="549" d="M509 410Q509 357 500 324T476 273T440 249T392 242Q349 242 304 271Q296 275 281 285T250 305T220 325T199 337Q174 351 152 351Q123 351 108 328T91 259H40Q41 349 70 389T161 430Q175 430 188 426T220 412Q227 408 243 398T277 377T311 355T335 341Q375 316 401 316Q429 316 442 337T458 410H509Z"  />
<glyph unicode="&#xA0;" horiz-adv-x="309" />
<glyph unicode="&#xA1;" horiz-adv-x="301" d="M216 634Q216 608 198 590T153 571Q124 571 105 590T85 637Q85 663 103 681T149 699Q177 699 196 680T216 634ZM99 -15L112 491H194L207 -15H99Z"  />
<glyph unicode="&#xA2;" horiz-adv-x="549" d="M482 383Q469 391 460 396T441 404T422 410T398 414L296 79Q310 74 317 73T337 72Q416 72 471 120V30Q440 7 406 -3T334 -14Q317 -14 305 -13T272 -6L246 -93L192 -74L217 11Q154 40 123 98T92 240Q92 298 108 346T153 430T224 485T319 509Q330 510 341 510T367 509L389 585L442 567L423 500Q444 495 454 492T482 480V383ZM339 420Q273 415 237 367T201 235Q201 151 246 109L339 420Z"  />
<glyph unicode="&#xA3;" horiz-adv-x="549" d="M152 362Q157 446 170 511T210 620T278 688T382 711Q404 711 421 710T453 704T484 692T518 673L516 561Q490 587 459 602T396 617Q360 617 337 602T298 555T274 475T261 362H418V277H247Q241 249 235 226T220 182T199 139T167 92H516V0H33V72Q78 112 103 162T139 277H48V362H152Z"  />
<glyph unicode="&#xA4;" horiz-adv-x="612" d="M478 120L409 187Q384 169 355 160T294 151Q268 151 237 159T178 187L110 120Q96 134 83 147T56 175Q73 191 90 207T124 240Q106 268 97 297T88 354Q88 382 96 412T124 468L56 534Q70 548 83 561T110 589L178 522Q207 542 237 549T294 557Q321 557 352 549T409 522L478 589L532 534L463 468Q483 439 491 410T499 354Q499 327 491 298T463 240L532 175L478 120ZM422 355Q422 383 411 406T382 445T341 471T294 481Q267 481 243 471T202 444T175 403T165 355Q165 329 175 306T202 266T243 238T294 227Q320 227 343 237T384 264T412 305T422 355Z"  />
<glyph unicode="&#xA5;" horiz-adv-x="549" d="M548 698L354 381H501V310H333V239H501V171H333V0H223V171H57V239H223V310H57V381H197L1 698H117L276 423L428 698H548Z"  />
<glyph unicode="&#xA6;" horiz-adv-x="192" d="M132 447H60V685H132V447ZM132 0H60V238H132V0Z"  />
<glyph unicode="&#xA7;" horiz-adv-x="549" d="M63 523Q63 608 122 654T286 700Q390 700 446 648T505 495H393Q390 551 366 576T287 602Q239 602 211 579T182 521Q182 502 187 489T208 466T249 446T317 428Q420 405 467 359T514 231Q514 175 489 132T418 65Q498 12 498 -82Q498 -169 437 -217T269 -266Q219 -266 177 -255T103 -219T53 -156T35 -63H157Q157 -88 165 -108T188 -142T221 -164T258 -172Q312 -172 341 -149T370 -84Q370 -63 364 -48T343 -22T303 -1T240 17Q168 34 128 59T64 126Q42 168 42 219Q42 284 67 322T146 381Q103 407 83 441T63 523ZM405 220Q405 262 375 289T294 323Q268 327 242 324T196 309T164 276T151 224Q151 175 190 147T299 118Q347 118 376 145T405 220Z"  />
<glyph unicode="&#xA8;" horiz-adv-x="257" d="M102 572Q102 549 86 534T49 518Q26 518 10 534T-7 573Q-7 596 9 612T47 629Q70 629 86 612T102 572ZM264 570Q264 548 249 533T211 517Q188 517 172 532T155 571Q154 594 170 610T209 627Q232 627 248 611T264 570Z"  />
<glyph unicode="&#xA9;" horiz-adv-x="720" d="M702 314Q702 242 675 180T602 70T493 -4T360 -31Q289 -31 227 -4T119 71T45 181T18 317Q18 387 45 448T119 556T230 628T365 655Q435 655 496 629T603 556T675 447T702 314ZM655 313Q655 374 632 428T568 522T474 586T358 609Q299 609 246 587T154 525T91 434T67 322Q66 258 89 202T152 103T247 37T362 13Q422 13 475 36T568 100T631 196T654 313H655ZM516 243Q508 180 469 144T369 107Q333 107 303 121T250 162T216 223T204 302Q204 344 216 378T251 437T304 475T373 489Q435 489 472 455T516 357H459Q447 440 375 440Q326 440 296 402T265 301Q265 238 293 199T369 159Q404 159 427 180T460 243H516Z"  />
<glyph unicode="&#xAA;" horiz-adv-x="296" d="M248 489Q248 461 272 461Q278 461 287 465Q287 457 287 453T287 445T287 438T287 427Q270 417 252 417Q232 417 218 427T199 458Q170 417 124 417Q82 417 59 444T33 525Q31 593 68 631T174 670Q196 670 210 668T248 658V489ZM194 617Q188 619 178 619T165 620Q129 620 109 595T90 524Q92 469 134 469Q157 469 174 488T192 539Q193 540 193 552T194 577T194 603T194 617Z"  />
<glyph unicode="&#xAB;" horiz-adv-x="455" d="M416 53H326L225 225L320 394H413L321 226L416 53ZM231 53H141L38 225L136 394H228L136 225L231 53Z"  />
<glyph unicode="&#xAC;" horiz-adv-x="499" d="M503 139H409V306H16V398H503V139Z"  />
<glyph unicode="&#xAD;" horiz-adv-x="260" d="M244 189H16V266H244V189Z"  />
<glyph unicode="&#xAE;" horiz-adv-x="444" d="M427 499Q427 459 411 424T368 363T303 321T224 306Q181 306 144 321T78 362T34 422T17 497Q17 539 33 575T78 639T145 682T228 698Q269 698 305 683T369 640T411 577T427 499ZM397 498Q397 534 384 565T347 621T292 658T225 672Q188 672 155 659T98 622T59 569T45 503Q45 468 59 437T97 383T154 347T225 333Q261 333 292 346T346 381T383 434T397 498ZM235 602Q303 602 303 553Q303 516 261 502Q272 498 276 491T283 473T290 444T304 403H269Q262 420 259 436T252 464T242 483T224 491H190V403H159V602H235ZM227 518Q245 518 256 526T268 549Q268 560 260 567T238 575H190V518H227Z"  />
<glyph unicode="&#xAF;" horiz-adv-x="257" d="M274 514H-17V591H274V514Z"  />
<glyph unicode="&#xB0;" horiz-adv-x="369" d="M347 539Q347 505 334 475T299 423T246 387T182 374Q149 374 120 387T69 422T35 473T22 537Q22 571 34 600T69 652T120 687T184 700Q218 700 247 688T299 653T334 602T347 539ZM289 538Q289 560 281 579T258 612T225 634T183 643Q162 643 144 635T111 612T88 579T80 538Q80 516 88 497T110 464T143 441T183 433Q205 433 224 441T257 463T280 497T289 538Z"  />
<glyph unicode="&#xB1;" horiz-adv-x="549" d="M527 216H322V-1H223V216H23V308H224L222 506H322V308H527V216ZM520 -117H23V-31H520V-117Z"  />
<glyph unicode="&#xB2;" horiz-adv-x="370" d="M339 278H29V332Q39 342 58 360T99 398T137 434T160 456Q184 480 200 497T225 529T239 556T242 581Q240 605 221 620T175 636Q118 636 87 562L26 600Q47 651 83 679T184 707Q250 707 290 675T335 588Q338 537 309 495T228 409L154 346H339V278Z"  />
<glyph unicode="&#xB3;" horiz-adv-x="389" d="M252 497Q292 489 315 464T340 397Q342 338 301 304T186 269Q133 269 94 285T20 340L65 391Q92 365 118 353T177 340Q209 340 229 357T248 400Q247 461 132 461Q128 461 116 461T99 460V533Q118 530 134 530Q165 529 185 533T217 545T232 565T236 590Q236 613 218 624T174 635Q146 635 123 624T76 590L34 648Q61 677 97 691T185 706Q248 706 286 677T327 600Q328 562 311 537T252 497Z"  />
<glyph unicode="&#xB4;" horiz-adv-x="257" d="M298 632L160 506H86L156 632H298Z"  />
<glyph unicode="&#xB5;" horiz-adv-x="543" d="M456 440Q456 426 456 398T455 337T454 269T454 204T453 156T453 136Q454 126 455 115T461 95T474 80T498 74Q507 74 520 79T544 91Q544 74 545 56T545 21Q539 15 528 10T503 1T476 -5T453 -8Q427 -8 403 5T365 60Q339 19 309 6T246 -8Q230 -8 205 -2T160 25Q157 -21 149 -73T127 -165Q99 -163 78 -162T36 -158Q48 -116 57 -53T73 80T81 219T83 340Q82 362 81 388T76 440H175Q176 429 177 421T178 406T179 393T180 377Q181 351 181 319T181 256T180 198T181 156Q183 126 197 103T247 79Q277 79 297 96T330 142T349 206T355 277Q355 299 355 316T355 351T355 390T356 440H456Z"  />
<glyph unicode="&#xB6;" horiz-adv-x="549" d="M556 631H496V-273H427V631H324V-273H255V248Q205 248 164 263T92 308T46 379T29 474Q29 584 91 641T270 699H556V631ZM255 631Q176 629 140 588T103 474Q103 399 143 356T255 313V631Z"  />
<glyph unicode="&#xB7;" horiz-adv-x="264" d="M196 321Q196 295 178 277T134 258Q108 258 89 276T69 323Q69 349 86 367T128 385Q157 385 176 366T196 321Z"  />
<glyph unicode="&#xB8;" horiz-adv-x="257" d="M153 -51Q189 -52 214 -70T240 -122Q240 -164 207 -186T113 -209Q98 -209 87 -209T65 -206T43 -201T17 -191L27 -136Q46 -144 66 -149T103 -154Q129 -154 145 -144T161 -116Q161 -104 152 -95T128 -86Q125 -86 121 -87T111 -90L92 -63L107 8H164L153 -51Z"  />
<glyph unicode="&#xB9;" horiz-adv-x="389" d="M248 275H161V606Q148 595 134 584T104 563L62 620Q68 624 83 635T116 660T147 684T168 701H248V275Z"  />
<glyph unicode="&#xBA;" horiz-adv-x="295" d="M265 551Q267 488 236 452T148 416Q94 416 63 448T30 539Q28 602 59 637T148 673Q202 673 232 642T265 551ZM208 551Q207 585 191 604T148 623Q119 623 103 601T89 538Q90 503 105 485T148 466Q177 466 193 489T208 551Z"  />
<glyph unicode="&#xBB;" horiz-adv-x="455" d="M422 227L331 53H243L324 223L218 394H312L422 227ZM235 227L146 53H58L139 224L33 394H127L235 227Z"  />
<glyph unicode="&#xBC;" horiz-adv-x="862" d="M218 275H132V606Q119 595 105 584T75 563L34 620Q40 624 55 635T87 660T119 685T140 702H218V275ZM629 702L236 -7H141L533 702H629ZM824 100H770V-1H688V100H490V164L646 423H741L586 168H688V295H770V168H824V100Z"  />
<glyph unicode="&#xBD;" horiz-adv-x="862" d="M216 276H131V605Q118 594 104 584T74 563L34 618Q40 622 55 633T86 657T118 682T139 699H216V276ZM617 702L227 -7H133L524 702H617ZM823 -1H515V54Q525 64 544 82T583 119T621 155T644 177Q668 201 684 218T710 250T724 276T728 301Q727 325 708 340T660 356Q601 356 570 283L511 320Q532 371 568 399T669 427Q735 427 776 394T820 308Q822 257 792 216T713 129Q709 125 699 117T677 98T655 80T639 67H823V-1Z"  />
<glyph unicode="&#xBE;" horiz-adv-x="862" d="M247 497Q287 489 310 464T335 397Q337 338 296 304T181 269Q128 269 89 285T15 340L60 391Q87 365 113 353T172 340Q204 340 224 357T243 400Q242 461 127 461Q123 461 111 461T94 460V533Q113 530 129 530Q160 529 180 533T212 545T227 565T231 590Q231 613 213 624T169 635Q141 635 118 624T71 590L29 648Q56 677 92 691T180 706Q243 706 281 677T322 600Q323 562 306 537T247 497ZM686 703L294 -7H199L591 703H686ZM824 97H773V-3H690V97H492V161L648 420H743L589 165H690V292H773V165H824V97Z"  />
<glyph unicode="&#xBF;" horiz-adv-x="432" d="M328 645Q328 617 309 598T264 578Q235 578 215 598T194 647Q194 674 213 692T259 711Q287 711 307 692T328 645ZM312 289Q305 290 300 290T289 290Q228 292 190 266T152 191Q152 144 182 115T261 86Q288 86 314 94T385 125L401 25Q363 5 328 -3T252 -12Q204 -12 165 2T99 44T56 108T40 192Q40 273 84 322T210 383V499H312V289Z"  />
<glyph unicode="&#xC0;" horiz-adv-x="674" d="M669 0H547L464 215H204L121 0H5L280 699H396L669 0ZM431 304L331 564L237 304H431ZM400 748H326L171 874H313L400 748Z"  />
<glyph unicode="&#xC1;" horiz-adv-x="674" d="M669 0H547L464 215H204L121 0H5L280 699H396L669 0ZM431 304L331 564L237 304H431ZM504 874L366 748H292L362 874H504Z"  />
<glyph unicode="&#xC2;" horiz-adv-x="674" d="M669 0H547L464 215H204L121 0H5L280 699H396L669 0ZM431 304L331 564L237 304H431ZM500 748H416L338 813L251 748H169L274 875H408L500 748Z"  />
<glyph unicode="&#xC3;" horiz-adv-x="674" d="M669 0H547L464 215H204L121 0H5L280 699H396L669 0ZM431 304L331 564L237 304H431ZM402 847Q422 847 432 859T446 901H499Q497 823 473 790T401 757Q378 757 362 765T330 782T299 799T264 807Q227 807 224 752H170Q173 832 194 864T260 897Q282 897 300 889T335 872T368 855T402 847Z"  />
<glyph unicode="&#xC4;" horiz-adv-x="674" d="M669 0H547L464 215H204L121 0H5L280 699H396L669 0ZM431 304L331 564L237 304H431ZM308 814Q308 791 292 776T255 760Q232 760 216 776T199 815Q199 838 215 854T253 871Q276 871 292 854T308 814ZM470 812Q470 790 455 775T417 759Q394 759 378 774T361 813Q360 836 376 852T415 869Q438 869 454 853T470 812Z"  />
<glyph unicode="&#xC5;" horiz-adv-x="674" d="M669 0H547L464 215H204L121 0H5L280 699H396L669 0ZM431 304L331 564L237 304H431ZM435 845Q435 825 428 807T407 776T376 756T338 748Q317 748 299 755T266 776T244 808T235 846Q235 867 242 885T264 917T296 939T335 947Q356 947 374 939T405 917T427 885T435 845ZM388 846Q388 869 373 884T336 900Q314 900 298 885T281 847Q281 825 297 810T337 795Q358 795 373 810T388 846Z"  />
<glyph unicode="&#xC6;" horiz-adv-x="967" d="M924 606H603L642 391H896V299H657L696 92H927V0H601L544 299H317L134 0H10L440 698H924V606ZM529 391L491 606L369 391H529Z"  />
<glyph unicode="&#xC7;" horiz-adv-x="634" d="M606 110Q558 49 497 19T368 -14L360 -55Q410 -59 436 -81T463 -143Q463 -191 422 -218T307 -245Q289 -245 275 -244T249 -240T224 -233T196 -223L209 -158Q219 -163 233 -167T260 -175T283 -179T299 -181Q328 -181 349 -169T370 -137Q370 -121 358 -110T326 -99Q323 -99 319 -99T308 -101L284 -70L298 -9Q234 5 189 35T115 111T73 217T59 350Q59 434 80 500T141 614T237 686T365 711Q445 711 503 680T604 583L537 520Q504 570 464 591T371 613Q326 613 290 595T229 543T191 460T178 350Q178 225 227 157T365 88Q417 88 458 110T547 185L606 110Z"  />
<glyph unicode="&#xC8;" horiz-adv-x="525" d="M485 0H84V698H480V601H198V404H454V309H198V92H485V0ZM335 748H261L106 874H248L335 748Z"  />
<glyph unicode="&#xC9;" horiz-adv-x="525" d="M485 0H84V698H480V601H198V404H454V309H198V92H485V0ZM439 874L301 748H227L297 874H439Z"  />
<glyph unicode="&#xCA;" horiz-adv-x="525" d="M485 0H84V698H480V601H198V404H454V309H198V92H485V0ZM435 748H351L273 813L186 748H104L209 875H343L435 748Z"  />
<glyph unicode="&#xCB;" horiz-adv-x="525" d="M485 0H84V698H480V601H198V404H454V309H198V92H485V0ZM243 814Q243 791 227 776T190 760Q167 760 151 776T134 815Q134 838 150 854T188 871Q211 871 227 854T243 814ZM405 812Q405 790 390 775T352 759Q329 759 313 774T296 813Q295 836 311 852T350 869Q373 869 389 853T405 812Z"  />
<glyph unicode="&#xCC;" horiz-adv-x="262" d="M187 0H75V699H187V0ZM184 748H110L-45 874H97L184 748Z"  />
<glyph unicode="&#xCD;" horiz-adv-x="262" d="M187 0H75V699H187V0ZM300 874L162 748H88L158 874H300Z"  />
<glyph unicode="&#xCE;" horiz-adv-x="262" d="M187 0H75V699H187V0ZM297 748H213L135 813L48 748H-34L71 875H205L297 748Z"  />
<glyph unicode="&#xCF;" horiz-adv-x="262" d="M187 0H75V699H187V0ZM104 814Q104 791 88 776T51 760Q28 760 12 776T-5 815Q-5 838 11 854T49 871Q72 871 88 854T104 814ZM266 812Q266 790 251 775T213 759Q190 759 174 774T157 813Q156 836 172 852T211 869Q234 869 250 853T266 812Z"  />
<glyph unicode="&#xD0;" horiz-adv-x="726" d="M98 694Q104 694 125 695T173 697T228 700T275 702Q355 702 426 685T551 627T636 522T667 363Q667 275 644 207T572 92T449 21T271 -3Q224 -3 184 -2T98 6V322H28V390H98V694ZM218 96Q229 95 250 93T288 91Q348 91 394 109T473 162T521 245T538 355Q538 418 520 465T469 543T390 589T286 604Q266 604 251 604T218 603V390H350V322H218V96Z"  />
<glyph unicode="&#xD1;" horiz-adv-x="741" d="M658 0H542L251 433Q240 449 230 465T211 496T196 522T187 539Q188 527 189 510T192 472T194 429T195 387V0H83V698H199L489 264Q506 239 521 216T553 163Q551 187 550 205T548 238T547 269T547 302V698H658V0ZM438 847Q458 847 468 859T482 901H535Q533 823 509 790T437 757Q414 757 398 765T366 782T335 799T300 807Q263 807 260 752H206Q209 832 230 864T296 897Q318 897 336 889T371 872T404 855T438 847Z"  />
<glyph unicode="&#xD2;" horiz-adv-x="752" d="M686 355Q686 176 608 82T375 -12Q227 -12 147 81T67 345Q67 429 88 496T149 611T247 684T380 710Q455 710 512 686T607 615T666 503T686 355ZM562 356Q562 477 514 543T378 609Q289 609 240 540T191 337Q191 216 239 149T375 82Q463 82 512 152T562 356ZM441 748H367L212 874H354L441 748Z"  />
<glyph unicode="&#xD3;" horiz-adv-x="752" d="M686 355Q686 176 608 82T375 -12Q227 -12 147 81T67 345Q67 429 88 496T149 611T247 684T380 710Q455 710 512 686T607 615T666 503T686 355ZM562 356Q562 477 514 543T378 609Q289 609 240 540T191 337Q191 216 239 149T375 82Q463 82 512 152T562 356ZM545 874L407 748H333L403 874H545Z"  />
<glyph unicode="&#xD4;" horiz-adv-x="752" d="M686 355Q686 176 608 82T375 -12Q227 -12 147 81T67 345Q67 429 88 496T149 611T247 684T380 710Q455 710 512 686T607 615T666 503T686 355ZM562 356Q562 477 514 543T378 609Q289 609 240 540T191 337Q191 216 239 149T375 82Q463 82 512 152T562 356ZM541 748H457L379 813L292 748H210L315 875H449L541 748Z"  />
<glyph unicode="&#xD5;" horiz-adv-x="752" d="M686 355Q686 176 608 82T375 -12Q227 -12 147 81T67 345Q67 429 88 496T149 611T247 684T380 710Q455 710 512 686T607 615T666 503T686 355ZM562 356Q562 477 514 543T378 609Q289 609 240 540T191 337Q191 216 239 149T375 82Q463 82 512 152T562 356ZM443 847Q463 847 473 859T487 901H540Q538 823 514 790T442 757Q419 757 403 765T371 782T340 799T305 807Q268 807 265 752H211Q214 832 235 864T301 897Q323 897 341 889T376 872T409 855T443 847Z"  />
<glyph unicode="&#xD6;" horiz-adv-x="752" d="M686 355Q686 176 608 82T375 -12Q227 -12 147 81T67 345Q67 429 88 496T149 611T247 684T380 710Q455 710 512 686T607 615T666 503T686 355ZM562 356Q562 477 514 543T378 609Q289 609 240 540T191 337Q191 216 239 149T375 82Q463 82 512 152T562 356ZM349 814Q349 791 333 776T296 760Q273 760 257 776T240 815Q240 838 256 854T294 871Q317 871 333 854T349 814ZM511 812Q511 790 496 775T458 759Q435 759 419 774T402 813Q401 836 417 852T456 869Q479 869 495 853T511 812Z"  />
<glyph unicode="&#xD7;" horiz-adv-x="524" d="M499 94L428 22L262 188L98 22L25 95L190 261L27 422L98 495L261 331L423 494L496 421L333 259L499 94Z"  />
<glyph unicode="&#xD8;" horiz-adv-x="751" d="M714 695L619 588Q651 541 665 486T680 354Q680 268 659 201T597 86T500 13T369 -12Q336 -12 310 -9T260 3T216 25T172 58L86 -38L37 7L126 108Q91 157 76 213T61 347Q61 430 83 497T146 612T246 685T378 711Q439 711 486 694T574 639L659 736L714 695ZM496 547Q445 603 369 603Q283 603 234 534T185 340Q185 319 186 303T190 272T198 240T210 205L496 547ZM247 147Q277 118 306 106T374 93Q413 93 446 110T504 159T542 238T556 342Q556 386 551 419T532 487L247 147Z"  />
<glyph unicode="&#xD9;" horiz-adv-x="721" d="M637 293Q637 201 617 142T561 48T474 0T363 -14Q302 -14 251 -1T162 47T105 141T84 290V698H201V291Q201 227 214 186T249 122T300 89T362 80Q392 80 420 89T471 122T506 188T520 298V698H637V293ZM426 748H352L197 874H339L426 748Z"  />
<glyph unicode="&#xDA;" horiz-adv-x="721" d="M637 293Q637 201 617 142T561 48T474 0T363 -14Q302 -14 251 -1T162 47T105 141T84 290V698H201V291Q201 227 214 186T249 122T300 89T362 80Q392 80 420 89T471 122T506 188T520 298V698H637V293ZM530 874L392 748H318L388 874H530Z"  />
<glyph unicode="&#xDB;" horiz-adv-x="721" d="M637 293Q637 201 617 142T561 48T474 0T363 -14Q302 -14 251 -1T162 47T105 141T84 290V698H201V291Q201 227 214 186T249 122T300 89T362 80Q392 80 420 89T471 122T506 188T520 298V698H637V293ZM526 748H442L364 813L277 748H195L300 875H434L526 748Z"  />
<glyph unicode="&#xDC;" horiz-adv-x="721" d="M637 293Q637 201 617 142T561 48T474 0T363 -14Q302 -14 251 -1T162 47T105 141T84 290V698H201V291Q201 227 214 186T249 122T300 89T362 80Q392 80 420 89T471 122T506 188T520 298V698H637V293ZM334 814Q334 791 318 776T281 760Q258 760 242 776T225 815Q225 838 241 854T279 871Q302 871 318 854T334 814ZM496 812Q496 790 481 775T443 759Q420 759 404 774T387 813Q386 836 402 852T441 869Q464 869 480 853T496 812Z"  />
<glyph unicode="&#xDD;" horiz-adv-x="594" d="M584 698L356 325V0H239V320L10 698H135L298 414L457 698H584ZM466 874L328 748H254L324 874H466Z"  />
<glyph unicode="&#xDE;" horiz-adv-x="579" d="M208 594Q213 594 222 594T240 595T257 595T267 596Q332 596 383 585T469 548T523 484T542 388Q542 338 523 300T470 235T392 196T297 182Q282 182 272 182T253 182T234 182T208 184V0H91V699H208V594ZM208 276Q218 274 225 274T238 273T251 272T270 272Q300 272 326 278T373 298T406 334T418 391Q418 422 406 444T374 479T326 498T267 504Q250 504 237 504T208 502V276Z"  />
<glyph unicode="&#xDF;" horiz-adv-x="557" d="M357 355Q357 335 373 318T427 275Q486 237 508 202T530 124Q530 60 487 25T367 -11Q329 -11 301 -6T241 14L261 97Q284 86 302 79T346 71Q381 71 401 84T421 128Q421 140 418 150T407 169T384 189T345 214Q301 240 282 272T262 347Q262 421 330 453Q334 467 335 476T336 499Q336 547 317 574T262 602Q241 602 226 593T203 560T191 500T188 405Q188 391 188 360T189 290T190 208T190 128T191 62T191 23Q190 -65 174 -120T131 -205T68 -247T-11 -258Q-29 -258 -41 -256T-73 -249L-70 -169Q-51 -174 -42 -175T-19 -176Q14 -176 36 -167T71 -135T89 -72T95 30Q95 34 95 51T95 92T94 146T93 206Q92 276 92 363H16V440H89Q89 509 100 558T134 637T188 682T261 696Q342 696 385 647T429 508Q429 491 429 479T426 457T421 435T411 410Q379 397 368 386T357 355Z"  />
<glyph unicode="&#xE0;" horiz-adv-x="535" d="M371 64Q346 27 306 9T223 -10Q147 -10 100 43T52 199Q52 257 70 304T122 383T204 433T313 451Q333 451 350 450T385 447T421 440T460 428V126Q460 103 460 81T463 41Q465 20 467 0H377Q375 14 374 26Q373 37 372 47T371 64ZM362 349Q342 354 326 355T294 357Q231 357 194 315T157 194Q157 140 180 112T243 84Q267 84 289 95T327 126T352 176T362 240V349ZM343 506H269L114 632H256L343 506Z"  />
<glyph unicode="&#xE1;" horiz-adv-x="535" d="M371 64Q346 27 306 9T223 -10Q147 -10 100 43T52 199Q52 257 70 304T122 383T204 433T313 451Q333 451 350 450T385 447T421 440T460 428V126Q460 103 460 81T463 41Q465 20 467 0H377Q375 14 374 26Q373 37 372 47T371 64ZM362 349Q342 354 326 355T294 357Q231 357 194 315T157 194Q157 140 180 112T243 84Q267 84 289 95T327 126T352 176T362 240V349ZM447 632L309 506H235L305 632H447Z"  />
<glyph unicode="&#xE2;" horiz-adv-x="535" d="M371 64Q346 27 306 9T223 -10Q147 -10 100 43T52 199Q52 257 70 304T122 383T204 433T313 451Q333 451 350 450T385 447T421 440T460 428V126Q460 103 460 81T463 41Q465 20 467 0H377Q375 14 374 26Q373 37 372 47T371 64ZM362 349Q342 354 326 355T294 357Q231 357 194 315T157 194Q157 140 180 112T243 84Q267 84 289 95T327 126T352 176T362 240V349ZM443 506H359L281 571L194 506H112L217 633H351L443 506Z"  />
<glyph unicode="&#xE3;" horiz-adv-x="535" d="M371 64Q346 27 306 9T223 -10Q147 -10 100 43T52 199Q52 257 70 304T122 383T204 433T313 451Q333 451 350 450T385 447T421 440T460 428V126Q460 103 460 81T463 41Q465 20 467 0H377Q375 14 374 26Q373 37 372 47T371 64ZM362 349Q342 354 326 355T294 357Q231 357 194 315T157 194Q157 140 180 112T243 84Q267 84 289 95T327 126T352 176T362 240V349ZM345 605Q365 605 375 617T389 659H442Q440 581 416 548T344 515Q321 515 305 523T273 540T242 557T207 565Q170 565 167 510H113Q116 590 137 622T203 655Q225 655 243 647T278 630T311 613T345 605Z"  />
<glyph unicode="&#xE4;" horiz-adv-x="535" d="M371 64Q346 27 306 9T223 -10Q147 -10 100 43T52 199Q52 257 70 304T122 383T204 433T313 451Q333 451 350 450T385 447T421 440T460 428V126Q460 103 460 81T463 41Q465 20 467 0H377Q375 14 374 26Q373 37 372 47T371 64ZM362 349Q342 354 326 355T294 357Q231 357 194 315T157 194Q157 140 180 112T243 84Q267 84 289 95T327 126T352 176T362 240V349ZM251 572Q251 549 235 534T198 518Q175 518 159 534T142 573Q142 596 158 612T196 629Q219 629 235 612T251 572ZM413 570Q413 548 398 533T360 517Q337 517 321 532T304 571Q303 594 319 610T358 627Q381 627 397 611T413 570Z"  />
<glyph unicode="&#xE5;" horiz-adv-x="535" d="M371 64Q346 27 306 9T223 -10Q147 -10 100 43T52 199Q52 257 70 304T122 383T204 433T313 451Q333 451 350 450T385 447T421 440T460 428V126Q460 103 460 81T463 41Q465 20 467 0H377Q375 14 374 26Q373 37 372 47T371 64ZM362 349Q342 354 326 355T294 357Q231 357 194 315T157 194Q157 140 180 112T243 84Q267 84 289 95T327 126T352 176T362 240V349ZM378 603Q378 583 371 565T350 534T319 514T281 506Q260 506 242 513T209 534T187 566T178 604Q178 625 185 643T207 675T239 697T278 705Q299 705 317 697T348 675T370 643T378 603ZM331 604Q331 627 316 642T279 658Q257 658 241 643T224 605Q224 583 240 568T280 553Q301 553 316 568T331 604Z"  />
<glyph unicode="&#xE6;" horiz-adv-x="774" d="M430 368Q451 403 488 428T578 453Q610 453 637 443T685 416T717 375T729 324Q729 253 674 213T505 174Q494 174 485 174T462 175Q467 127 497 99T575 70Q605 70 636 81T704 119L708 32Q670 7 638 -2T565 -12Q499 -12 456 15T388 101Q359 44 321 18T228 -9Q148 -9 103 46T58 200Q58 318 123 384T306 451Q339 451 368 446T433 429Q431 413 431 402T430 368ZM627 322Q627 343 611 357T570 371Q549 371 530 362T495 336T471 297T460 250Q471 248 475 248T487 247Q514 247 539 252T584 266T615 290T627 322ZM354 347Q333 352 322 354T296 357Q234 357 199 315T163 199Q163 146 183 118T241 89Q294 89 324 137T354 270V347Z"  />
<glyph unicode="&#xE7;" horiz-adv-x="426" d="M396 25Q361 5 333 -3T269 -11L263 -44Q304 -46 326 -65T348 -117Q348 -157 316 -179T223 -202Q208 -202 197 -202T175 -199T153 -194T126 -184L136 -129Q154 -138 173 -142T211 -147Q237 -147 253 -138T269 -112Q269 -98 259 -90T235 -81Q232 -81 228 -81T219 -83L199 -56L210 -5Q56 32 56 217Q56 326 112 388T276 451Q315 451 339 445T390 425L376 333Q360 340 349 344T327 352T306 356T281 357Q225 357 193 318T161 212Q161 149 192 115T279 80Q307 80 332 88T389 117L396 25Z"  />
<glyph unicode="&#xE8;" horiz-adv-x="464" d="M391 26Q357 5 325 -4T253 -13Q159 -13 106 44T52 202Q52 257 68 303T113 382T182 433T271 451Q342 451 383 417T424 322Q424 253 363 213T195 173Q186 173 179 173T157 174Q162 124 189 97T261 69Q323 69 391 113V26ZM322 318Q322 339 306 354T266 369Q246 369 228 360T196 334T172 295T159 248Q172 246 179 245T198 244Q255 244 288 264T322 318ZM307 506H233L78 632H220L307 506Z"  />
<glyph unicode="&#xE9;" horiz-adv-x="464" d="M391 26Q357 5 325 -4T253 -13Q159 -13 106 44T52 202Q52 257 68 303T113 382T182 433T271 451Q342 451 383 417T424 322Q424 253 363 213T195 173Q186 173 179 173T157 174Q162 124 189 97T261 69Q323 69 391 113V26ZM322 318Q322 339 306 354T266 369Q246 369 228 360T196 334T172 295T159 248Q172 246 179 245T198 244Q255 244 288 264T322 318ZM411 632L273 506H199L269 632H411Z"  />
<glyph unicode="&#xEA;" horiz-adv-x="464" d="M391 26Q357 5 325 -4T253 -13Q159 -13 106 44T52 202Q52 257 68 303T113 382T182 433T271 451Q342 451 383 417T424 322Q424 253 363 213T195 173Q186 173 179 173T157 174Q162 124 189 97T261 69Q323 69 391 113V26ZM322 318Q322 339 306 354T266 369Q246 369 228 360T196 334T172 295T159 248Q172 246 179 245T198 244Q255 244 288 264T322 318ZM407 506H323L245 571L158 506H76L181 633H315L407 506Z"  />
<glyph unicode="&#xEB;" horiz-adv-x="464" d="M391 26Q357 5 325 -4T253 -13Q159 -13 106 44T52 202Q52 257 68 303T113 382T182 433T271 451Q342 451 383 417T424 322Q424 253 363 213T195 173Q186 173 179 173T157 174Q162 124 189 97T261 69Q323 69 391 113V26ZM322 318Q322 339 306 354T266 369Q246 369 228 360T196 334T172 295T159 248Q172 246 179 245T198 244Q255 244 288 264T322 318ZM215 572Q215 549 199 534T162 518Q139 518 123 534T106 573Q106 596 122 612T160 629Q183 629 199 612T215 572ZM377 570Q377 548 362 533T324 517Q301 517 285 532T268 571Q267 594 283 610T322 627Q345 627 361 611T377 570Z"  />
<glyph unicode="&#xEC;" horiz-adv-x="257" d="M180 0H78V440H180V0ZM180 506H106L-49 632H93L180 506Z"  />
<glyph unicode="&#xED;" horiz-adv-x="257" d="M180 0H78V440H180V0ZM298 632L160 506H86L156 632H298Z"  />
<glyph unicode="&#xEE;" horiz-adv-x="257" d="M180 0H78V440H180V0ZM294 506H210L132 571L45 506H-37L68 633H202L294 506Z"  />
<glyph unicode="&#xEF;" horiz-adv-x="257" d="M180 0H78V440H180V0ZM103 572Q103 549 87 534T50 518Q27 518 11 534T-6 573Q-6 596 10 612T48 629Q71 629 87 612T103 572ZM265 570Q265 548 250 533T212 517Q189 517 173 532T156 571Q155 594 171 610T210 627Q233 627 249 611T265 570Z"  />
<glyph unicode="&#xF0;" horiz-adv-x="541" d="M365 585Q386 559 407 525T446 449T474 357T485 247Q485 126 431 57T269 -12Q217 -12 177 4T110 50T69 121T55 214Q55 263 69 306T110 380T175 430T264 448Q295 448 315 440T359 415Q348 460 328 490T285 544L188 495L166 545L248 581Q234 593 214 603T175 625L200 678Q210 675 225 669T256 655T289 639T318 621Q328 626 345 634T380 650Q399 660 421 671L441 625L365 585ZM380 219Q380 248 374 273T355 317T322 347T273 358Q220 358 190 320T160 211Q160 184 166 160T185 117T218 89T267 78Q297 78 318 90T353 121T373 166T380 219Z"  />
<glyph unicode="&#xF1;" horiz-adv-x="539" d="M177 0H75V299Q75 318 74 338T69 376T62 411T54 440H155Q158 432 160 427T163 415T166 400T170 379Q202 417 238 435T315 453Q347 453 374 442T421 409T452 355T464 283V0H358V270Q358 295 352 312T336 340T314 354T289 359Q271 359 252 350T216 321T188 268T177 189V0ZM337 605Q357 605 367 617T381 659H434Q432 581 408 548T336 515Q313 515 297 523T265 540T234 557T199 565Q162 565 159 510H105Q108 590 129 622T195 655Q217 655 235 647T270 630T303 613T337 605Z"  />
<glyph unicode="&#xF2;" horiz-adv-x="533" d="M482 224Q482 168 467 124T423 50T356 3T267 -13Q169 -13 111 47T53 218Q53 329 110 391T267 453Q365 453 423 394T482 224ZM265 77Q316 77 346 114T377 225Q377 291 348 327T268 363Q215 363 187 325T158 216Q158 149 185 113T265 77ZM331 506H257L102 632H244L331 506Z"  />
<glyph unicode="&#xF3;" horiz-adv-x="533" d="M482 224Q482 168 467 124T423 50T356 3T267 -13Q169 -13 111 47T53 218Q53 329 110 391T267 453Q365 453 423 394T482 224ZM265 77Q316 77 346 114T377 225Q377 291 348 327T268 363Q215 363 187 325T158 216Q158 149 185 113T265 77ZM435 632L297 506H223L293 632H435Z"  />
<glyph unicode="&#xF4;" horiz-adv-x="533" d="M482 224Q482 168 467 124T423 50T356 3T267 -13Q169 -13 111 47T53 218Q53 329 110 391T267 453Q365 453 423 394T482 224ZM265 77Q316 77 346 114T377 225Q377 291 348 327T268 363Q215 363 187 325T158 216Q158 149 185 113T265 77ZM431 506H347L269 571L182 506H100L205 633H339L431 506Z"  />
<glyph unicode="&#xF5;" horiz-adv-x="533" d="M482 224Q482 168 467 124T423 50T356 3T267 -13Q169 -13 111 47T53 218Q53 329 110 391T267 453Q365 453 423 394T482 224ZM265 77Q316 77 346 114T377 225Q377 291 348 327T268 363Q215 363 187 325T158 216Q158 149 185 113T265 77ZM333 605Q353 605 363 617T377 659H430Q428 581 404 548T332 515Q309 515 293 523T261 540T230 557T195 565Q158 565 155 510H101Q104 590 125 622T191 655Q213 655 231 647T266 630T299 613T333 605Z"  />
<glyph unicode="&#xF6;" horiz-adv-x="533" d="M482 224Q482 168 467 124T423 50T356 3T267 -13Q169 -13 111 47T53 218Q53 329 110 391T267 453Q365 453 423 394T482 224ZM265 77Q316 77 346 114T377 225Q377 291 348 327T268 363Q215 363 187 325T158 216Q158 149 185 113T265 77ZM239 572Q239 549 223 534T186 518Q163 518 147 534T130 573Q130 596 146 612T184 629Q207 629 223 612T239 572ZM401 570Q401 548 386 533T348 517Q325 517 309 532T292 571Q291 594 307 610T346 627Q369 627 385 611T401 570Z"  />
<glyph unicode="&#xF7;" horiz-adv-x="549" d="M339 423Q339 397 323 379T280 360Q253 360 234 377T215 421Q215 448 232 466T274 485Q302 485 320 467T339 423ZM526 208H23V300H526V208ZM339 89Q339 62 323 44T280 26Q253 26 234 43T215 87Q215 114 232 132T274 151Q302 151 320 133T339 89Z"  />
<glyph unicode="&#xF8;" horiz-adv-x="539" d="M502 430L443 366Q463 331 472 298T482 220Q482 111 428 49T276 -14Q234 -14 198 -2T137 35L77 -29L37 7L99 74Q60 126 60 222Q60 329 115 390T266 452Q307 452 340 441T406 405L463 465L502 430ZM341 336Q328 349 314 357T269 365Q218 365 189 331T160 228Q160 201 161 186T171 150L341 336ZM199 102Q214 88 228 80T272 72Q323 72 353 108T384 210Q384 236 382 253T371 291L199 102Z"  />
<glyph unicode="&#xF9;" horiz-adv-x="537" d="M361 440H463V129Q463 86 468 49T478 0H379Q375 8 373 23T368 57Q339 22 302 5T225 -12Q192 -12 165 -1T117 33T86 88T75 164Q75 205 76 239T77 305T77 369T70 440H176Q180 404 181 373T182 311T181 249T180 180Q180 150 185 130T201 99T224 83T252 78Q267 78 286 86T321 112T349 159T361 230V440ZM334 506H260L105 632H247L334 506Z"  />
<glyph unicode="&#xFA;" horiz-adv-x="537" d="M361 440H463V129Q463 86 468 49T478 0H379Q375 8 373 23T368 57Q339 22 302 5T225 -12Q192 -12 165 -1T117 33T86 88T75 164Q75 205 76 239T77 305T77 369T70 440H176Q180 404 181 373T182 311T181 249T180 180Q180 150 185 130T201 99T224 83T252 78Q267 78 286 86T321 112T349 159T361 230V440ZM438 632L300 506H226L296 632H438Z"  />
<glyph unicode="&#xFB;" horiz-adv-x="537" d="M361 440H463V129Q463 86 468 49T478 0H379Q375 8 373 23T368 57Q339 22 302 5T225 -12Q192 -12 165 -1T117 33T86 88T75 164Q75 205 76 239T77 305T77 369T70 440H176Q180 404 181 373T182 311T181 249T180 180Q180 150 185 130T201 99T224 83T252 78Q267 78 286 86T321 112T349 159T361 230V440ZM434 506H350L272 571L185 506H103L208 633H342L434 506Z"  />
<glyph unicode="&#xFC;" horiz-adv-x="537" d="M361 440H463V129Q463 86 468 49T478 0H379Q375 8 373 23T368 57Q339 22 302 5T225 -12Q192 -12 165 -1T117 33T86 88T75 164Q75 205 76 239T77 305T77 369T70 440H176Q180 404 181 373T182 311T181 249T180 180Q180 150 185 130T201 99T224 83T252 78Q267 78 286 86T321 112T349 159T361 230V440ZM242 572Q242 549 226 534T189 518Q166 518 150 534T133 573Q133 596 149 612T187 629Q210 629 226 612T242 572ZM404 570Q404 548 389 533T351 517Q328 517 312 532T295 571Q294 594 310 610T349 627Q372 627 388 611T404 570Z"  />
<glyph unicode="&#xFD;" horiz-adv-x="522" d="M447 -17Q447 -101 432 -156T389 -242T320 -286T228 -299Q191 -299 155 -288T89 -261L97 -183Q126 -200 158 -211T221 -222Q252 -222 275 -212T314 -177T337 -113T345 -15V53Q317 20 286 6T217 -9Q187 -9 161 1T116 32T86 85T75 162Q75 208 75 244T76 311T75 374T69 440H170Q178 368 178 304T177 171Q177 120 194 101T241 81Q286 81 315 120T345 236V440H447V-17ZM430 632L292 506H218L288 632H430Z"  />
<glyph unicode="&#xFE;" horiz-adv-x="537" d="M177 388Q203 416 235 434T310 452Q351 452 383 438T437 397T470 334T482 253Q482 198 469 151T431 68T370 13T286 -7Q252 -7 229 1T182 28V-294H80V697H177V388ZM182 119Q198 102 215 93T259 83Q314 83 345 126T377 243Q377 291 356 322T291 354Q264 354 244 343T210 311T189 265T182 208V119Z"  />
<glyph unicode="&#xFF;" horiz-adv-x="522" d="M447 -17Q447 -101 432 -156T389 -242T320 -286T228 -299Q191 -299 155 -288T89 -261L97 -183Q126 -200 158 -211T221 -222Q252 -222 275 -212T314 -177T337 -113T345 -15V53Q317 20 286 6T217 -9Q187 -9 161 1T116 32T86 85T75 162Q75 208 75 244T76 311T75 374T69 440H170Q178 368 178 304T177 171Q177 120 194 101T241 81Q286 81 315 120T345 236V440H447V-17ZM234 572Q234 549 218 534T181 518Q158 518 142 534T125 573Q125 596 141 612T179 629Q202 629 218 612T234 572ZM396 570Q396 548 381 533T343 517Q320 517 304 532T287 571Q286 594 302 610T341 627Q364 627 380 611T396 570Z"  />
<glyph unicode="&#x131;" horiz-adv-x="257" d="M180 0H78V440H180V0Z"  />
<glyph unicode="&#x152;" horiz-adv-x="1017" d="M578 698H974V602H697V396H946V304H697V92H977V0H575V78Q552 54 531 37T485 10T434 -6T372 -11Q299 -11 242 13T146 83T87 195T66 348Q66 523 148 615T388 707Q418 707 447 701T502 684T548 656T578 619V698ZM578 347Q578 442 552 497Q530 545 486 571T383 597Q289 597 240 531T190 340Q190 223 240 158T381 93Q425 93 461 108T523 155T563 234T578 347Z"  />
<glyph unicode="&#x153;" horiz-adv-x="789" d="M594 454Q661 454 702 418T744 322Q744 286 726 258T674 209T592 179T485 170Q492 122 519 97T592 71Q625 71 657 82T725 120L730 35Q703 12 662 1T575 -11Q527 -11 493 6T428 63Q402 24 363 4T267 -16Q169 -16 113 44T56 220Q56 330 112 391T270 452Q326 452 367 429T434 361Q489 454 594 454ZM648 320Q648 341 631 356T591 372Q562 372 538 355T499 306Q493 292 489 279T480 243Q558 241 603 261T648 320ZM378 216Q378 281 349 319T269 358Q217 358 189 321T161 217Q161 151 190 115T270 78Q321 78 349 114T378 216Z"  />
<glyph unicode="&#x160;" horiz-adv-x="537" d="M65 153Q120 115 168 98T260 80Q306 80 333 104T361 169Q361 187 356 202T337 232T303 262T249 295Q198 324 162 350T101 404T66 461T55 525Q55 608 110 658T271 708Q301 708 328 705T380 696T432 678T486 651L458 554Q408 588 368 601T283 614Q232 614 206 592T179 527Q179 494 206 468T294 406Q341 378 376 354T436 303T472 246T485 177Q485 136 471 102T429 43T358 4T259 -10Q230 -10 200 -5T140 9T82 31T30 63L65 153ZM434 875L333 748H199L103 875H188L268 810L353 875H434Z"  />
<glyph unicode="&#x161;" horiz-adv-x="408" d="M341 338Q308 358 276 366T214 374Q190 374 177 365T163 333Q163 313 181 299T242 260Q274 242 296 226T332 194T352 158T359 115Q359 56 319 21T205 -14Q157 -14 115 -4T41 26L57 108Q93 85 128 74T195 63Q225 63 239 75T254 109Q254 127 243 141T199 172Q160 193 134 211T90 248T66 287T58 332Q58 389 100 422T214 456Q252 456 284 449T354 421L341 338ZM372 633L271 506H137L41 633H126L206 568L291 633H372Z"  />
<glyph unicode="&#x178;" horiz-adv-x="594" d="M584 698L356 325V0H239V320L10 698H135L298 414L457 698H584ZM270 814Q270 791 254 776T217 760Q194 760 178 776T161 815Q161 838 177 854T215 871Q238 871 254 854T270 814ZM432 812Q432 790 417 775T379 759Q356 759 340 774T323 813Q322 836 338 852T377 869Q400 869 416 853T432 812Z"  />
<glyph unicode="&#x17D;" horiz-adv-x="555" d="M540 0H11V63L381 606H31V698H535V630L171 92H540V0ZM443 875L342 748H208L112 875H197L277 810L362 875H443Z"  />
<glyph unicode="&#x17E;" horiz-adv-x="415" d="M386 7Q357 2 313 1T212 -1Q197 -1 175 -1T127 0T75 1T27 2V83L248 363H46V440H381V369L148 82Q156 82 173 82T208 82T242 82T263 81Q301 81 330 82T386 89V7ZM373 633L272 506H138L42 633H127L207 568L292 633H373Z"  />
<glyph unicode="&#x192;" horiz-adv-x="549" d="M208 361Q208 462 219 529T256 636T320 692T415 709Q433 709 446 708T472 703T496 694T524 679L519 583Q505 592 494 598T473 608T451 613T426 615Q397 615 377 603T344 562T326 484T320 361H467V275H320V39Q320 -107 259 -181T82 -256Q71 -256 62 -256T44 -254T25 -250T1 -244V-152Q23 -158 35 -160T66 -162Q142 -162 175 -116T208 37V275H99V361H208Z"  />
<glyph unicode="&#x2C6;" horiz-adv-x="257" d="M294 506H210L132 571L45 506H-37L68 633H202L294 506Z"  />
<glyph unicode="&#x2C7;" horiz-adv-x="257" d="M294 633L193 506H59L-37 633H48L128 568L213 633H294Z"  />
<glyph unicode="&#x2DA;" horiz-adv-x="257" d="M229 603Q229 583 222 565T201 534T170 514T132 506Q111 506 93 513T60 534T38 566T29 604Q29 625 36 643T58 675T90 697T129 705Q150 705 168 697T199 675T221 643T229 603ZM182 604Q182 627 167 642T130 658Q108 658 92 643T75 605Q75 583 91 568T131 553Q152 553 167 568T182 604Z"  />
<glyph unicode="&#x2DC;" horiz-adv-x="257" d="M196 605Q216 605 226 617T240 659H293Q291 581 267 548T195 515Q172 515 156 523T124 540T93 557T58 565Q21 565 18 510H-36Q-33 590 -12 622T54 655Q76 655 94 647T129 630T162 613T196 605Z"  />
<glyph unicode="&#x2013;" horiz-adv-x="500" d="M500 189H0V266H500V189Z"  />
<glyph unicode="&#x2014;" horiz-adv-x="1000" d="M1000 189H0V266H1000V189Z"  />
<glyph unicode="&#x2018;" horiz-adv-x="252" d="M200 668Q167 634 154 610T141 558Q141 541 148 530T163 509T178 489T185 463Q185 446 172 435T136 423Q103 423 81 452T59 524Q59 573 84 620T154 699L200 668Z"  />
<glyph unicode="&#x2019;" horiz-adv-x="252" d="M48 452Q77 485 89 510T102 561Q102 577 95 589T79 613T63 636T56 661Q56 677 70 688T104 699Q139 699 161 670T184 597Q184 548 163 506T94 422L48 452Z"  />
<glyph unicode="&#x201A;" horiz-adv-x="252" d="M44 -130Q77 -99 90 -76T103 -24Q103 -10 97 1T83 23T69 47T62 74Q62 91 76 103T111 115Q128 115 143 107T170 85T188 53T195 14Q195 -20 185 -52T149 -113Q138 -127 127 -138T96 -163L44 -130Z"  />
<glyph unicode="&#x201C;" horiz-adv-x="432" d="M385 669Q353 635 341 611T329 559Q329 542 336 530T352 507T368 486T375 461Q375 445 361 434T325 423Q289 423 268 451T247 528Q247 575 270 619T338 700L385 669ZM201 668Q168 633 156 611T143 559Q143 543 149 531T164 509T178 488T185 463Q185 445 172 434T137 423Q104 423 83 452T61 525Q61 573 86 620T156 699L201 668Z"  />
<glyph unicode="&#x201D;" horiz-adv-x="432" d="M231 455Q259 478 274 505T289 565Q289 581 282 592T267 613T252 635T245 663Q245 678 258 688T290 699Q325 699 348 671T371 600Q371 575 368 554T355 513T327 471T277 424L231 455ZM49 452Q78 485 91 511T104 563Q104 579 97 590T81 612T65 634T58 660Q58 677 72 688T106 699Q141 699 163 670T186 597Q186 548 167 508T96 422L49 452Z"  />
<glyph unicode="&#x201E;" horiz-adv-x="432" d="M233 -130Q289 -83 289 -25Q289 -10 283 2T269 26T255 48T249 70Q249 87 262 98T295 110Q330 110 353 82T377 11Q377 -37 355 -79T281 -162L233 -130ZM49 -132Q103 -80 103 -27Q103 -12 97 0T82 23T68 46T61 70Q61 87 74 98T109 109Q143 109 165 80T188 9L189 10Q189 -38 165 -82T96 -162L49 -132Z"  />
<glyph unicode="&#x2020;" horiz-adv-x="499" d="M305 -277H195V329H23V426H195V699H305V426H470V329H305V-277Z"  />
<glyph unicode="&#x2021;" horiz-adv-x="499" d="M476 2H305Q305 -68 305 -106T305 -164T305 -191T304 -206T304 -228T304 -277H194V2H29V99H194V329H23V426H194V699H304V426H470V329H304V99H476V2Z"  />
<glyph unicode="&#x2022;" horiz-adv-x="239" d="M213 332Q213 312 206 296T187 266T158 246T122 239Q102 239 85 246T55 266T34 296T26 333Q26 352 33 369T52 399T81 419T117 427Q136 427 153 420T184 400T205 370T213 332Z"  />
<glyph unicode="&#x2026;" horiz-adv-x="504" d="M135 48Q135 26 120 10T83 -6Q60 -6 43 10T26 48Q26 71 40 88T76 106Q101 106 118 89T135 48ZM479 49Q479 26 464 10T426 -6Q403 -6 387 10T370 49Q370 72 384 88T421 104Q445 104 462 88T479 49ZM307 48Q307 25 292 9T254 -7Q231 -7 214 9T196 49Q196 72 212 88T250 104Q273 104 289 88T306 48H307Z"  />
<glyph unicode="&#x2030;" horiz-adv-x="1000" d="M866 352Q935 352 972 303T1009 168Q1009 85 972 37T869 -12Q803 -12 765 37T726 172Q726 256 764 304T866 352ZM530 352Q599 352 636 303T673 168Q673 85 636 37T533 -12Q467 -12 429 37T390 172Q390 256 428 304T530 352ZM570 679L193 0H115L490 679H570ZM295 509Q295 425 257 377T156 328Q91 328 52 377T12 508Q12 593 50 642T153 691Q219 691 257 643T295 509ZM933 173Q933 219 916 244T868 270Q837 270 819 243T801 168Q801 122 818 96T867 70Q899 70 916 97T933 173ZM597 173Q597 219 581 244T532 270Q501 270 484 243T466 168Q466 122 483 96T531 70Q563 70 580 97T597 173ZM220 515Q220 560 203 584T156 609Q125 609 107 582T89 505Q89 459 105 435T153 410Q185 410 202 437T220 515Z"  />
<glyph unicode="&#x2039;" horiz-adv-x="277" d="M234 53H144L41 225L139 394H231L139 225L234 53Z"  />
<glyph unicode="&#x203A;" horiz-adv-x="277" d="M234 225L131 53H41L137 225L44 394H137L234 225Z"  />
<glyph unicode="&#x20AC;" horiz-adv-x="549" d="M467 522Q437 570 406 590T328 611Q271 611 236 570T187 460H488L476 375H177Q177 367 177 360T176 345V321H456L444 236H186Q200 168 232 127T322 86Q366 86 400 106T472 176L528 107Q490 49 435 18T313 -13Q216 -13 151 51T66 236H2L14 321H57V345Q57 353 57 360T58 375H2L14 460H67Q89 578 155 643T323 709Q392 709 445 679T533 585L467 522Z"  />
<glyph unicode="&#x2122;" horiz-adv-x="413" d="M383 404H354V586L288 404H270L210 588V404H180V605H236L281 462L330 605H383V404ZM14 581V605H167V581H106V404H75V581H14Z"  />

</font>
</defs>
</svg>
